<svg width="16" height="16" viewBox="0 0 16 16" fill="none" xmlns="http://www.w3.org/2000/svg">
<g clip-path="url(#clip0_1385_14602)">
<path d="M7.99967 15.1668C4.04634 15.1668 0.833008 11.9535 0.833008 8.00016C0.833008 4.04683 4.04634 0.833496 7.99967 0.833496C11.953 0.833496 15.1663 4.04683 15.1663 8.00016C15.1663 11.9535 11.953 15.1668 7.99967 15.1668ZM7.99967 1.8335C4.59967 1.8335 1.83301 4.60016 1.83301 8.00016C1.83301 11.4002 4.59967 14.1668 7.99967 14.1668C11.3997 14.1668 14.1663 11.4002 14.1663 8.00016C14.1663 4.60016 11.3997 1.8335 7.99967 1.8335Z" fill="white"/>
<path d="M6.1137 10.3869C5.98704 10.3869 5.86037 10.3402 5.76037 10.2402C5.66738 10.1461 5.61523 10.0192 5.61523 9.8869C5.61523 9.75461 5.66738 9.62766 5.76037 9.53357L9.5337 5.76023C9.72704 5.5669 10.047 5.5669 10.2404 5.76023C10.4337 5.95357 10.4337 6.27357 10.2404 6.4669L6.46704 10.2402C6.3737 10.3402 6.24037 10.3869 6.1137 10.3869Z" fill="white"/>
<path d="M9.88704 10.3869C9.76037 10.3869 9.6337 10.3402 9.5337 10.2402L5.76037 6.4669C5.66738 6.37281 5.61523 6.24585 5.61523 6.11357C5.61523 5.98128 5.66738 5.85433 5.76037 5.76023C5.9537 5.5669 6.2737 5.5669 6.46704 5.76023L10.2404 9.53357C10.4337 9.7269 10.4337 10.0469 10.2404 10.2402C10.1404 10.3402 10.0137 10.3869 9.88704 10.3869Z" fill="white"/>
</g>
<defs>
<clipPath id="clip0_1385_14602">
<rect width="16" height="16" fill="white"/>
</clipPath>
</defs>
</svg>
