<svg width="24" height="24" viewBox="0 0 24 24" fill="none" xmlns="http://www.w3.org/2000/svg">
<path d="M15 22.25H9C6.3424 22.25 4.56492 21.6803 3.4423 20.5577C2.31968 19.4351 1.75 17.6576 1.75 15V9C1.75 6.3424 2.31968 4.56492 3.4423 3.4423C4.56492 2.31968 6.3424 1.75 9 1.75H11C11.1339 1.75 11.25 1.86614 11.25 2C11.25 2.13386 11.1339 2.25 11 2.25H9C6.65972 2.25 4.92432 2.66107 3.7927 3.7927C2.66107 4.92432 2.25 6.65972 2.25 9V15C2.25 17.3403 2.66107 19.0757 3.7927 20.2073C4.92432 21.3389 6.65972 21.75 9 21.75H15C17.3403 21.75 19.0757 21.3389 20.2073 20.2073C21.3389 19.0757 21.75 17.3403 21.75 15V13C21.75 12.8661 21.8661 12.75 22 12.75C22.1339 12.75 22.25 12.8661 22.25 13V15C22.25 17.6576 21.6803 19.4351 20.5577 20.5577C19.4351 21.6803 17.6576 22.25 15 22.25Z" fill="#6D0DB8" stroke="#6D0DB8"/>
<path d="M8.5 17.6886C7.89 17.6886 7.33 17.4686 6.92 17.0686C6.43 16.5786 6.22 15.8686 6.33 15.1186L6.76 12.1086C6.84 11.5286 7.22 10.7786 7.63 10.3686L15.51 2.48859C17.5 0.498594 19.52 0.498594 21.51 2.48859C22.6 3.57859 23.09 4.68859 22.99 5.79859C22.9 6.69859 22.42 7.57859 21.51 8.47859L13.63 16.3586C13.22 16.7686 12.47 17.1486 11.89 17.2286L8.88 17.6586C8.75 17.6886 8.62 17.6886 8.5 17.6886ZM16.57 3.54859L8.69 11.4286C8.5 11.6186 8.28 12.0586 8.24 12.3186L7.81 15.3286C7.77 15.6186 7.83 15.8586 7.98 16.0086C8.13 16.1586 8.37 16.2186 8.66 16.1786L11.67 15.7486C11.93 15.7086 12.38 15.4886 12.56 15.2986L20.44 7.41859C21.09 6.76859 21.43 6.18859 21.48 5.64859C21.54 4.99859 21.2 4.30859 20.44 3.53859C18.84 1.93859 17.74 2.38859 16.57 3.54859Z" fill="#6D0DB8"/>
<path d="M19.85 9.83027C19.78 9.83027 19.71 9.82027 19.65 9.80027C18.3504 9.43022 17.1668 8.73449 16.2113 7.779C15.2558 6.82351 14.5601 5.63989 14.19 4.34027C14.1374 4.14803 14.1625 3.94284 14.2597 3.76888C14.357 3.59493 14.5187 3.46615 14.71 3.41027C15.11 3.30027 15.52 3.53027 15.63 3.93027C16.23 6.06027 17.92 7.75027 20.05 8.35027C20.45 8.46027 20.68 8.88027 20.57 9.28027C20.48 9.62027 20.18 9.83027 19.85 9.83027Z" fill="#6D0DB8"/>
</svg>
