<svg width="24" height="22" viewBox="0 0 24 22" fill="none" xmlns="http://www.w3.org/2000/svg">
<path d="M21.7341 12.8159C22.2885 11.9883 22.7251 11.1686 23.0251 10.3784C23.3867 9.43291 23.5689 8.50345 23.5689 7.61149C23.5716 6.66595 23.3814 5.7472 23.0091 4.88202C22.65 4.05069 22.1323 3.29735 21.485 2.66417L21.7341 12.8159ZM21.7341 12.8159C20.8555 14.1258 19.6475 15.4918 18.1475 16.8767C15.6591 19.1722 13.2001 20.7552 13.0957 20.8222L21.7341 12.8159ZM22.9927 4.88908C22.6346 4.05989 22.1182 3.30849 21.4725 2.67693L21.4725 2.67692C20.8262 2.04345 20.0643 1.54003 19.2281 1.19406L19.2281 1.19405C18.361 0.833866 17.4311 0.649504 16.4921 0.651665L16.4921 0.651665C15.1748 0.651665 13.8897 1.01238 12.7728 1.6937C12.5056 1.85668 12.2518 2.03568 12.0114 2.23071L12.0001 2.23984L11.9889 2.23071C11.7484 2.03568 11.4946 1.85668 11.2274 1.6937C10.1106 1.01238 8.82545 0.651665 7.50818 0.651665C6.5596 0.651665 5.6405 0.833356 4.77217 1.19405L4.77215 1.19406C3.93319 1.5414 3.17708 2.04102 2.52781 2.67692L2.52779 2.67695C1.88124 3.30778 1.36476 4.05936 1.00761 4.88908C0.636249 5.75204 0.446568 6.66838 0.446568 7.61149C0.446568 8.50101 0.628211 9.42831 0.98914 10.3721C1.29126 11.1608 1.72452 11.9793 2.27836 12.806C3.15596 14.1144 4.36299 15.4794 5.86225 16.8635C8.34689 19.1581 10.8075 20.7431 10.9113 20.807L10.9116 20.8072L11.5464 21.2143L22.9927 4.88908ZM22.9927 4.88908C23.364 5.75204 23.5537 6.66837 23.551 7.61144V7.61149C23.551 8.50101 23.3694 9.42831 23.0085 10.3721L23.0084 10.3721C22.709 11.1608 22.2731 11.9792 21.7192 12.806C20.8416 14.1144 19.6346 15.4794 18.1354 16.8635C15.6481 19.158 13.1902 20.7404 13.086 20.8072L12.4513 21.2143L22.9927 4.88908ZM12.0001 19.1106C12.0098 19.1256 12.0098 19.1256 12.0099 19.1256L12.0102 19.1253L12.0115 19.1245L12.0167 19.1211L12.0372 19.1079C12.0553 19.0961 12.0821 19.0786 12.1171 19.0556C12.187 19.0095 12.2895 18.9411 12.4199 18.8523C12.6808 18.6746 13.0535 18.4148 13.5007 18.0861C14.395 17.4289 15.5875 16.4963 16.7801 15.3951C17.9726 14.2941 19.1657 13.024 20.0607 11.6918C20.9556 10.3598 21.5537 8.96388 21.5537 7.61149C21.5537 4.87182 19.2873 2.65166 16.4921 2.65166C14.5396 2.65166 12.8444 3.73466 12.0001 5.32056C11.1559 3.73466 9.4607 2.65166 7.50818 2.65166C4.71294 2.65166 2.44657 4.87182 2.44657 7.61149C2.44657 8.96388 3.04467 10.3598 3.93956 11.6918C4.8346 13.024 6.02765 14.2941 7.22017 15.3951C8.41276 16.4963 9.60528 17.4289 10.4996 18.0861C10.9468 18.4148 11.3195 18.6746 11.5803 18.8523C11.7108 18.9411 11.8133 19.0095 11.8832 19.0556C11.9182 19.0786 11.945 19.0961 11.9631 19.1079L11.9835 19.1211L11.9887 19.1245L11.9901 19.1253L11.9904 19.1256C11.9905 19.1256 11.9905 19.1256 12.0001 19.1106ZM12.0001 19.1106L12.0098 19.1256L12.0001 19.1318L11.9905 19.1256L12.0001 19.1106ZM12.4512 21.2143C12.1758 21.39 11.8218 21.39 11.5464 21.2143H12.4512Z" fill="#6D0DB8" stroke="#6D0DB8" stroke-width="0.0357143"/>
</svg>
