<svg width="24" height="22" viewBox="0 0 24 22" fill="none" xmlns="http://www.w3.org/2000/svg">
<path d="M23.0088 4.88214C22.6498 4.05081 22.1321 3.29747 21.4847 2.66429C20.8369 2.02921 20.073 1.52453 19.2347 1.17768C18.3655 0.81659 17.4331 0.631763 16.4919 0.63393C15.1713 0.63393 13.8829 0.995537 12.7633 1.67857C12.4954 1.84197 12.241 2.02143 11.9999 2.21697C11.7588 2.02143 11.5044 1.84197 11.2365 1.67857C10.1169 0.995537 8.82847 0.63393 7.50793 0.63393C6.55704 0.63393 5.63561 0.816073 4.76507 1.17768C3.924 1.52589 3.16597 2.02679 2.51507 2.66429C1.86685 3.29676 1.34903 4.05028 0.990967 4.88214C0.618645 5.74732 0.428467 6.66607 0.428467 7.61161C0.428467 8.50357 0.61061 9.43304 0.972217 10.3786C1.2749 11.1688 1.70882 11.9884 2.26329 12.8161C3.14186 14.1259 4.3499 15.492 5.8499 16.8768C8.33561 19.1723 10.7972 20.758 10.9017 20.8223L11.5365 21.2295C11.8178 21.4089 12.1794 21.4089 12.4606 21.2295L13.0954 20.8223C13.1999 20.7554 15.6588 19.1723 18.1472 16.8768C19.6472 15.492 20.8553 14.1259 21.7338 12.8161C22.2883 11.9884 22.7249 11.1688 23.0249 10.3786C23.3865 9.43304 23.5686 8.50357 23.5686 7.61161C23.5713 6.66607 23.3811 5.74732 23.0088 4.88214ZM11.9999 19.1107C11.9999 19.1107 2.46418 13.0009 2.46418 7.61161C2.46418 4.88214 4.72222 2.66964 7.50793 2.66964C9.46597 2.66964 11.1642 3.7625 11.9999 5.35893C12.8356 3.7625 14.5338 2.66964 16.4919 2.66964C19.2776 2.66964 21.5356 4.88214 21.5356 7.61161C21.5356 13.0009 11.9999 19.1107 11.9999 19.1107Z" fill="white"/>
</svg>
