<svg width="32" height="26" viewBox="0 0 32 26" fill="none" xmlns="http://www.w3.org/2000/svg">
<path fill-rule="evenodd" clip-rule="evenodd" d="M6.77257 6.33047C6.77257 3.96035 8.74507 2 11.2269 2C13.7088 2 15.6813 3.96035 15.6813 6.33047C15.6813 8.70059 13.7088 10.6609 11.2269 10.6609C8.74507 10.6609 6.77257 8.70059 6.77257 6.33047ZM11.2269 0C7.68407 0 4.77257 2.81271 4.77257 6.33047C4.77257 9.84823 7.68407 12.6609 11.2269 12.6609C14.7698 12.6609 17.6813 9.84823 17.6813 6.33047C17.6813 2.81271 14.7698 0 11.2269 0ZM6.45436 15.9914C4.74988 15.9914 3.11071 16.6529 1.89861 17.8375C0.685728 19.0228 0 20.6354 0 22.3219V24.9871C0 25.5394 0.447715 25.9871 1 25.9871C1.55228 25.9871 2 25.5394 2 24.9871V22.3219C2 21.1809 2.46358 20.0818 3.29648 19.2679C4.13017 18.4531 5.26568 17.9914 6.45436 17.9914H15.9995C17.1882 17.9914 18.3237 18.4531 19.1574 19.2679C19.9903 20.0818 20.4539 21.1809 20.4539 22.3219V24.9871C20.4539 25.5394 20.9016 25.9871 21.4539 25.9871C22.0062 25.9871 22.4539 25.5394 22.4539 24.9871V22.3219C22.4539 20.6354 21.7681 19.0228 20.5553 17.8375C19.3432 16.6529 17.704 15.9914 15.9995 15.9914H6.45436ZM26.9082 6.66309C27.4605 6.66309 27.9082 7.11081 27.9082 7.66309V10.6609H30.999C31.5513 10.6609 31.999 11.1087 31.999 11.6609C31.999 12.2132 31.5513 12.6609 30.999 12.6609H27.9082V15.6588C27.9082 16.2111 27.4605 16.6588 26.9082 16.6588C26.3559 16.6588 25.9082 16.2111 25.9082 15.6588V12.6609H22.8175C22.2652 12.6609 21.8175 12.2132 21.8175 11.6609C21.8175 11.1087 22.2652 10.6609 22.8175 10.6609H25.9082V7.66309C25.9082 7.11081 26.3559 6.66309 26.9082 6.66309Z" fill="white"/>
</svg>
