<svg width="237" height="87" viewBox="0 0 237 87" fill="none" xmlns="http://www.w3.org/2000/svg">
<path fill-rule="evenodd" clip-rule="evenodd" d="M180.415 2.0654C171.141 2.0637 164.215 2.36463 165.023 2.73413C166.468 3.39518 166.466 3.43466 164.931 5.16091C164.073 6.12632 163.635 6.46108 163.959 5.90469C164.283 5.34832 164.09 4.10822 163.531 3.14992C162.315 1.06666 161.328 0.805472 162.007 2.74666C162.339 3.69534 161.979 3.65987 160.85 2.63487C159.013 0.96486 156.042 1.14705 155.099 2.98649C154.724 3.71767 154.498 3.53144 154.528 2.51578C154.567 1.24841 153.753 0.97999 151.224 1.42924C149.378 1.75539 142.92 2.20455 136.873 2.42543C130.825 2.64631 125.592 3.07013 125.245 3.36866C124.896 3.66717 119.837 3.73541 114.002 3.51935C104.426 3.1668 103.429 3.33146 103.768 5.20826C104.1 7.03657 104.026 7.02276 103.159 5.08945C101.887 2.25296 99.6311 2.16991 99.5114 4.95516C99.4361 6.68449 99.2926 6.76569 98.7901 5.36472C98.3315 4.08767 96.1878 3.50839 90.8435 3.21896C84.3259 2.86534 83.528 3.05959 83.5527 4.98534C83.5676 6.17439 83.0532 7.12899 82.4086 7.10526C81.6889 7.07876 81.4377 6.35418 81.7577 5.22811C82.0435 4.21938 81.9363 3.3815 81.5196 3.36616C81.1021 3.35079 80.7213 4.38444 80.6731 5.66383C80.5946 7.74886 79.8791 7.9832 73.7251 7.93082C69.9522 7.8994 65.9151 8.01145 64.7534 8.18118C63.5926 8.3497 62.1938 8.0054 61.645 7.41565C60.996 6.71596 61.6046 6.36402 63.3905 6.40507C65.1936 6.44674 65.7887 6.09801 65.1276 5.38676C63.6517 3.79922 65.7894 2.82903 67.7879 4.18007C68.6293 4.74847 71.4342 5.24214 74.0211 5.27684C76.8644 5.31358 77.6686 5.09609 76.0544 4.72533C74.0871 4.27361 73.6905 3.82784 74.5495 3.03294C75.4328 2.21547 75.2416 1.9181 73.7597 1.80177C72.6845 1.71647 70.0486 1.42052 67.9023 1.14135C65.7559 0.863422 63.6352 0.944719 63.1896 1.32242C62.4338 1.96298 60.6985 2.14124 54.3319 2.23423C52.9296 2.25426 51.7584 2.8857 51.7301 3.63705C51.7018 4.3884 52.1897 4.71893 52.8137 4.37251C53.4385 4.02611 54.0846 4.40694 54.2509 5.21981C54.4621 6.25549 53.1971 6.6475 50.0274 6.5308C47.5391 6.43919 45.6821 5.95447 45.9002 5.45226C46.1191 4.95131 47.3347 4.57848 48.6019 4.62514C49.8692 4.6718 50.9179 4.29282 50.9339 3.78441C50.9499 3.27599 47.9745 2.66732 44.3221 2.43278C39.5111 2.12345 37.8143 2.40197 38.1658 3.44157C38.4333 4.23099 38.0877 4.09843 37.3996 3.14774C36.5623 1.99265 35.4193 1.70719 33.9481 2.28804C32.738 2.76485 31.2122 3.33629 30.5568 3.55801C29.2294 4.00456 12.23 3.65914 9.78861 3.13437C6.60499 2.45009 6.17635 2.85683 7.13884 5.64486C7.90044 7.85225 7.79272 8.48454 6.39157 10.0366C4.84468 11.7513 4.83696 11.8313 6.25485 11.5017C7.08015 11.3085 7.89681 11.9909 8.06996 13.0165C8.24312 14.0421 8.11625 14.4538 7.78851 13.9303C7.03015 12.72 4.19141 16.396 4.10471 18.6994C4.06876 19.6543 3.42585 20.3151 2.67695 20.1664C-0.00651481 19.634 -0.230154 20.262 2.01912 22.0152C3.27638 22.9942 3.86313 23.8251 3.32219 23.8607C2.78207 23.8952 2.30141 24.9338 2.25497 26.1676C2.18716 27.9688 2.7072 28.3636 4.90021 28.1737C6.40083 28.0424 7.84578 28.5565 8.1106 29.3137C8.43283 30.2336 7.91224 30.4578 6.54164 29.9898C5.41344 29.6035 4.47 29.8307 4.44501 30.4945C4.42003 31.1582 3.71795 31.3906 2.88443 31.0103C1.13872 30.2146 0.00721578 33.479 0.65302 37.4501C0.875325 38.816 1.02459 41.6013 0.98473 43.6396C0.912769 47.3223 1.54984 48.0042 4.7778 47.6981C5.53497 47.6271 6.13223 48.1791 6.10409 48.9268C6.07436 49.7163 5.13522 50.0376 3.86502 49.6943C1.65147 49.0964 1.00286 50.9504 2.21445 54.4135C2.48981 55.2032 2.26115 56.1523 1.70522 56.5235C1.14929 56.8946 1.49981 56.9174 2.48291 56.5743C3.46679 56.2313 4.25101 56.4838 4.22653 57.1339C4.20201 57.7854 3.2035 58.6628 2.0072 59.0858C0.0653183 59.7716 -0.022193 59.992 1.19317 61.1462C1.94131 61.857 3.06101 62.1564 3.68102 61.8123C6.03368 60.5066 5.34125 63.1286 2.90252 64.7623L0.34555 66.4744L2.87648 66.9543C4.26885 67.2193 5.38656 67.9881 5.36116 68.663C5.33571 69.3391 5.73708 69.5107 6.25263 69.0454C6.80561 68.5444 6.95787 68.7292 6.62315 69.4952C6.31153 70.2102 4.61133 71.1223 2.84332 71.523C-0.836723 72.3586 -0.819509 73.3389 2.88246 73.7754C4.27941 73.9393 5.52531 74.6783 5.65197 75.418C5.79809 76.266 4.98078 76.5176 3.43417 76.0999C1.58636 75.5994 1.06128 75.8593 1.29559 77.1565C1.49746 78.2734 2.74598 78.8803 4.85936 78.8889C7.9075 78.901 8.10486 79.1171 7.98439 82.3174C7.83099 86.3925 9.37776 87.5354 13.326 86.2637C14.8543 85.7714 16.3721 85.2887 16.6997 85.1908C17.0273 85.0929 17.3847 84.9738 17.4939 84.9272C17.6031 84.8806 19.9946 84.6474 22.8075 84.4087C25.6204 84.1701 28.2506 83.512 28.6522 82.9474C29.0573 82.3767 27.2467 82.0543 24.587 82.222C18.6436 82.5974 17.4911 80.5437 23.1699 79.6977C31.3947 78.4735 36.6999 78.8467 37.5403 80.7111C38.4371 82.701 48.2981 83.1197 51.5945 81.3076C52.7478 80.6742 53.5267 80.756 53.6592 81.5257C53.7764 82.2045 54.7708 81.5419 55.8692 80.0528C57.1874 78.2667 57.955 77.8564 58.1255 78.8473C58.4437 80.6875 63.7175 81.0596 63.7858 79.246C63.8187 78.3712 68.1813 78.2391 77.1343 78.8393C89.4403 79.6654 90.4401 79.5676 90.5162 77.5442C90.5693 76.1353 89.9737 75.2893 88.841 75.1685C87.7802 75.0541 88.3198 74.5736 90.2035 73.9561C92.2419 73.2874 93.5835 73.38 94.0757 74.2234C94.5878 75.1009 94.4779 75.4996 93.7314 75.4721C92.8856 75.441 92.8346 75.7739 93.5088 76.9292C94.6058 78.8092 97.4942 79.6889 97.5517 78.1615C97.5753 77.5348 96.9058 76.8183 96.0634 76.5711C95.0821 76.2817 94.7663 75.5881 95.1846 74.6423C95.6382 73.6163 98.7037 73.2695 105.208 73.5102C110.36 73.6999 115.107 73.8216 115.756 73.7812C116.404 73.7409 120.289 73.6825 124.388 73.6506C128.487 73.6199 132.649 73.2134 133.638 72.747C134.671 72.2587 135.415 72.4072 135.389 73.0944C135.362 73.8248 138.556 74.1969 143.588 74.0523C148.976 73.8973 151.816 74.2576 151.784 75.0929C151.732 76.4747 150.857 76.7476 147.816 76.3305C146.743 76.1835 144.806 76.0776 143.511 76.0942C142.217 76.1107 138.07 76.1187 134.297 76.1095C130.129 76.1006 127.524 76.5829 127.659 77.339C127.87 78.5106 132.593 78.7129 163.324 78.8683C170.73 78.9062 173.088 78.5124 173.702 77.1377C174.171 76.0851 174.478 75.9482 174.453 76.8034C174.422 77.866 177.543 78.2366 186.225 78.2005C194.411 78.1646 198.475 78.6119 199.459 79.6551C200.585 80.8479 201.188 80.7886 202.363 79.3679C203.179 78.3824 204.911 77.4442 206.211 77.2833C207.511 77.1211 208.944 76.5771 209.394 76.0723C209.844 75.5688 211.528 75.3923 213.134 75.6825C214.887 75.9978 216.076 75.6685 216.106 74.8604C216.135 74.0893 215.311 73.7352 214.177 74.032C213.088 74.3168 212.214 74.071 212.236 73.4862C212.258 72.9026 213.158 72.4563 214.234 72.496C215.311 72.5356 216.212 72.0585 216.235 71.4367C216.259 70.8137 217.973 69.7995 220.045 69.1827C224.829 67.7577 228.36 65.7911 226.454 65.611C223.199 65.3058 225.965 61.8088 229.363 61.9339C230.601 61.9795 230.81 61.6313 230.185 60.5607C229.091 58.687 231.285 55.285 232.902 56.3452C233.523 56.7536 234.05 56.5481 234.075 55.8918C234.1 55.2342 233.7 54.6808 233.187 54.6619C232.674 54.6431 232.969 53.8373 233.843 52.8724C234.886 51.7186 235.067 51.0903 234.37 51.0387C233.752 50.9924 233.526 50.1946 233.829 49.126C234.205 47.8006 233.813 47.2723 232.416 47.2208C231.353 47.1817 230.503 46.5945 230.529 45.9159C230.555 45.2373 231.125 44.7024 231.797 44.7271C232.468 44.7518 232.821 44.2089 232.58 43.5205C232.339 42.8321 232.713 42.2899 233.41 42.3156C236.264 42.4207 233.549 39.8375 230.526 39.5705C228.594 39.4005 228.06 39.1116 229.226 38.8678C230.313 38.6398 232.095 38.1655 233.187 37.8128L235.172 37.173L233.45 36.0471C230.927 34.3976 231.436 32.3741 234.372 32.3735L236.921 32.3734L234.242 30.6094C232.769 29.6397 230.686 28.7316 229.612 28.5932C227.813 28.3602 227.787 28.2616 229.268 27.3401C230.151 26.7907 232.099 26.6166 233.596 26.9546L236.318 27.5688L233.628 26.1083C231.02 24.6916 230.995 24.6153 232.831 23.6093C234.397 22.7515 234.569 22.2488 233.825 20.6981C233.066 19.1159 233.276 18.8099 235.182 18.7318C237.052 18.6548 236.908 18.4692 234.338 17.6407C232.634 17.0912 231.949 16.5224 232.817 16.3776C233.687 16.2318 232.664 15.3367 230.54 14.3838C228.418 13.4322 227.39 12.6234 228.254 12.5861C229.61 12.5273 229.548 12.2717 227.806 10.7275C225.633 8.80295 217.439 6.10819 211.542 5.37962C209.544 5.13307 208.088 4.5198 208.306 4.01885C208.525 3.5179 207.188 2.98559 205.334 2.83706C203.481 2.68852 200.91 2.4555 199.621 2.31786C198.333 2.18022 189.69 2.0671 180.415 2.0654ZM182.884 4.2096C182.333 4.53277 181.452 4.50033 180.926 4.13751C180.4 3.77595 180.851 3.5121 181.928 3.55175C183.005 3.5914 183.435 3.88769 182.884 4.2096ZM157.322 5.66776C157.047 6.06779 156.369 6.08732 155.818 5.70998C155.208 5.2934 155.405 5.00784 156.319 4.98221C157.147 4.95956 157.598 5.26773 157.322 5.66776ZM167.458 7.27637C167.182 7.6764 166.505 7.69593 165.954 7.31859C165.343 6.90201 165.54 6.61645 166.455 6.59083C167.282 6.56817 167.733 6.87634 167.458 7.27637ZM63.243 4.67494C62.9676 5.07497 62.29 5.0945 61.7387 4.71716C61.1285 4.30058 61.3252 4.01502 62.2398 3.98939C63.0674 3.96674 63.5185 4.27491 63.243 4.67494ZM88.8888 6.09974C89.1394 6.81688 88.5036 7.20611 87.3883 7.01803C86.3237 6.83923 85.6411 6.26185 85.8711 5.73537C86.46 4.38569 88.3697 4.61661 88.8888 6.09974ZM92.6276 5.82845C92.0766 6.15162 91.1955 6.11918 90.6695 5.75636C90.1443 5.3948 90.595 5.13095 91.672 5.1706C92.7489 5.21025 93.1793 5.50654 92.6276 5.82845ZM60.2111 7.52347C60.1856 8.20203 59.7911 8.74346 59.3353 8.72668C58.8794 8.70989 58.7445 8.14897 59.0363 7.48021C59.3282 6.81146 59.7219 6.27 59.9122 6.277C60.1025 6.28401 60.2367 6.84491 60.2111 7.52347ZM22.6567 11.8227C22.2978 13.0869 21.8205 13.1608 20.6829 12.1281C19.8578 11.3774 18.6702 11.0495 18.0438 11.3971C17.4174 11.7447 16.9236 11.5264 16.9468 10.9107C16.9699 10.2963 18.3709 9.87471 20.0597 9.97395C22.3214 10.1054 23.0058 10.5927 22.6567 11.8227ZM32.6115 11.48C33.4415 12.4125 32.9133 12.65 30.6171 12.374C28.8994 12.1674 26.5984 12.3496 25.5038 12.78C24.4092 13.2104 24.0065 13.24 24.6095 12.8471C25.535 12.2425 25.5457 11.9587 24.6781 11.0261C24.0223 10.3212 25.0659 9.97419 27.5667 10.0663C29.7206 10.1456 31.9907 10.7814 32.6115 11.48ZM37.312 11.6222C38.2256 12.6244 38.1041 12.8522 36.6788 12.8158C35.7096 12.79 34.9368 12.2143 34.9623 11.5357C35.0205 9.98982 35.8515 10.0204 37.312 11.6222ZM167.482 74.7899C167.463 75.2982 165.596 75.6533 163.335 75.5774C161.073 75.5016 157.888 75.7352 156.256 76.0964C154.594 76.4639 153.31 76.2461 153.334 75.5984C153.358 74.9642 154.87 74.3614 156.694 74.2593C158.518 74.1572 160.085 73.9678 160.174 73.8364C160.667 73.122 167.511 74.0139 167.482 74.7899ZM171.126 75.2329C171.046 77.3488 171.068 77.336 169.451 76.2745C167.796 75.1882 167.997 73.2646 169.759 73.3294C170.549 73.3585 171.164 74.2151 171.126 75.2329ZM174.571 73.9921C174.561 74.2586 173.993 74.7875 173.309 75.1676C172.596 75.5626 172.29 75.3438 172.59 74.6555C173.094 73.4992 174.608 72.9928 174.571 73.9921ZM106.214 77.2339C96.5927 77.679 96.7382 78.0426 106.931 79.0331C114.887 79.8067 122.61 79.2064 122.663 77.8123C122.699 76.8426 118.158 76.6828 106.214 77.2339ZM123.438 78.0644C123.417 78.5987 124.106 79.0614 124.967 79.0931C125.829 79.1248 126.553 78.6301 126.577 77.9935C126.601 77.3569 125.913 76.8942 125.048 76.9649C124.182 77.0355 123.458 77.5302 123.438 78.0644ZM191.933 81.5585C191.641 82.2273 191.972 82.7955 192.67 82.8211C193.367 82.8468 193.74 82.3046 193.499 81.6162C193.258 80.9278 192.927 80.3597 192.762 80.3536C192.598 80.3476 192.225 80.8898 191.933 81.5585ZM196.892 81.3495C197.443 81.7268 198.121 81.7073 198.396 81.3073C198.672 80.9072 198.221 80.5991 197.393 80.6217C196.478 80.6473 196.282 80.9329 196.892 81.3495ZM55.7572 78.5266C55.4818 78.9267 54.8042 78.9462 54.2529 78.5688C53.6427 78.1523 53.8393 77.8667 54.754 77.8411C55.5815 77.8184 56.0327 78.1266 55.7572 78.5266ZM139.768 81.7716C136.412 83.1467 136.233 83.5465 138.473 84.6557C140.106 85.4645 141.096 85.3267 141.886 84.1809C142.807 82.8422 142.823 82.4561 141.981 81.9235C141.421 81.5705 140.426 81.5018 139.768 81.7716ZM51.6201 79.4825C49.7116 80.4266 38.645 80.3873 38.6807 79.4373C38.7025 78.8599 41.8029 78.5466 45.5697 78.7384C49.3374 78.9302 52.0596 79.2652 51.6201 79.4825ZM144.305 83.3792C145.24 84.3847 148.311 84.0209 148.353 82.8982C148.363 82.6391 147.225 82.3921 145.825 82.3504C144.094 82.3003 143.607 82.6295 144.305 83.3792ZM31.7104 82.6931C32.4607 83.0345 33.5188 83.0524 34.0618 82.7339C34.6048 82.4154 33.9909 82.1371 32.6977 82.1142C31.4044 82.0913 30.9601 82.3516 31.7104 82.6931Z" fill="white"/>
</svg>
