<svg width="50" height="50" viewBox="0 0 50 50" fill="none" xmlns="http://www.w3.org/2000/svg">
<path fill-rule="evenodd" clip-rule="evenodd" d="M46.3323 41.9995C47.0977 41.2395 47.5277 40.2087 47.5277 39.1339V16.8443C47.5277 15.7694 47.0977 14.7386 46.3323 13.9786C45.5668 13.2186 44.5287 12.7916 43.4462 12.7916H35.2832L31.2018 6.71265H18.9573L14.8758 12.7916H6.71283C5.63036 12.7916 4.59221 13.2186 3.82679 13.9786C3.06136 14.7386 2.63135 15.7694 2.63135 16.8443V39.1339C2.63135 40.2087 3.06136 41.2395 3.82679 41.9995C4.59221 42.7595 5.63036 43.1865 6.71283 43.1865H43.4462C44.5287 43.1865 45.5668 42.7595 46.3323 41.9995ZM39.3646 29.002C39.3646 36.8355 32.9689 43.1859 25.0794 43.1859C17.1899 43.1859 10.7942 36.8355 10.7942 29.002C10.7942 21.1685 17.1899 14.8181 25.0794 14.8181C32.9689 14.8181 39.3646 21.1685 39.3646 29.002Z" fill="#6D0DB8"/>
<path d="M46.3323 41.9995L47.0368 42.7091L47.0369 42.7091L46.3323 41.9995ZM46.3323 13.9786L47.0369 13.269V13.269L46.3323 13.9786ZM43.4462 12.7916V11.7916V12.7916ZM35.2832 12.7916L34.453 13.349C34.6387 13.6257 34.95 13.7916 35.2832 13.7916V12.7916ZM31.2018 6.71265L32.032 6.15522C31.8463 5.8786 31.5349 5.71265 31.2018 5.71265V6.71265ZM18.9573 6.71265V5.71265C18.6241 5.71265 18.3128 5.8786 18.1271 6.15522L18.9573 6.71265ZM14.8758 12.7916V13.7916C15.209 13.7916 15.5203 13.6257 15.706 13.349L14.8758 12.7916ZM6.71283 12.7916V11.7916H6.71283L6.71283 12.7916ZM3.82679 13.9786L3.12219 13.269H3.12219L3.82679 13.9786ZM3.82679 41.9995L3.12219 42.7091H3.12219L3.82679 41.9995ZM46.5277 39.1339C46.5277 39.9412 46.2048 40.7169 45.6277 41.2899L47.0369 42.7091C47.9906 41.7621 48.5277 40.4762 48.5277 39.1339H46.5277ZM46.5277 16.8443V39.1339H48.5277V16.8443H46.5277ZM45.6277 14.6882C46.2048 15.2613 46.5277 16.037 46.5277 16.8443H48.5277C48.5277 15.5019 47.9906 14.216 47.0369 13.269L45.6277 14.6882ZM43.4462 13.7916C44.2658 13.7916 45.0503 14.115 45.6277 14.6882L47.0369 13.269C46.0834 12.3222 44.7916 11.7916 43.4462 11.7916V13.7916ZM35.2832 13.7916H43.4462V11.7916H35.2832V13.7916ZM30.3715 7.27007L34.453 13.349L36.1135 12.2342L32.032 6.15522L30.3715 7.27007ZM18.9573 7.71265H31.2018V5.71265H18.9573V7.71265ZM15.706 13.349L19.7875 7.27007L18.1271 6.15522L14.0456 12.2342L15.706 13.349ZM6.71283 13.7916H14.8758V11.7916H6.71283V13.7916ZM4.53138 14.6882C5.10874 14.115 5.89329 13.7916 6.71283 13.7916L6.71283 11.7916C5.36742 11.7916 4.07569 12.3222 3.12219 13.269L4.53138 14.6882ZM3.63135 16.8443C3.63135 16.037 3.95427 15.2613 4.53138 14.6882L3.12219 13.269C2.16845 14.216 1.63135 15.5019 1.63135 16.8443H3.63135ZM3.63135 39.1339V16.8443H1.63135V39.1339H3.63135ZM4.53138 41.2899C3.95427 40.7169 3.63135 39.9412 3.63135 39.1339H1.63135C1.63135 40.4762 2.16845 41.7621 3.12219 42.7091L4.53138 41.2899ZM6.71283 42.1865C5.89329 42.1865 5.10874 41.8632 4.53138 41.2899L3.12219 42.7091C4.07569 43.6559 5.36742 44.1865 6.71283 44.1865V42.1865ZM43.4462 42.1865H6.71283V44.1865H43.4462V42.1865ZM45.6277 41.2899C45.0503 41.8632 44.2657 42.1865 43.4462 42.1865V44.1865C44.7916 44.1865 46.0834 43.6559 47.0368 42.7091L45.6277 41.2899ZM25.0794 44.1859C33.5144 44.1859 40.3646 37.3945 40.3646 29.002H38.3646C38.3646 36.2766 32.4233 42.1859 25.0794 42.1859V44.1859ZM9.79415 29.002C9.79415 37.3945 16.6443 44.1859 25.0794 44.1859V42.1859C17.7354 42.1859 11.7942 36.2766 11.7942 29.002H9.79415ZM25.0794 13.8181C16.6443 13.8181 9.79415 20.6095 9.79415 29.002H11.7942C11.7942 21.7274 17.7354 15.8181 25.0794 15.8181V13.8181ZM40.3646 29.002C40.3646 20.6095 33.5144 13.8181 25.0794 13.8181V15.8181C32.4233 15.8181 38.3646 21.7274 38.3646 29.002H40.3646Z" fill="#6D0DB8"/>
<path d="M25.0793 35.0812C24.9897 35.0818 24.901 35.0647 24.8181 35.0311C24.7352 34.9975 24.6599 34.948 24.5963 34.8854L19.3108 29.6306C18.6478 28.9654 18.2759 28.0674 18.2759 27.1315C18.2759 26.1957 18.6478 25.2976 19.3108 24.6324C19.9789 23.9709 20.8841 23.5994 21.8277 23.5994C22.7713 23.5994 23.6764 23.9709 24.3446 24.6324L25.0793 25.3619L25.8139 24.6324C26.4821 23.9709 27.3872 23.5994 28.3308 23.5994C29.2745 23.5994 30.1796 23.9709 30.8478 24.6324C31.5108 25.2976 31.8826 26.1957 31.8826 27.1315C31.8826 28.0674 31.5108 28.9654 30.8478 29.6306L25.5622 34.8854C25.4987 34.948 25.4233 34.9975 25.3404 35.0311C25.2575 35.0647 25.1688 35.0818 25.0793 35.0812Z" fill="#6D0DB8"/>
</svg>
