<svg width="92" height="26" viewBox="0 0 92 26" fill="none" xmlns="http://www.w3.org/2000/svg">
<path d="M19.8254 0.870728C19.7838 1.16239 19.7317 1.30823 19.6692 1.30823C19.6067 1.30823 19.5546 1.32906 19.5129 1.37073C19.4504 1.47489 19.3775 1.55823 19.2942 1.62073C19.2109 1.66239 19.1275 1.73531 19.0442 1.83948L18.7317 2.08948C18.5859 2.21448 18.4504 2.34989 18.3254 2.49573C18.2213 2.64156 18.0859 2.76656 17.9192 2.87073C17.8775 2.97489 17.8254 3.05823 17.7629 3.12073C17.7213 3.18323 17.6692 3.24573 17.6067 3.30823C17.6275 3.55823 17.6171 3.72489 17.5754 3.80823C17.5546 3.87073 17.5442 3.92281 17.5442 3.96448C17.5442 4.04781 17.565 4.19364 17.6067 4.40198C17.6067 4.54781 17.6171 4.69364 17.6379 4.83948C17.6796 4.96448 17.7109 5.11031 17.7317 5.27698C17.7734 5.40198 17.7942 5.53739 17.7942 5.68323C17.815 5.80823 17.8463 5.92281 17.8879 6.02698C18.0129 6.31864 18.0859 6.51656 18.1067 6.62073C18.1275 6.70406 18.1588 6.79781 18.2004 6.90198L18.3254 7.30823C18.3254 7.47489 18.3359 7.58948 18.3567 7.65198C18.3775 7.69364 18.3984 7.73531 18.4192 7.77698C18.4609 7.94364 18.5025 8.11031 18.5442 8.27698C18.6067 8.44364 18.69 8.58948 18.7942 8.71448C18.8359 8.90198 18.8775 9.08948 18.9192 9.27698C18.9817 9.46448 19.0546 9.64156 19.1379 9.80823C19.1588 10.0791 19.1796 10.277 19.2004 10.402C19.2421 10.527 19.2838 10.6416 19.3254 10.7457C19.3671 10.8707 19.3984 10.9853 19.4192 11.0895C19.4609 11.1936 19.5129 11.2978 19.5754 11.402C19.6379 11.6311 19.7213 11.8499 19.8254 12.0582C19.8671 12.2041 19.9088 12.3082 19.9504 12.3707C19.9921 12.4124 20.0234 12.4645 20.0442 12.527L20.2004 12.9957C20.2421 13.1207 20.2838 13.2457 20.3254 13.3707C20.3671 13.4749 20.4088 13.5895 20.4504 13.7145C20.5754 13.902 20.6379 14.0374 20.6379 14.1207C20.6588 14.2041 20.69 14.277 20.7317 14.3395C20.7734 14.4853 20.8254 14.6103 20.8879 14.7145C20.9504 14.8186 21.0129 14.9541 21.0754 15.1207C21.1379 15.3082 21.2004 15.4957 21.2629 15.6832C21.3254 15.8707 21.3984 16.0582 21.4817 16.2457C21.565 16.4124 21.6379 16.5686 21.7004 16.7145C21.7421 16.777 21.7629 16.8499 21.7629 16.9332C21.7629 16.9957 21.7838 17.0478 21.8254 17.0895C21.9088 17.3186 21.9713 17.4957 22.0129 17.6207C22.0754 17.7249 22.1275 17.8395 22.1692 17.9645C22.2525 18.152 22.3046 18.3082 22.3254 18.4332C22.3463 18.5374 22.3775 18.6311 22.4192 18.7145C22.4817 18.8186 22.5338 18.9228 22.5754 19.027L22.7317 19.3395C22.8359 19.5061 22.8879 19.6311 22.8879 19.7145C22.8879 19.777 22.9088 19.8499 22.9504 19.9332C23.0546 20.0791 23.1067 20.1832 23.1067 20.2457C23.1067 20.3082 23.1171 20.3707 23.1379 20.4332C23.1796 20.5166 23.2213 20.5895 23.2629 20.652C23.3046 20.7145 23.3463 20.7874 23.3879 20.8707C23.5129 21.1207 23.6067 21.2874 23.6692 21.3707C23.7317 21.4541 23.7838 21.5374 23.8254 21.6207C24.0129 21.9124 24.1692 22.1103 24.2942 22.2145C24.4609 22.2978 24.5859 22.3916 24.6692 22.4957C24.7525 22.5791 24.8463 22.652 24.9504 22.7145C25.1171 22.8186 25.2213 22.902 25.2629 22.9645C25.5338 23.1103 25.7109 23.2041 25.7942 23.2457C25.94 23.3916 26.0338 23.4645 26.0754 23.4645C26.1171 23.4645 26.1588 23.4749 26.2004 23.4957C26.3046 23.5374 26.4192 23.5895 26.5442 23.652C26.69 23.6936 26.815 23.7353 26.9192 23.777C27.0234 23.8186 27.1067 23.8499 27.1692 23.8707C27.2525 23.8916 27.3463 23.9124 27.4504 23.9332C27.5338 23.9541 27.6171 23.9645 27.7004 23.9645C27.8046 23.9436 27.8984 23.9749 27.9817 24.0582C27.7942 24.1624 27.7004 24.2249 27.7004 24.2457C27.7004 24.2666 27.6796 24.277 27.6379 24.277C27.5754 24.277 27.5025 24.2666 27.4192 24.2457C27.3359 24.2249 27.2421 24.2145 27.1379 24.2145C26.9504 24.1936 26.7421 24.2041 26.5129 24.2457C26.3046 24.2874 26.0859 24.3186 25.8567 24.3395C25.7109 24.3603 25.5546 24.3707 25.3879 24.3707C25.2421 24.3707 25.0859 24.3811 24.9192 24.402C24.6067 24.402 24.3775 24.4124 24.2317 24.4332C24.1067 24.4541 23.9609 24.4645 23.7942 24.4645C23.7109 24.4645 23.6379 24.4749 23.5754 24.4957C23.5338 24.5166 23.4921 24.5374 23.4504 24.5582C23.2213 24.5791 22.9921 24.5791 22.7629 24.5582C22.5338 24.5582 22.315 24.5686 22.1067 24.5895C21.9817 24.5895 21.8567 24.5999 21.7317 24.6207C21.6067 24.6416 21.4817 24.652 21.3567 24.652C21.065 24.6728 20.7838 24.6832 20.5129 24.6832C20.2421 24.7041 19.9713 24.7249 19.7004 24.7457C19.5754 24.7457 19.4504 24.7353 19.3254 24.7145C19.2004 24.7145 19.0754 24.7249 18.9504 24.7457C18.7421 24.7666 18.5442 24.7874 18.3567 24.8082C18.1692 24.8499 17.9817 24.8603 17.7942 24.8395C17.69 24.8395 17.5963 24.8291 17.5129 24.8082C17.4504 24.7874 17.3671 24.777 17.2629 24.777C17.2004 24.777 17.1379 24.777 17.0754 24.777C17.0129 24.7978 16.9504 24.8082 16.8879 24.8082C16.5963 24.7874 16.3463 24.7874 16.1379 24.8082C15.9504 24.8499 15.7734 24.8603 15.6067 24.8395C15.2942 24.8395 15.0338 24.777 14.8254 24.652C14.9296 24.402 15.0129 24.2666 15.0754 24.2457C15.1379 24.2249 15.2109 24.1936 15.2942 24.152C15.44 24.0895 15.5859 24.027 15.7317 23.9645C15.8984 23.902 16.065 23.8291 16.2317 23.7457C16.3359 23.7249 16.4921 23.6728 16.7004 23.5895C16.9504 23.4436 17.1588 23.3499 17.3254 23.3082C17.4296 23.2666 17.5234 23.2145 17.6067 23.152C17.7109 23.0895 17.815 23.0374 17.9192 22.9957C17.9817 22.9541 18.0442 22.9332 18.1067 22.9332C18.1692 22.9332 18.2213 22.9124 18.2629 22.8707C18.4921 22.7249 18.6171 22.6624 18.6379 22.6832C18.6796 22.6832 18.7213 22.6728 18.7629 22.652C18.9088 22.5686 18.9921 22.5061 19.0129 22.4645C19.0546 22.402 19.0963 22.3499 19.1379 22.3082C19.2421 22.3082 19.315 22.2874 19.3567 22.2457C19.4192 22.1832 19.4713 22.1311 19.5129 22.0895C19.6796 21.9645 19.7942 21.8707 19.8567 21.8082C19.8775 21.6832 19.9088 21.5582 19.9504 21.4332C19.9921 21.2874 20.0025 21.1311 19.9817 20.9645C19.8567 20.7561 19.7942 20.6416 19.7942 20.6207C19.815 20.5999 19.815 20.5686 19.7942 20.527C19.7109 20.3811 19.6692 20.2666 19.6692 20.1832C19.6692 20.0791 19.6588 19.9749 19.6379 19.8707C19.5754 19.6207 19.5442 19.4749 19.5442 19.4332C19.5442 19.3707 19.5338 19.3186 19.5129 19.277C19.4713 19.1728 19.4192 19.0686 19.3567 18.9645C19.315 18.8395 19.2734 18.7249 19.2317 18.6207C19.1692 18.3707 19.1171 18.2041 19.0754 18.1207C19.0546 18.0166 19.0234 17.9124 18.9817 17.8082C18.8359 17.6624 18.69 17.5791 18.5442 17.5582C18.4192 17.5374 18.2838 17.5061 18.1379 17.4645C17.8879 17.402 17.7109 17.3707 17.6067 17.3707C17.5025 17.3707 17.3879 17.3707 17.2629 17.3707C17.1171 17.3499 16.9713 17.3291 16.8254 17.3082C16.7004 17.2666 16.565 17.2457 16.4192 17.2457C16.3775 17.2457 16.315 17.2561 16.2317 17.277C16.1484 17.277 16.065 17.277 15.9817 17.277C15.6275 17.2978 15.2942 17.3186 14.9817 17.3395C14.69 17.3395 14.3359 17.3395 13.9192 17.3395H13.5754C13.4504 17.3186 13.315 17.3186 13.1692 17.3395C12.94 17.3603 12.7942 17.3603 12.7317 17.3395C12.6692 17.3186 12.6067 17.2978 12.5442 17.277C12.19 17.2353 11.8463 17.2353 11.5129 17.277L11.1379 17.3707C10.9713 17.3916 10.8046 17.402 10.6379 17.402C10.4921 17.402 10.3463 17.402 10.2004 17.402C10.0338 17.402 9.88794 17.3916 9.76294 17.3707C9.63794 17.3499 9.50252 17.3499 9.35669 17.3707C9.19002 17.3916 9.02336 17.4228 8.85669 17.4645C8.69002 17.4853 8.54419 17.5061 8.41919 17.527C8.37752 17.7145 8.31502 17.9228 8.23169 18.152C8.16919 18.3603 8.12752 18.5895 8.10669 18.8395C8.10669 18.902 8.10669 18.9645 8.10669 19.027C8.12752 19.0895 8.13794 19.1624 8.13794 19.2457C8.13794 19.3499 8.11711 19.4436 8.07544 19.527C8.05461 19.5895 8.06502 19.6728 8.10669 19.777C8.12752 19.9645 8.17961 20.152 8.26294 20.3395C8.20044 20.6103 8.16919 20.7978 8.16919 20.902C8.19002 21.0061 8.20044 21.1103 8.20044 21.2145C8.17961 21.3811 8.15877 21.5582 8.13794 21.7457C8.13794 21.9124 8.17961 22.0686 8.26294 22.2145C8.30461 22.2978 8.36711 22.402 8.45044 22.527C8.53377 22.6311 8.62752 22.7249 8.73169 22.8082C8.83586 22.8916 8.97127 22.9645 9.13794 23.027C9.30461 23.0895 9.45044 23.1624 9.57544 23.2457C9.72127 23.3707 9.81502 23.4436 9.85669 23.4645C9.91919 23.4645 9.98169 23.4853 10.0442 23.527C10.19 23.5895 10.3567 23.6728 10.5442 23.777C10.7317 23.8811 10.8984 23.9853 11.0442 24.0895C11.1067 24.1311 11.1796 24.1624 11.2629 24.1832C11.3463 24.1832 11.3775 24.2353 11.3567 24.3395C11.1484 24.4645 11.0025 24.5166 10.9192 24.4957C10.8567 24.4749 10.7838 24.4645 10.7004 24.4645C10.5963 24.4853 10.4921 24.4957 10.3879 24.4957C10.3046 24.4957 10.2109 24.5166 10.1067 24.5582C10.0234 24.5582 9.94002 24.5686 9.85669 24.5895C9.79419 24.6311 9.71086 24.652 9.60669 24.652C9.10669 24.6311 8.66919 24.6311 8.29419 24.652C7.91919 24.6936 7.55461 24.7249 7.20044 24.7457C6.99211 24.7457 6.78377 24.7353 6.57544 24.7145C6.36711 24.6936 6.15877 24.6728 5.95044 24.652C5.72127 24.6311 5.50252 24.6311 5.29419 24.652C5.08586 24.6936 4.87752 24.7041 4.66919 24.6832C4.58586 24.6832 4.50252 24.6728 4.41919 24.652C4.35669 24.6311 4.27336 24.6207 4.16919 24.6207C4.08586 24.6207 4.00252 24.6311 3.91919 24.652C3.85669 24.6728 3.78377 24.6832 3.70044 24.6832C3.47127 24.6832 3.35669 24.6728 3.35669 24.652C3.35669 24.652 3.34627 24.652 3.32544 24.652C3.22127 24.6728 3.11711 24.6936 3.01294 24.7145C2.92961 24.7353 2.83586 24.7457 2.73169 24.7457C2.56502 24.7457 2.40877 24.7249 2.26294 24.6832C2.13794 24.6624 2.01294 24.652 1.88794 24.652C1.78377 24.652 1.67961 24.652 1.57544 24.652C1.47127 24.6728 1.36711 24.6832 1.26294 24.6832C1.20044 24.7041 1.11711 24.7249 1.01294 24.7457C0.887939 24.7666 0.773356 24.777 0.669189 24.777C0.419189 24.5895 0.346273 24.4853 0.450439 24.4645C0.533773 24.4645 0.596273 24.4436 0.637939 24.402C0.887939 24.2353 1.02336 24.1416 1.04419 24.1207C1.27336 23.9749 1.39836 23.8916 1.41919 23.8707C1.60669 23.6832 1.78377 23.5582 1.95044 23.4957C2.09627 23.4332 2.22127 23.3811 2.32544 23.3395C2.55461 23.2145 2.70044 23.1416 2.76294 23.1207C2.82544 23.0791 2.89836 23.0374 2.98169 22.9957C3.04419 22.9541 3.10669 22.9228 3.16919 22.902C3.25252 22.8811 3.32544 22.8499 3.38794 22.8082C3.51294 22.7249 3.61711 22.6311 3.70044 22.527C3.78377 22.4228 3.89836 22.3291 4.04419 22.2457C4.08586 22.0791 4.14836 21.9436 4.23169 21.8395C4.31502 21.7353 4.39836 21.6311 4.48169 21.527C4.58586 21.3603 4.62752 21.277 4.60669 21.277C4.60669 21.2561 4.61711 21.2353 4.63794 21.2145C4.67961 21.1728 4.72127 21.0999 4.76294 20.9957C4.82544 20.8916 4.84627 20.7874 4.82544 20.6832C5.01294 20.4124 5.14836 20.2041 5.23169 20.0582C5.31502 19.8916 5.37752 19.7249 5.41919 19.5582C5.46086 19.3082 5.49211 19.1728 5.51294 19.152C5.53377 19.1311 5.55461 19.0999 5.57544 19.0582C5.65877 18.8499 5.73169 18.6207 5.79419 18.3707C5.85669 18.0999 5.94002 17.8499 6.04419 17.6207C6.08586 17.5166 6.11711 17.4124 6.13794 17.3082C6.17961 17.2041 6.22127 17.0686 6.26294 16.902C6.32544 16.652 6.37752 16.5061 6.41919 16.4645C6.46086 16.402 6.49211 16.3291 6.51294 16.2457C6.55461 16.1624 6.56502 16.0895 6.54419 16.027C6.52336 15.9436 6.53377 15.8603 6.57544 15.777L6.79419 15.402C6.83586 15.3395 6.86711 15.2874 6.88794 15.2457C6.92961 15.1832 6.97127 15.1207 7.01294 15.0582C7.05461 14.9541 7.08586 14.8603 7.10669 14.777C7.12752 14.6936 7.15877 14.5999 7.20044 14.4957C7.34627 14.2457 7.42961 14.0791 7.45044 13.9957C7.47127 13.9124 7.50252 13.8186 7.54419 13.7145C7.58586 13.6103 7.62752 13.4957 7.66919 13.3707C7.71086 13.2457 7.72127 13.0999 7.70044 12.9332C7.80461 12.8291 7.87752 12.6832 7.91919 12.4957C7.98169 12.3082 8.05461 12.1311 8.13794 11.9645C8.17961 11.902 8.21086 11.8603 8.23169 11.8395C8.27336 11.7978 8.29419 11.7249 8.29419 11.6207C8.31502 11.5166 8.31502 11.4228 8.29419 11.3395C8.27336 11.2561 8.24211 11.1624 8.20044 11.0582C8.24211 10.9541 8.27336 10.8603 8.29419 10.777C8.33586 10.6936 8.36711 10.5999 8.38794 10.4957C8.47127 10.3499 8.52336 10.2457 8.54419 10.1832C8.58586 10.1207 8.62752 10.0582 8.66919 9.99573C8.73169 9.84989 8.81502 9.68323 8.91919 9.49573C8.96086 9.41239 8.99211 9.32906 9.01294 9.24573C9.05461 9.14156 9.09627 9.03739 9.13794 8.93323C9.26294 8.72489 9.32544 8.59989 9.32544 8.55823C9.32544 8.49573 9.33586 8.44364 9.35669 8.40198C9.44002 8.23531 9.52336 8.06864 9.60669 7.90198C9.69002 7.73531 9.77336 7.56864 9.85669 7.40198C9.89836 7.29781 9.92961 7.20406 9.95044 7.12073C9.97127 7.03739 10.0025 6.95406 10.0442 6.87073C10.0859 6.76656 10.1275 6.68323 10.1692 6.62073C10.2109 6.53739 10.2421 6.44364 10.2629 6.33948C10.3046 6.25614 10.315 6.18323 10.2942 6.12073C10.2942 6.03739 10.315 5.95406 10.3567 5.87073C10.3567 5.82906 10.3671 5.77698 10.3879 5.71448C10.4088 5.65198 10.4296 5.58948 10.4504 5.52698C10.6796 5.11031 10.8359 4.81864 10.9192 4.65198C11.0234 4.46448 11.1379 4.24573 11.2629 3.99573C11.3046 3.87073 11.3463 3.74573 11.3879 3.62073C11.4504 3.47489 11.4713 3.36031 11.4504 3.27698C11.4088 3.17281 11.315 3.11031 11.1692 3.08948C11.0442 3.04781 10.94 2.99573 10.8567 2.93323C10.6275 2.97489 10.3984 2.97489 10.1692 2.93323C9.96086 2.87073 9.75252 2.80823 9.54419 2.74573C9.31502 2.68323 9.04419 2.65198 8.73169 2.65198C8.41919 2.65198 8.08586 2.64156 7.73169 2.62073C7.56502 2.62073 7.38794 2.62073 7.20044 2.62073C7.01294 2.59989 6.83586 2.59989 6.66919 2.62073C6.46086 2.66239 6.26294 2.72489 6.07544 2.80823C5.88794 2.87073 5.71086 2.92281 5.54419 2.96448C5.19002 3.06864 4.83586 3.19364 4.48169 3.33948C4.27336 3.48531 4.16919 3.56864 4.16919 3.58948C4.16919 3.61031 4.14836 3.63114 4.10669 3.65198C3.91919 3.81864 3.80461 3.94364 3.76294 4.02698C3.72127 4.08948 3.66919 4.14156 3.60669 4.18323C3.52336 4.41239 3.48169 4.62073 3.48169 4.80823C3.48169 4.99573 3.49211 5.22489 3.51294 5.49573C3.51294 5.57906 3.50252 5.66239 3.48169 5.74573C3.48169 5.82906 3.49211 5.91239 3.51294 5.99573C3.51294 6.07906 3.54419 6.19364 3.60669 6.33948C3.66919 6.48531 3.72127 6.61031 3.76294 6.71448C3.80461 6.77698 3.89836 6.86031 4.04419 6.96448C4.12752 7.15198 4.20044 7.27698 4.26294 7.33948C4.32544 7.40198 4.38794 7.47489 4.45044 7.55823C4.55461 7.66239 4.61711 7.74573 4.63794 7.80823C4.67961 7.87073 4.76294 7.94364 4.88794 8.02698C5.17961 8.11031 5.35669 8.14156 5.41919 8.12073C5.48169 8.09989 5.56502 8.06864 5.66919 8.02698C5.83586 7.98531 5.97127 7.94364 6.07544 7.90198C6.17961 7.86031 6.30461 7.77698 6.45044 7.65198C6.49211 7.61031 6.54419 7.56864 6.60669 7.52698C6.69002 7.48531 6.75252 7.44364 6.79419 7.40198C6.83586 7.36031 6.85669 7.30823 6.85669 7.24573C6.87752 7.18323 6.90877 7.13114 6.95044 7.08948C7.05461 6.75614 7.03377 6.51656 6.88794 6.37073C6.76294 6.22489 6.63794 6.09989 6.51294 5.99573C6.28377 5.84989 6.12752 5.79781 6.04419 5.83948C5.98169 5.86031 5.91919 5.89156 5.85669 5.93323C5.77336 5.95406 5.70044 5.98531 5.63794 6.02698C5.59627 6.04781 5.55461 6.07906 5.51294 6.12073L5.10669 6.30823C4.91919 6.26656 4.78377 6.26656 4.70044 6.30823C4.72127 6.12073 4.78377 5.91239 4.88794 5.68323C5.03377 5.49573 5.11711 5.40198 5.13794 5.40198C5.30461 5.27698 5.41919 5.20406 5.48169 5.18323C5.56502 5.16239 5.63794 5.13114 5.70044 5.08948C5.76294 5.04781 5.81502 5.02698 5.85669 5.02698C5.89836 5.00614 5.97127 4.97489 6.07544 4.93323C6.15877 4.91239 6.23169 4.89156 6.29419 4.87073C6.35669 4.84989 6.42961 4.84989 6.51294 4.87073C6.74211 4.89156 6.92961 4.99573 7.07544 5.18323C7.24211 5.34989 7.40877 5.48531 7.57544 5.58948C7.65877 5.75614 7.76294 5.91239 7.88794 6.05823C8.01294 6.20406 8.07544 6.38114 8.07544 6.58948C8.01294 6.94364 7.96086 7.15198 7.91919 7.21448C7.87752 7.27698 7.81502 7.33948 7.73169 7.40198C7.66919 7.44364 7.58586 7.51656 7.48169 7.62073C7.39836 7.68323 7.31502 7.75614 7.23169 7.83948C7.16919 7.92281 7.09627 7.99573 7.01294 8.05823C6.78377 8.24573 6.67961 8.33948 6.70044 8.33948C6.51294 8.44364 6.39836 8.51656 6.35669 8.55823C6.31502 8.57906 6.27336 8.61031 6.23169 8.65198C6.04419 8.79781 5.91919 8.87073 5.85669 8.87073C5.81502 8.87073 5.77336 8.88114 5.73169 8.90198C5.62752 8.98531 5.54419 9.02698 5.48169 9.02698C5.41919 9.02698 5.33586 9.03739 5.23169 9.05823C5.14836 9.07906 5.08586 9.09989 5.04419 9.12073C5.00252 9.14156 4.92961 9.13114 4.82544 9.08948C4.67961 9.06864 4.55461 9.01656 4.45044 8.93323C4.34627 8.84989 4.24211 8.78739 4.13794 8.74573C4.03377 8.64156 3.92961 8.56864 3.82544 8.52698C3.74211 8.48531 3.66919 8.43323 3.60669 8.37073C3.48169 8.22489 3.34627 8.07906 3.20044 7.93323C3.07544 7.78739 2.96086 7.63114 2.85669 7.46448C2.79419 7.31864 2.72127 7.17281 2.63794 7.02698C2.57544 6.88114 2.52336 6.73531 2.48169 6.58948C2.44002 6.42281 2.40877 6.24573 2.38794 6.05823C2.36711 5.84989 2.34627 5.63114 2.32544 5.40198C2.30461 5.17281 2.28377 4.97489 2.26294 4.80823C2.26294 4.62073 2.28377 4.43323 2.32544 4.24573C2.34627 4.16239 2.36711 4.07906 2.38794 3.99573C2.42961 3.91239 2.46086 3.81864 2.48169 3.71448C2.50252 3.63114 2.50252 3.54781 2.48169 3.46448C2.48169 3.38114 2.49211 3.30823 2.51294 3.24573C2.57544 3.14156 2.66919 3.03739 2.79419 2.93323C2.94002 2.80823 3.06502 2.69364 3.16919 2.58948C3.21086 2.54781 3.24211 2.50614 3.26294 2.46448C3.28377 2.40198 3.32544 2.34989 3.38794 2.30823C3.53377 2.18323 3.65877 2.11031 3.76294 2.08948C3.88794 2.04781 4.00252 2.00614 4.10669 1.96448C4.21086 1.92281 4.29419 1.88114 4.35669 1.83948C4.44002 1.77698 4.53377 1.72489 4.63794 1.68323C4.95044 1.64156 5.17961 1.59989 5.32544 1.55823C5.49211 1.51656 5.63794 1.48531 5.76294 1.46448C5.86711 1.44364 5.97127 1.44364 6.07544 1.46448C6.20044 1.46448 6.31502 1.46448 6.41919 1.46448C6.48169 1.46448 6.54419 1.45406 6.60669 1.43323C6.69002 1.41239 6.77336 1.39156 6.85669 1.37073C7.16919 1.34989 7.50252 1.34989 7.85669 1.37073C8.21086 1.37073 8.52336 1.37073 8.79419 1.37073C8.96086 1.37073 9.11711 1.37073 9.26294 1.37073C9.42961 1.34989 9.59627 1.33948 9.76294 1.33948C9.95044 1.33948 10.1379 1.36031 10.3254 1.40198C10.5129 1.42281 10.7317 1.43323 10.9817 1.43323C11.065 1.41239 11.1379 1.41239 11.2004 1.43323C11.2629 1.43323 11.3254 1.43323 11.3879 1.43323C11.5546 1.43323 11.7213 1.44364 11.8879 1.46448C12.0754 1.46448 12.2525 1.46448 12.4192 1.46448C12.69 1.46448 12.9817 1.46448 13.2942 1.46448C13.6275 1.44364 13.94 1.45406 14.2317 1.49573C14.2942 1.51656 14.3775 1.52698 14.4817 1.52698C14.6067 1.50614 14.7109 1.49573 14.7942 1.49573H15.4192C15.69 1.47489 15.8671 1.45406 15.9504 1.43323C16.0338 1.41239 16.1171 1.39156 16.2004 1.37073C16.3046 1.34989 16.4088 1.34989 16.5129 1.37073C16.6171 1.37073 16.7213 1.36031 16.8254 1.33948C17.0754 1.29781 17.315 1.25614 17.5442 1.21448C17.7734 1.15198 18.0025 1.07906 18.2317 0.995728C18.315 0.974894 18.3984 0.964478 18.4817 0.964478C18.565 0.943644 18.6588 0.922811 18.7629 0.901978C18.8879 0.881144 19.0442 0.881144 19.2317 0.901978C19.2942 0.818644 19.3879 0.787394 19.5129 0.808228C19.6379 0.829061 19.7421 0.849894 19.8254 0.870728ZM15.7942 8.68323L15.5129 8.02698C15.4504 7.86031 15.3879 7.69364 15.3254 7.52698C15.2629 7.36031 15.2004 7.19364 15.1379 7.02698C15.1171 6.96448 15.0963 6.90198 15.0754 6.83948C15.0546 6.77698 15.0338 6.72489 15.0129 6.68323C14.9713 6.53739 14.94 6.40198 14.9192 6.27698C14.8984 6.15198 14.8671 6.03739 14.8254 5.93323C14.8046 5.84989 14.7525 5.74573 14.6692 5.62073C14.5859 5.34989 14.5025 5.13114 14.4192 4.96448C14.315 4.69364 14.2629 4.55823 14.2629 4.55823C14.1171 4.37073 13.9713 4.25614 13.8254 4.21448C13.6379 4.29781 13.5234 4.36031 13.4817 4.40198C13.4609 4.44364 13.4504 4.47489 13.4504 4.49573C13.4088 4.53739 13.3567 4.58948 13.2942 4.65198C13.2525 4.69364 13.2109 4.73531 13.1692 4.77698C13.1275 4.83948 13.0963 4.91239 13.0754 4.99573C13.0754 5.05823 13.0546 5.14156 13.0129 5.24573C12.9296 5.30823 12.8463 5.39156 12.7629 5.49573C12.6796 5.59989 12.6171 5.69364 12.5754 5.77698L12.2629 6.12073C12.1171 6.51656 12.0338 6.74573 12.0129 6.80823C11.8671 7.07906 11.7734 7.29781 11.7317 7.46448C11.69 7.61031 11.6379 7.75614 11.5754 7.90198C11.5546 8.06864 11.5234 8.16239 11.4817 8.18323C11.4609 8.20406 11.4504 8.22489 11.4504 8.24573C11.4088 8.30823 11.3775 8.38114 11.3567 8.46448C11.3567 8.52698 11.3463 8.58948 11.3254 8.65198C11.3046 8.71448 11.2942 8.78739 11.2942 8.87073C11.2942 8.93323 11.2838 8.99573 11.2629 9.05823C11.1171 9.28739 11.0234 9.48531 10.9817 9.65198C10.9609 9.79781 10.9192 9.91239 10.8567 9.99573C10.815 10.0582 10.7734 10.1311 10.7317 10.2145C10.7109 10.2978 10.69 10.3603 10.6692 10.402C10.5025 10.8811 10.3567 11.3291 10.2317 11.7457C10.1067 12.1416 9.97127 12.5061 9.82544 12.8395C9.78377 12.9436 9.73169 13.0478 9.66919 13.152C9.60669 13.2561 9.55461 13.3603 9.51294 13.4645C9.47127 13.5686 9.45044 13.6624 9.45044 13.7457C9.45044 13.8291 9.42961 13.9124 9.38794 13.9957C9.36711 14.0791 9.33586 14.1624 9.29419 14.2457C9.25252 14.3082 9.21086 14.3916 9.16919 14.4957C9.10669 14.6624 9.06502 14.8499 9.04419 15.0582C9.02336 15.2457 9.00252 15.4332 8.98169 15.6207C9.21086 15.7041 9.45044 15.7353 9.70044 15.7145C9.95044 15.6728 10.2004 15.6728 10.4504 15.7145C10.6171 15.7353 10.7734 15.777 10.9192 15.8395C11.065 15.8811 11.2109 15.9124 11.3567 15.9332C11.5025 15.9541 11.6588 15.9541 11.8254 15.9332C12.0129 15.9124 12.2004 15.9124 12.3879 15.9332C12.5338 15.9332 12.6796 15.9436 12.8254 15.9645C12.9713 15.9853 13.1171 15.9957 13.2629 15.9957C13.4088 15.9957 13.5338 15.9853 13.6379 15.9645C13.7629 15.9436 13.8984 15.9332 14.0442 15.9332C14.1484 15.9332 14.2525 15.9436 14.3567 15.9645C14.4609 15.9645 14.565 15.9645 14.6692 15.9645C14.9192 15.9645 15.1692 15.9645 15.4192 15.9645C15.6692 15.9436 15.9296 15.9228 16.2004 15.902C16.4921 15.8603 16.7942 15.8186 17.1067 15.777C17.44 15.7145 17.69 15.6311 17.8567 15.527C17.8984 15.0895 17.8567 14.6936 17.7317 14.3395C17.6067 13.9853 17.4921 13.6207 17.3879 13.2457C17.3879 13.2041 17.3879 13.152 17.3879 13.0895C17.3879 13.0061 17.3775 12.9436 17.3567 12.902C17.2317 12.652 17.1588 12.4749 17.1379 12.3707C17.1379 12.2666 17.1275 12.1624 17.1067 12.0582C17.0859 12.0166 17.0546 11.9436 17.0129 11.8395C16.9921 11.7145 16.9817 11.6311 16.9817 11.5895C17.0025 11.4228 16.9921 11.2978 16.9504 11.2145C16.9296 11.1311 16.9088 11.0374 16.8879 10.9332C16.8463 10.7666 16.815 10.5999 16.7942 10.4332C16.7942 10.2666 16.7629 10.1311 16.7004 10.027L16.4192 9.74573C16.3567 9.66239 16.2942 9.58948 16.2317 9.52698C16.19 9.44364 16.1379 9.37073 16.0754 9.30823C16.0754 9.18323 16.0338 9.07906 15.9504 8.99573C15.8879 8.89156 15.8359 8.78739 15.7942 8.68323ZM35.4817 13.5895C35.3359 13.4853 35.3046 13.402 35.3879 13.3395C35.4921 13.2561 35.565 13.152 35.6067 13.027C35.6692 12.777 35.6379 12.5478 35.5129 12.3395C35.3254 12.3395 35.1588 12.3916 35.0129 12.4957C34.8879 12.5791 34.7734 12.6832 34.6692 12.8082C34.4609 13.1207 34.315 13.3811 34.2317 13.5895C34.1275 14.0061 34.0963 14.2457 34.1379 14.3082C34.2004 14.3707 34.315 14.4541 34.4817 14.5582C34.7734 14.7041 35.0546 14.8186 35.3254 14.902C35.5963 14.9853 35.815 14.9957 35.9817 14.9332C36.065 14.9124 36.1588 14.8395 36.2629 14.7145C36.3671 14.5895 36.4504 14.4749 36.5129 14.3707C36.5754 14.2874 36.6484 14.1936 36.7317 14.0895C36.815 13.9645 36.8879 13.8499 36.9504 13.7457C36.9921 13.6416 37.0234 13.5791 37.0442 13.5582C37.065 13.5166 37.0859 13.4749 37.1067 13.4332C37.1692 13.0791 37.2317 12.8186 37.2942 12.652C37.3567 12.4853 37.3671 12.2874 37.3254 12.0582C37.3254 11.9541 37.3046 11.8186 37.2629 11.652C37.2421 11.5895 37.2317 11.527 37.2317 11.4645C37.2317 11.402 37.2213 11.3499 37.2004 11.3082C37.0546 11.1207 36.9713 11.0166 36.9504 10.9957C36.9504 10.9541 36.94 10.9228 36.9192 10.902C36.7942 10.7353 36.7109 10.6103 36.6692 10.527C36.6484 10.4228 36.6171 10.3395 36.5754 10.277C36.5129 10.1936 36.4609 10.1207 36.4192 10.0582C36.3984 9.97489 36.3671 9.91239 36.3254 9.87073C36.2421 9.80823 36.1171 9.74573 35.9504 9.68323C35.7838 9.62073 35.6171 9.61031 35.4504 9.65198C35.1588 9.71448 34.9713 9.76656 34.8879 9.80823C34.8046 9.84989 34.7109 9.89156 34.6067 9.93323C34.5234 9.97489 34.4296 9.99573 34.3254 9.99573C34.2213 9.99573 34.1171 10.0166 34.0129 10.0582C33.9088 10.0999 33.815 10.152 33.7317 10.2145C33.6484 10.277 33.5546 10.3291 33.4504 10.3707C33.3254 10.4541 33.2109 10.5166 33.1067 10.5582C33.0025 10.5999 32.9192 10.6416 32.8567 10.6832C32.7109 10.7666 32.5754 10.8811 32.4504 11.027C32.3254 11.1728 32.19 11.3291 32.0442 11.4957C31.8775 11.7041 31.7838 11.8291 31.7629 11.8707C31.7629 11.9124 31.7421 11.9541 31.7004 11.9957C31.6588 12.0374 31.6171 12.0895 31.5754 12.152C31.5546 12.2145 31.5234 12.2666 31.4817 12.3082C31.3984 12.3916 31.3463 12.4645 31.3254 12.527C31.3046 12.5686 31.2838 12.6103 31.2629 12.652C31.2213 12.7353 31.1692 12.8395 31.1067 12.9645C31.065 13.0895 31.0129 13.2041 30.9504 13.3082C30.8254 13.5582 30.7317 13.777 30.6692 13.9645C30.6275 14.1311 30.5754 14.3186 30.5129 14.527C30.4713 14.652 30.4192 14.7666 30.3567 14.8707C30.2942 14.9749 30.2525 15.0791 30.2317 15.1832C30.19 15.4124 30.1796 15.652 30.2004 15.902C30.2421 16.152 30.2629 16.3916 30.2629 16.6207C30.2629 16.8291 30.2525 16.9436 30.2317 16.9645C30.2317 16.9853 30.2317 17.0166 30.2317 17.0582C30.2734 17.5791 30.2734 18.1832 30.2317 18.8707C30.2109 19.5374 30.2213 20.1103 30.2629 20.5895C30.2838 20.6936 30.2942 20.8082 30.2942 20.9332C30.315 21.0374 30.3359 21.152 30.3567 21.277C30.3567 21.402 30.3567 21.527 30.3567 21.652C30.3567 21.777 30.3775 21.8707 30.4192 21.9332C30.4817 22.0999 30.6275 22.277 30.8567 22.4645C31.0859 22.6311 31.2838 22.7666 31.4504 22.8707L31.7942 23.1207C31.9609 23.2041 32.065 23.2666 32.1067 23.3082C32.1692 23.3291 32.2317 23.3603 32.2942 23.402C32.3984 23.4645 32.5129 23.527 32.6379 23.5895C32.7629 23.652 32.8463 23.7666 32.8879 23.9332C32.6379 24.0374 32.3775 24.1103 32.1067 24.152C31.8567 24.1936 31.565 24.2353 31.2317 24.277C31.065 24.2978 30.8984 24.3186 30.7317 24.3395C30.5859 24.3603 30.4192 24.3811 30.2317 24.402C30.1692 24.402 30.0963 24.4124 30.0129 24.4332C29.9296 24.4332 29.8567 24.4332 29.7942 24.4332C29.69 24.4332 29.5963 24.4228 29.5129 24.402C29.4296 24.3811 29.3463 24.3603 29.2629 24.3395C29.1171 24.3395 28.9713 24.3499 28.8254 24.3707C28.6796 24.3916 28.5442 24.3811 28.4192 24.3395C28.3567 24.3395 28.2942 24.3291 28.2317 24.3082C28.1692 24.2874 28.1067 24.2666 28.0442 24.2457C27.94 24.2041 27.8359 24.1832 27.7317 24.1832C27.6484 24.1832 27.565 24.1624 27.4817 24.1207C27.315 24.0791 27.1275 24.0374 26.9192 23.9957C26.7109 23.9541 26.5234 23.9124 26.3567 23.8707C26.2734 23.9332 26.2004 23.9332 26.1379 23.8707C26.0963 23.7874 26.0546 23.7249 26.0129 23.6832C26.2004 23.5582 26.3254 23.4853 26.3879 23.4645C26.4713 23.4436 26.5338 23.4124 26.5754 23.3707C26.7838 23.2249 26.9088 23.1311 26.9504 23.0895C27.0129 23.027 27.0754 22.9645 27.1379 22.902C27.3254 22.7978 27.44 22.7145 27.4817 22.652C27.5442 22.5686 27.6171 22.4853 27.7004 22.402C27.8463 22.2978 27.9296 22.2353 27.9504 22.2145C27.9921 22.1936 28.0338 22.1624 28.0754 22.1207C28.2421 21.9957 28.3463 21.8916 28.3879 21.8082C28.4296 21.7249 28.4817 21.652 28.5442 21.5895C28.5025 21.5061 28.4921 21.4228 28.5129 21.3395C28.5546 21.2353 28.5754 21.1311 28.5754 21.027C28.5754 20.9853 28.565 20.9332 28.5442 20.8707C28.5234 20.8082 28.5234 20.7457 28.5442 20.6832C28.5442 20.6207 28.5546 20.5582 28.5754 20.4957C28.6171 20.4124 28.6484 20.3291 28.6692 20.2457C28.6692 20.1624 28.6588 20.0895 28.6379 20.027C28.6171 19.9645 28.6067 19.8811 28.6067 19.777C28.6067 19.652 28.6067 19.5166 28.6067 19.3707C28.6275 19.2249 28.6275 19.0686 28.6067 18.902C28.6067 18.8395 28.5963 18.777 28.5754 18.7145C28.5754 18.6311 28.5754 18.5582 28.5754 18.4957C28.5754 18.3916 28.5859 18.2978 28.6067 18.2145C28.6484 18.1103 28.6796 18.0061 28.7004 17.902C28.7213 17.7145 28.7317 17.527 28.7317 17.3395C28.7317 17.1311 28.7525 16.9749 28.7942 16.8707C28.815 16.8291 28.815 16.777 28.7942 16.7145C28.7942 16.6311 28.7942 16.5478 28.7942 16.4645C28.815 16.1728 28.8046 15.9541 28.7629 15.8082C28.7421 15.6624 28.7213 15.527 28.7004 15.402C28.6796 15.277 28.6588 15.152 28.6379 15.027C28.6379 14.8811 28.6275 14.7353 28.6067 14.5895C28.6067 14.4853 28.5963 14.3916 28.5754 14.3082C28.5546 14.2041 28.5338 14.0999 28.5129 13.9957C28.4504 13.7666 28.3879 13.5061 28.3254 13.2145C28.2838 12.9228 28.2421 12.6416 28.2004 12.3707C28.1796 12.3082 28.1484 12.1936 28.1067 12.027C28.065 11.8186 28.0234 11.6416 27.9817 11.4957C27.9609 11.3291 27.9192 11.152 27.8567 10.9645C27.815 10.8603 27.7734 10.7561 27.7317 10.652C27.7109 10.527 27.6796 10.4228 27.6379 10.3395C27.5963 10.2978 27.5442 10.2561 27.4817 10.2145C27.44 10.1728 27.3775 10.1207 27.2942 10.0582C27.2525 10.0166 27.2004 9.97489 27.1379 9.93323C27.0963 9.89156 27.0546 9.84989 27.0129 9.80823C26.7421 9.70406 26.5442 9.61031 26.4192 9.52698C26.315 9.48531 26.2109 9.45406 26.1067 9.43323C26.0025 9.39156 25.8984 9.34989 25.7942 9.30823C25.4817 9.12073 25.3046 9.00614 25.2629 8.96448C25.0546 8.79781 24.9296 8.71448 24.8879 8.71448C24.8254 8.71448 24.7942 8.67281 24.7942 8.58948C24.8359 8.50614 24.9088 8.46448 25.0129 8.46448C25.1171 8.46448 25.2109 8.47489 25.2942 8.49573C25.3775 8.55823 25.4609 8.58948 25.5442 8.58948C25.6275 8.58948 25.69 8.58948 25.7317 8.58948C25.815 8.61031 25.8879 8.63114 25.9504 8.65198C26.0338 8.67281 26.1275 8.68323 26.2317 8.68323C26.315 8.68323 26.3984 8.67281 26.4817 8.65198C26.565 8.63114 26.6588 8.63114 26.7629 8.65198C26.9713 8.65198 27.1796 8.66239 27.3879 8.68323C27.5963 8.70406 27.8046 8.71448 28.0129 8.71448C28.0754 8.71448 28.1379 8.71448 28.2004 8.71448C28.2838 8.69364 28.3567 8.68323 28.4192 8.68323C28.5025 8.68323 28.5859 8.69364 28.6692 8.71448C28.7734 8.73531 28.8671 8.74573 28.9504 8.74573C29.0338 8.74573 29.1067 8.73531 29.1692 8.71448C29.2525 8.69364 29.3359 8.68323 29.4192 8.68323C29.4609 8.68323 29.5129 8.69364 29.5754 8.71448C29.6379 8.71448 29.7004 8.71448 29.7629 8.71448C29.8671 8.71448 30.0025 8.71448 30.1692 8.71448C30.3359 8.71448 30.4713 8.75614 30.5754 8.83948C30.5963 9.00614 30.5859 9.15198 30.5442 9.27698C30.5025 9.40198 30.4713 9.53739 30.4504 9.68323C30.4296 9.91239 30.4192 10.1416 30.4192 10.3707C30.44 10.5999 30.4504 10.8186 30.4504 11.027C30.4713 11.1936 30.4713 11.3603 30.4504 11.527C30.4504 11.6728 30.4296 11.8291 30.3879 11.9957C30.3671 12.0582 30.3567 12.1728 30.3567 12.3395C30.3567 12.4853 30.3463 12.6207 30.3254 12.7457C30.4504 12.5791 30.5234 12.4957 30.5442 12.4957C30.565 12.4749 30.5859 12.4436 30.6067 12.402L30.9817 11.6207C31.0234 11.5791 31.0546 11.5374 31.0754 11.4957C31.1171 11.4332 31.1484 11.3707 31.1692 11.3082C31.2734 11.1207 31.3254 10.9853 31.3254 10.902C31.5129 10.6728 31.6275 10.527 31.6692 10.4645C31.7109 10.3811 31.7629 10.2978 31.8254 10.2145C31.8671 10.152 31.9192 10.0791 31.9817 9.99573C32.0442 9.91239 32.1067 9.82906 32.1692 9.74573C32.315 9.57906 32.4192 9.45406 32.4817 9.37073C32.565 9.26656 32.6379 9.17281 32.7004 9.08948C32.8879 8.94364 33.0754 8.83948 33.2629 8.77698C33.3463 8.67281 33.4504 8.58948 33.5754 8.52698C33.7213 8.46448 33.8671 8.40198 34.0129 8.33948C34.2004 8.23531 34.315 8.19364 34.3567 8.21448C34.3984 8.21448 34.4504 8.20406 34.5129 8.18323C34.6379 8.14156 34.7838 8.09989 34.9504 8.05823C35.1171 7.99573 35.3254 7.98531 35.5754 8.02698C35.6796 8.04781 35.7942 8.09989 35.9192 8.18323C36.0442 8.26656 36.1692 8.33948 36.2942 8.40198C36.3567 8.44364 36.4713 8.50614 36.6379 8.58948C36.7213 8.63114 36.7942 8.66239 36.8567 8.68323C36.94 8.68323 37.0025 8.70406 37.0442 8.74573C37.2734 8.95406 37.44 9.09989 37.5442 9.18323C37.6692 9.26656 37.7734 9.34989 37.8567 9.43323C38.0234 9.53739 38.1796 9.64156 38.3254 9.74573C38.4921 9.84989 38.6171 9.95406 38.7004 10.0582C38.7421 10.0999 38.7629 10.152 38.7629 10.2145C38.7838 10.277 38.815 10.3291 38.8567 10.3707C39.0025 10.5791 39.0859 10.777 39.1067 10.9645C39.1484 11.1311 39.1796 11.2978 39.2004 11.4645C39.2421 11.7561 39.2525 12.0166 39.2317 12.2457C39.2317 12.4749 39.2109 12.7041 39.1692 12.9332C39.1067 13.1624 39.0754 13.3082 39.0754 13.3707C39.0963 13.4124 39.0963 13.4541 39.0754 13.4957C39.0546 13.5582 39.0234 13.6207 38.9817 13.6832C38.9609 13.7249 38.94 13.777 38.9192 13.8395C38.8984 13.9228 38.8879 13.9957 38.8879 14.0582C38.8879 14.1207 38.8775 14.1832 38.8567 14.2457C38.815 14.3291 38.7629 14.4124 38.7004 14.4957C38.6379 14.5582 38.5859 14.6311 38.5442 14.7145C38.4817 14.8603 38.4192 14.9541 38.3567 14.9957C38.315 15.0374 38.2942 15.0999 38.2942 15.1832C38.1275 15.2666 37.9921 15.3603 37.8879 15.4645C37.8046 15.5478 37.7004 15.6416 37.5754 15.7457C37.4713 15.8499 37.3775 15.9228 37.2942 15.9645C37.2317 16.0061 37.1796 16.027 37.1379 16.027C37.1171 16.0061 37.0442 16.0061 36.9192 16.027C36.815 16.0478 36.7525 16.0686 36.7317 16.0895C36.7317 16.1103 36.6588 16.1103 36.5129 16.0895C36.4296 16.0686 36.3359 16.0478 36.2317 16.027C36.1275 16.0061 36.0234 15.9853 35.9192 15.9645C35.8567 15.9436 35.7942 15.9436 35.7317 15.9645C35.6692 15.9645 35.6171 15.9541 35.5754 15.9332C35.2838 15.8082 35.0859 15.7457 34.9817 15.7457C34.8775 15.7249 34.7734 15.6936 34.6692 15.652C34.565 15.6311 34.4817 15.6103 34.4192 15.5895C34.3775 15.5478 34.3046 15.5061 34.2004 15.4645C34.0546 15.4228 33.8775 15.3603 33.6692 15.277C33.4817 15.1936 33.3671 15.1103 33.3254 15.027C33.2838 14.9645 33.2629 14.902 33.2629 14.8395C33.2838 14.7561 33.2838 14.6624 33.2629 14.5582C33.2213 14.2249 33.2213 13.9124 33.2629 13.6207C33.2838 13.5374 33.2942 13.4541 33.2942 13.3707C33.2942 13.2666 33.3046 13.1624 33.3254 13.0582C33.3463 12.9957 33.3775 12.9332 33.4192 12.8707C33.4609 12.8082 33.4921 12.7457 33.5129 12.6832C33.5754 12.5166 33.6171 12.4332 33.6379 12.4332C33.6588 12.4124 33.6692 12.3916 33.6692 12.3707C33.7109 12.2457 33.815 12.1207 33.9817 11.9957C34.1484 11.8707 34.2629 11.7978 34.3254 11.777C34.4088 11.7353 34.565 11.6936 34.7942 11.652C35.0442 11.6311 35.2629 11.6311 35.4504 11.652C35.5338 11.6728 35.6067 11.7145 35.6692 11.777C35.7525 11.8395 35.8359 11.8916 35.9192 11.9332C35.9609 11.9749 36.0234 12.0166 36.1067 12.0582C36.19 12.0791 36.2525 12.1311 36.2942 12.2145C36.3359 12.402 36.315 12.5582 36.2317 12.6832C36.1692 12.8082 36.0963 12.9228 36.0129 13.027C35.9713 13.0895 35.9296 13.152 35.8879 13.2145C35.8671 13.277 35.8359 13.3291 35.7942 13.3707C35.7525 13.4124 35.7109 13.4749 35.6692 13.5582C35.6484 13.6207 35.5859 13.6311 35.4817 13.5895ZM44.0754 2.15198C44.0963 2.25614 44.0859 2.38114 44.0442 2.52698C44.0025 2.65198 43.9713 2.77698 43.9504 2.90198C43.9296 2.98531 43.9192 3.06864 43.9192 3.15198C43.9192 3.21448 43.8984 3.28739 43.8567 3.37073C43.8359 3.45406 43.815 3.53739 43.7942 3.62073C43.7942 3.70406 43.7838 3.79781 43.7629 3.90198C43.7421 4.06864 43.7317 4.24573 43.7317 4.43323C43.7525 4.62073 43.7525 4.79781 43.7317 4.96448C43.7109 5.11031 43.69 5.24573 43.6692 5.37073C43.6484 5.49573 43.6171 5.62073 43.5754 5.74573C43.5338 5.97489 43.4921 6.21448 43.4504 6.46448C43.4296 6.71448 43.3984 6.97489 43.3567 7.24573C43.3567 7.39156 43.3463 7.52698 43.3254 7.65198C43.3046 7.77698 43.2838 7.91239 43.2629 8.05823C43.2421 8.28739 43.2317 8.51656 43.2317 8.74573C43.2317 8.95406 43.2004 9.15198 43.1379 9.33948C43.4921 9.36031 43.8463 9.36031 44.2004 9.33948C44.5754 9.31864 44.9713 9.32906 45.3879 9.37073C45.4921 9.39156 45.5754 9.41239 45.6379 9.43323C45.7004 9.43323 45.7734 9.44364 45.8567 9.46448C46.2734 9.50614 46.6692 9.53739 47.0442 9.55823C47.44 9.55823 47.8254 9.58948 48.2004 9.65198C48.1796 9.75614 48.1275 9.82906 48.0442 9.87073C47.9609 9.89156 47.8671 9.92281 47.7629 9.96448C47.5963 10.027 47.4192 10.0686 47.2317 10.0895C47.0442 10.0895 46.8463 10.1103 46.6379 10.152C46.4296 10.1936 46.2317 10.2145 46.0442 10.2145C45.7525 10.2561 45.44 10.2874 45.1067 10.3082C44.7942 10.3291 44.4817 10.3603 44.1692 10.402C44.0025 10.4436 43.8359 10.4853 43.6692 10.527C43.5234 10.5686 43.3359 10.5686 43.1067 10.527C43.0025 10.777 42.9713 11.0582 43.0129 11.3707C43.0546 11.6624 43.0859 11.9749 43.1067 12.3082C43.1275 12.4749 43.1275 12.652 43.1067 12.8395C43.0859 13.0061 43.0963 13.1728 43.1379 13.3395C43.1796 13.5895 43.19 13.7457 43.1692 13.8082C43.1692 13.8707 43.1692 13.9436 43.1692 14.027C43.1484 14.2145 43.1275 14.4228 43.1067 14.652C43.1067 14.8603 43.1067 15.0791 43.1067 15.3082C43.1067 15.6207 43.0963 15.9228 43.0754 16.2145C43.0546 16.4853 43.065 16.7145 43.1067 16.902C43.1067 16.9853 43.1171 17.0686 43.1379 17.152C43.1588 17.2353 43.1796 17.3291 43.2004 17.4332C43.2629 17.8499 43.315 18.2978 43.3567 18.777C43.4192 19.2353 43.4817 19.6936 43.5442 20.152C43.5859 20.4436 43.6275 20.6936 43.6692 20.902C43.7109 21.027 43.7317 21.1728 43.7317 21.3395C43.7317 21.4853 43.7525 21.6207 43.7942 21.7457C43.815 21.8082 43.8359 21.8707 43.8567 21.9332C43.8984 21.9957 43.94 22.0582 43.9817 22.1207C44.0234 22.1832 44.0442 22.2561 44.0442 22.3395C44.065 22.402 44.0859 22.4541 44.1067 22.4957C44.1484 22.5582 44.2004 22.6103 44.2629 22.652C44.3254 22.6728 44.3879 22.7145 44.4504 22.777C44.6171 22.8811 44.7317 22.9749 44.7942 23.0582C44.8567 23.1207 44.9296 23.1728 45.0129 23.2145C45.0754 23.2561 45.1484 23.2874 45.2317 23.3082C45.3359 23.3082 45.4296 23.3291 45.5129 23.3707C45.5963 23.4124 45.6692 23.4541 45.7317 23.4957C45.7942 23.5166 45.8567 23.5374 45.9192 23.5582C45.9609 23.5791 46.0129 23.5895 46.0754 23.5895C46.1379 23.5895 46.2004 23.5999 46.2629 23.6207C46.3671 23.6416 46.4921 23.6624 46.6379 23.6832C46.7838 23.6832 46.94 23.7041 47.1067 23.7457C47.2109 23.7457 47.2734 23.7457 47.2942 23.7457C47.3359 23.7457 47.4088 23.7249 47.5129 23.6832C47.6171 23.6207 47.7109 23.5582 47.7942 23.4957C47.8775 23.4332 47.9817 23.3603 48.1067 23.277C48.1484 23.1311 48.2421 22.9853 48.3879 22.8395C48.3879 22.7353 48.4192 22.6416 48.4817 22.5582C48.5442 22.4749 48.5963 22.3707 48.6379 22.2457C48.6588 22.1624 48.6692 22.0686 48.6692 21.9645C48.69 21.8603 48.7213 21.7561 48.7629 21.652C48.7838 21.5478 48.8046 21.4541 48.8254 21.3707C48.8463 21.2666 48.8671 21.1624 48.8879 21.0582C48.9088 20.8707 48.8984 20.6728 48.8567 20.4645C48.8359 20.2561 48.815 20.0582 48.7942 19.8707C48.7734 19.7457 48.7213 19.6207 48.6379 19.4957C48.5546 19.3499 48.4921 19.2249 48.4504 19.1207C48.3671 19.0166 48.2838 18.9228 48.2004 18.8395C48.1379 18.7353 48.0546 18.6624 47.9504 18.6207C47.8046 18.5582 47.6484 18.5374 47.4817 18.5582C47.315 18.5582 47.1692 18.5895 47.0442 18.652C46.9192 18.7561 46.8463 18.8082 46.8254 18.8082C46.8046 18.8082 46.7734 18.8186 46.7317 18.8395C46.6067 18.9645 46.5129 19.0478 46.4504 19.0895C46.4088 19.1103 46.3775 19.1416 46.3567 19.1832C46.315 19.2457 46.2734 19.3811 46.2317 19.5895C46.19 19.652 46.1484 19.7249 46.1067 19.8082C46.0859 19.8916 46.0754 19.9541 46.0754 19.9957C46.0338 20.1832 46.0129 20.3811 46.0129 20.5895C46.0338 20.777 46.0546 20.9645 46.0754 21.152C46.2004 21.2145 46.3567 21.277 46.5442 21.3395C46.6067 21.3811 46.6692 21.4228 46.7317 21.4645C46.815 21.4853 46.9088 21.4957 47.0129 21.4957C47.0963 21.4957 47.19 21.4749 47.2942 21.4332C47.3984 21.3707 47.4713 21.3082 47.5129 21.2457C47.6171 20.9957 47.6692 20.8395 47.6692 20.777C47.6692 20.6936 47.6379 20.6207 47.5754 20.5582C47.5338 20.4957 47.4921 20.4436 47.4504 20.402C47.3879 20.3603 47.3046 20.3186 47.2004 20.277C47.1171 20.2145 47.065 20.1207 47.0442 19.9957C47.1275 19.8916 47.2942 19.8395 47.5442 19.8395C47.6275 19.8395 47.7317 19.8499 47.8567 19.8707C47.9817 19.8916 48.065 19.9228 48.1067 19.9645C48.2109 20.0478 48.2838 20.1936 48.3254 20.402C48.3671 20.5895 48.3671 20.7666 48.3254 20.9332C48.2629 21.2041 48.1275 21.4124 47.9192 21.5582C47.815 21.6416 47.6796 21.7145 47.5129 21.777C47.3671 21.8186 47.2525 21.8395 47.1692 21.8395C47.1067 21.8395 47.0338 21.8395 46.9504 21.8395C46.8879 21.8186 46.8359 21.8082 46.7942 21.8082C46.69 21.7666 46.5963 21.7353 46.5129 21.7145C46.4296 21.6728 46.3463 21.6311 46.2629 21.5895C46.1796 21.5478 46.1067 21.5166 46.0442 21.4957C45.9817 21.4749 45.8984 21.4436 45.7942 21.402C45.7109 21.1728 45.6796 21.0582 45.7004 21.0582C45.7213 21.0582 45.7317 21.0478 45.7317 21.027C45.6692 20.7978 45.6484 20.6207 45.6692 20.4957C45.69 20.3707 45.7109 20.2561 45.7317 20.152C45.7317 20.0478 45.7109 19.9541 45.6692 19.8707C45.6484 19.7666 45.6484 19.6624 45.6692 19.5582C45.6692 19.3291 45.7004 19.1207 45.7629 18.9332C45.8463 18.7457 45.8775 18.5374 45.8567 18.3082C45.94 18.2874 46.0025 18.2561 46.0442 18.2145C46.1067 18.1728 46.1796 18.1416 46.2629 18.1207C46.3463 18.0999 46.4296 18.0999 46.5129 18.1207C46.6171 18.1416 46.7213 18.152 46.8254 18.152C46.9921 18.1311 47.1484 18.0999 47.2942 18.0582C47.4609 17.9957 47.6275 17.9749 47.7942 17.9957C48.0859 18.0374 48.3254 18.1103 48.5129 18.2145C48.5963 18.2561 48.6796 18.3291 48.7629 18.4332C48.8463 18.5374 48.94 18.6416 49.0442 18.7457C49.2525 18.9124 49.3775 19.0374 49.4192 19.1207C49.4609 19.1832 49.5025 19.2353 49.5442 19.277C49.5859 19.3186 49.6067 19.3811 49.6067 19.4645C49.6067 19.527 49.6275 19.5999 49.6692 19.6832C49.7109 19.8291 49.7421 19.9645 49.7629 20.0895C49.8046 20.2145 49.8254 20.3811 49.8254 20.5895C49.8254 20.7145 49.815 20.8395 49.7942 20.9645C49.7734 21.0895 49.7525 21.2353 49.7317 21.402C49.7109 21.5478 49.7004 21.6832 49.7004 21.8082C49.7213 21.9332 49.7109 22.0686 49.6692 22.2145C49.5859 22.5895 49.5234 22.8291 49.4817 22.9332C49.4609 23.0374 49.4192 23.1728 49.3567 23.3395C49.2525 23.5061 49.1588 23.6728 49.0754 23.8395C48.9921 24.0061 48.9192 24.1624 48.8567 24.3082C48.7525 24.3499 48.6588 24.402 48.5754 24.4645C48.5129 24.5061 48.4296 24.5478 48.3254 24.5895C47.9088 24.7978 47.5025 24.9541 47.1067 25.0582C47.0442 25.0791 46.9817 25.0895 46.9192 25.0895C46.8775 25.0895 46.8254 25.1103 46.7629 25.152C46.7004 25.1728 46.6379 25.1936 46.5754 25.2145C46.5129 25.2353 46.4609 25.2561 46.4192 25.277C46.315 25.2978 46.2213 25.2978 46.1379 25.277C46.0546 25.277 45.9609 25.2874 45.8567 25.3082C45.6275 25.3082 45.4921 25.3186 45.4504 25.3395C45.4088 25.3603 45.3671 25.3707 45.3254 25.3707C45.1171 25.3499 44.9088 25.3291 44.7004 25.3082C44.5129 25.2874 44.3359 25.2561 44.1692 25.2145C44.065 25.1936 43.9817 25.1832 43.9192 25.1832C43.8775 25.1832 43.8046 25.1728 43.7004 25.152C43.6379 25.1103 43.5546 25.0582 43.4504 24.9957C43.3671 24.9332 43.2838 24.8811 43.2004 24.8395C43.0754 24.7145 42.9921 24.6416 42.9504 24.6207C42.9088 24.6207 42.8775 24.6103 42.8567 24.5895C42.7942 24.5061 42.7421 24.4332 42.7004 24.3707C42.6796 24.3082 42.6484 24.2457 42.6067 24.1832C42.4609 24.0166 42.3671 23.8707 42.3254 23.7457C42.2004 23.5791 42.1379 23.4853 42.1379 23.4645C42.1379 23.4228 42.1275 23.3811 42.1067 23.3395C42.0442 23.1103 41.9713 22.9541 41.8879 22.8707C41.8046 22.7874 41.7421 22.7145 41.7004 22.652C41.6379 22.5478 41.565 22.4332 41.4817 22.3082C41.4192 22.1832 41.3879 22.0374 41.3879 21.8707C41.3671 21.7874 41.3671 21.6936 41.3879 21.5895C41.4088 21.4853 41.4192 21.3811 41.4192 21.277C41.44 21.0478 41.4504 20.8499 41.4504 20.6832C41.4713 20.4957 41.4817 20.3186 41.4817 20.152C41.4817 19.6728 41.4713 19.2249 41.4504 18.8082C41.4504 18.3707 41.4713 17.9436 41.5129 17.527C41.5338 17.2561 41.5338 17.0791 41.5129 16.9957C41.4921 16.9124 41.4817 16.8291 41.4817 16.7457C41.4817 16.5999 41.4817 16.4541 41.4817 16.3082C41.5025 16.1624 41.5234 16.0061 41.5442 15.8395C41.565 15.6728 41.5754 15.5061 41.5754 15.3395C41.5754 15.1728 41.5859 15.0166 41.6067 14.8707C41.6067 14.7874 41.6171 14.7145 41.6379 14.652C41.6588 14.5686 41.6692 14.4749 41.6692 14.3707C41.7109 13.9541 41.7213 13.5478 41.7004 13.152C41.7004 12.7561 41.7109 12.3811 41.7317 12.027C41.7317 11.8603 41.7421 11.7041 41.7629 11.5582C41.7838 11.4124 41.8046 11.2561 41.8254 11.0895C41.8463 10.8811 41.8463 10.7249 41.8254 10.6207C41.8046 10.5166 41.815 10.4228 41.8567 10.3395C41.69 10.2353 41.5025 10.1832 41.2942 10.1832C41.1067 10.1832 40.9088 10.1624 40.7004 10.1207C40.6379 10.0999 40.5234 10.0686 40.3567 10.027C40.2942 10.0061 40.2317 9.99573 40.1692 9.99573C40.1275 9.97489 40.0754 9.96448 40.0129 9.96448C39.9713 9.94364 39.9088 9.93323 39.8254 9.93323C39.7629 9.91239 39.7004 9.89156 39.6379 9.87073C39.4296 9.68323 39.3567 9.57906 39.4192 9.55823C39.5025 9.53739 39.5754 9.51656 39.6379 9.49573C39.7004 9.45406 39.7734 9.44364 39.8567 9.46448C39.9609 9.46448 40.0546 9.46448 40.1379 9.46448C40.3046 9.40198 40.4088 9.38114 40.4504 9.40198C40.5129 9.40198 40.565 9.40198 40.6067 9.40198C40.7734 9.38114 40.9609 9.36031 41.1692 9.33948C41.3984 9.31864 41.6275 9.31864 41.8567 9.33948C41.94 9.19364 41.9713 9.05823 41.9504 8.93323C41.9504 8.78739 41.9504 8.63114 41.9504 8.46448C41.9504 8.27698 41.9504 8.09989 41.9504 7.93323C41.9713 7.74573 41.9921 7.54781 42.0129 7.33948V6.93323C42.0129 6.84989 41.9921 6.77698 41.9504 6.71448C41.9296 6.63114 41.9192 6.53739 41.9192 6.43323C41.8775 6.26656 41.8567 6.08948 41.8567 5.90198C41.8775 5.71448 41.8775 5.53739 41.8567 5.37073C41.815 5.09989 41.7629 4.84989 41.7004 4.62073C41.6379 4.39156 41.5234 4.20406 41.3567 4.05823C41.1692 3.97489 41.065 3.92281 41.0442 3.90198C41.0442 3.88114 41.0338 3.86031 41.0129 3.83948C40.6588 3.71448 40.3879 3.59989 40.2004 3.49573C40.0963 3.45406 40.0025 3.43323 39.9192 3.43323C39.8359 3.41239 39.7317 3.38114 39.6067 3.33948C39.5025 3.29781 39.4088 3.26656 39.3254 3.24573C39.2421 3.20406 39.1379 3.16239 39.0129 3.12073C38.9504 3.09989 38.8775 3.08948 38.7942 3.08948C38.7109 3.06864 38.6067 3.03739 38.4817 2.99573C38.19 2.89156 37.9921 2.84989 37.8879 2.87073C37.7838 2.87073 37.7004 2.81864 37.6379 2.71448C37.6379 2.67281 37.6796 2.63114 37.7629 2.58948C37.8254 2.54781 37.8879 2.51656 37.9504 2.49573C38.1171 2.55823 38.2213 2.58948 38.2629 2.58948C38.2838 2.56864 38.3046 2.55823 38.3254 2.55823C38.4921 2.55823 38.6692 2.56864 38.8567 2.58948C39.0234 2.58948 39.19 2.56864 39.3567 2.52698C39.3984 2.52698 39.4504 2.50614 39.5129 2.46448C39.5754 2.42281 39.6379 2.40198 39.7004 2.40198C39.7629 2.38114 39.8359 2.37073 39.9192 2.37073C40.0025 2.37073 40.0754 2.37073 40.1379 2.37073C40.3463 2.32906 40.5442 2.28739 40.7317 2.24573C40.94 2.20406 41.1796 2.18323 41.4504 2.18323C41.6171 2.20406 41.7629 2.22489 41.8879 2.24573C42.0129 2.24573 42.1588 2.23531 42.3254 2.21448C42.5546 2.19364 42.6692 2.18323 42.6692 2.18323C42.94 2.16239 43.19 2.13114 43.4192 2.08948C43.5025 2.06864 43.6067 2.05823 43.7317 2.05823C43.8567 2.03739 43.9713 2.06864 44.0754 2.15198ZM53.2629 4.65198C53.3254 4.61031 53.4296 4.61031 53.5754 4.65198C53.7213 4.67281 53.8463 4.69364 53.9504 4.71448C54.0754 4.75614 54.2004 4.78739 54.3254 4.80823C54.4713 4.80823 54.5963 4.82906 54.7004 4.87073C54.7838 4.91239 54.8775 5.00614 54.9817 5.15198C55.0234 5.19364 55.065 5.23531 55.1067 5.27698C55.1692 5.31864 55.2109 5.36031 55.2317 5.40198C55.315 5.61031 55.3775 5.76656 55.4192 5.87073C55.4817 5.97489 55.5234 6.07906 55.5442 6.18323C55.4192 6.55823 55.2942 6.78739 55.1692 6.87073C54.9609 7.05823 54.815 7.21448 54.7317 7.33948C54.6692 7.46448 54.5546 7.54781 54.3879 7.58948C54.3254 7.61031 54.2109 7.62073 54.0442 7.62073C53.815 7.68323 53.6692 7.71448 53.6067 7.71448C53.5442 7.69364 53.4817 7.69364 53.4192 7.71448C53.1067 7.73531 52.8879 7.71448 52.7629 7.65198C52.6588 7.56864 52.5546 7.50614 52.4504 7.46448C52.3879 7.33948 52.3254 7.21448 52.2629 7.08948C52.2213 6.94364 52.1796 6.78739 52.1379 6.62073C52.1171 6.49573 52.1067 6.40198 52.1067 6.33948C52.1067 6.27698 52.1067 6.17281 52.1067 6.02698C52.1484 5.75614 52.2213 5.56864 52.3254 5.46448C52.4504 5.36031 52.5442 5.25614 52.6067 5.15198C52.7317 5.00614 52.7942 4.92281 52.7942 4.90198C52.815 4.88114 52.8463 4.86031 52.8879 4.83948C52.9296 4.79781 52.9921 4.76656 53.0754 4.74573C53.1588 4.72489 53.2213 4.69364 53.2629 4.65198ZM55.2629 9.46448C55.2838 9.56864 55.2734 9.65198 55.2317 9.71448C55.2109 9.77698 55.2004 9.86031 55.2004 9.96448C55.2004 10.1103 55.2109 10.2561 55.2317 10.402C55.2734 10.5478 55.2838 10.6936 55.2629 10.8395C55.2629 10.9436 55.2525 11.0478 55.2317 11.152C55.2317 11.2353 55.2213 11.3291 55.2004 11.4332C55.1588 11.8291 55.1275 12.277 55.1067 12.777C55.1067 13.2561 55.0859 13.7249 55.0442 14.1832C55.0234 14.4124 54.9921 14.6416 54.9504 14.8707C54.9088 15.0791 54.8775 15.2978 54.8567 15.527C54.8567 15.7561 54.8671 15.9645 54.8879 16.152C54.9088 16.3395 54.9192 16.5374 54.9192 16.7457C54.8984 16.8916 54.8775 17.0478 54.8567 17.2145C54.8567 17.3603 54.8359 17.5166 54.7942 17.6832C54.7525 17.9124 54.7421 18.1728 54.7629 18.4645C54.7838 18.7561 54.8046 19.027 54.8254 19.277C54.8463 19.527 54.8671 19.777 54.8879 20.027C54.9088 20.277 54.94 20.5166 54.9817 20.7457C55.0234 20.8916 55.0754 21.0374 55.1379 21.1832C55.2213 21.3291 55.2942 21.4645 55.3567 21.5895C55.44 21.8186 55.4921 21.9436 55.5129 21.9645C55.5338 21.9645 55.5546 21.9749 55.5754 21.9957C55.6588 22.1624 55.7421 22.2874 55.8254 22.3707C55.8671 22.4332 55.9088 22.4957 55.9504 22.5582C56.0129 22.6207 56.065 22.6728 56.1067 22.7145C56.1692 22.8186 56.2525 22.902 56.3567 22.9645C56.4609 23.027 56.565 23.1103 56.6692 23.2145C56.8359 23.402 56.94 23.5166 56.9817 23.5582C57.0442 23.5791 57.065 23.6207 57.0442 23.6832C56.94 23.7041 56.8463 23.7249 56.7629 23.7457C56.6796 23.7457 56.5859 23.7561 56.4817 23.777C56.2942 23.8186 56.1588 23.8603 56.0754 23.902C55.9296 23.9228 55.7838 23.9332 55.6379 23.9332C55.4921 23.9332 55.3359 23.9436 55.1692 23.9645C54.9817 24.027 54.8775 24.0478 54.8567 24.027C54.8567 24.0061 54.8359 23.9957 54.7942 23.9957C54.5025 24.0582 54.2421 24.1103 54.0129 24.152C53.7838 24.1936 53.565 24.2353 53.3567 24.277C53.1692 24.3186 52.9921 24.3499 52.8254 24.3707C52.6796 24.3916 52.5234 24.4228 52.3567 24.4645C52.315 24.4853 52.2629 24.5061 52.2004 24.527C52.1379 24.5686 52.0859 24.5999 52.0442 24.6207C51.8984 24.6624 51.7525 24.6728 51.6067 24.652C51.4817 24.6311 51.3463 24.6416 51.2004 24.6832C51.3254 24.4332 51.4088 24.2874 51.4504 24.2457C51.4921 24.2041 51.5338 24.1624 51.5754 24.1207C51.7004 23.9124 51.7942 23.7666 51.8567 23.6832C51.94 23.5999 52.0234 23.5374 52.1067 23.4957C52.1275 23.3291 52.2109 23.1728 52.3567 23.027C52.44 22.9228 52.5129 22.7978 52.5754 22.652C52.6588 22.5061 52.7317 22.3603 52.7942 22.2145C52.9192 21.9853 52.9921 21.7978 53.0129 21.652C53.0546 21.5061 53.0754 21.3603 53.0754 21.2145C53.0963 21.0478 53.0963 20.8916 53.0754 20.7457C53.0546 20.5791 53.0442 20.4124 53.0442 20.2457C53.065 20.1207 53.0859 19.9957 53.1067 19.8707C53.1275 19.7249 53.1484 19.5895 53.1692 19.4645C53.19 19.2978 53.2004 19.1311 53.2004 18.9645C53.2004 18.7978 53.2004 18.6416 53.2004 18.4957C53.2004 18.3916 53.19 18.3082 53.1692 18.2457C53.1484 18.1624 53.1379 18.0686 53.1379 17.9645C53.1379 17.7353 53.1171 17.5686 53.0754 17.4645C53.0338 17.3603 52.9504 17.2874 52.8254 17.2457C52.7213 16.9957 52.6692 16.8395 52.6692 16.777C52.6692 16.7145 52.7004 16.6311 52.7629 16.527C52.9296 16.2561 53.0442 16.0895 53.1067 16.027C53.1692 15.9645 53.2213 15.8811 53.2629 15.777C53.2629 15.6311 53.2734 15.4957 53.2942 15.3707C53.315 15.2457 53.3463 15.1207 53.3879 14.9957L53.4192 14.6207C53.4192 14.5166 53.4192 14.4228 53.4192 14.3395C53.44 14.2353 53.4504 14.1311 53.4504 14.027C53.4504 13.9228 53.4504 13.8186 53.4504 13.7145C53.4713 13.5895 53.4713 13.4645 53.4504 13.3395C53.4296 13.277 53.3984 13.2041 53.3567 13.1207C53.3359 13.0374 53.3046 12.9541 53.2629 12.8707C53.2004 12.5582 53.0859 12.3186 52.9192 12.152C52.7317 11.9228 52.5025 11.7041 52.2317 11.4957C52.1692 11.4541 52.0963 11.4124 52.0129 11.3707C51.9504 11.3291 51.8879 11.2874 51.8254 11.2457C51.7213 11.2041 51.6379 11.1624 51.5754 11.1207C51.5129 11.0582 51.4609 11.0166 51.4192 10.9957C51.3359 10.9541 51.2525 10.9436 51.1692 10.9645C51.1067 10.9645 51.0338 10.9436 50.9504 10.902C50.7004 10.7978 50.5442 10.7457 50.4817 10.7457C50.4192 10.7249 50.3775 10.6832 50.3567 10.6207C50.2525 10.6207 50.1588 10.5999 50.0754 10.5582C49.9921 10.4957 49.9088 10.4332 49.8254 10.3707C49.5754 10.2249 49.4713 10.0895 49.5129 9.96448C49.5546 9.83948 49.7109 9.78739 49.9817 9.80823C50.2525 9.82906 50.4817 9.81864 50.6692 9.77698C50.8567 9.73531 50.9504 9.72489 50.9504 9.74573C50.9713 9.74573 50.9921 9.74573 51.0129 9.74573C51.1379 9.74573 51.2109 9.74573 51.2317 9.74573C51.2734 9.72489 51.315 9.71448 51.3567 9.71448C51.4192 9.71448 51.4817 9.70406 51.5442 9.68323C51.6275 9.66239 51.7213 9.65198 51.8254 9.65198C51.9296 9.63114 52.0129 9.62073 52.0754 9.62073C52.1588 9.59989 52.2317 9.57906 52.2942 9.55823C52.5025 9.57906 52.6171 9.57906 52.6379 9.55823C52.6796 9.53739 52.7213 9.52698 52.7629 9.52698C52.9921 9.54781 53.1692 9.55823 53.2942 9.55823C53.4192 9.53739 53.5338 9.52698 53.6379 9.52698C53.8671 9.52698 54.1171 9.51656 54.3879 9.49573C54.6796 9.45406 54.9713 9.44364 55.2629 9.46448ZM60.2629 14.402C60.1796 14.402 60.065 14.402 59.9192 14.402C59.7942 14.3811 59.6796 14.3603 59.5754 14.3395C59.2004 14.277 58.8984 14.2353 58.6692 14.2145C58.4609 14.1936 58.2838 14.1832 58.1379 14.1832C57.9088 14.1832 57.7213 14.1728 57.5754 14.152C57.4504 14.1311 57.3775 14.0582 57.3567 13.9332C57.3359 13.7666 57.3984 13.6624 57.5442 13.6207C57.7109 13.5791 57.8775 13.5374 58.0442 13.4957C58.1484 13.4749 58.2213 13.4541 58.2629 13.4332C58.3254 13.4124 58.3879 13.4228 58.4504 13.4645C58.7629 13.4853 58.9504 13.4749 59.0129 13.4332C59.0963 13.3916 59.2213 13.3811 59.3879 13.402C59.5546 13.3811 59.6588 13.3603 59.7004 13.3395C59.7629 13.3186 59.8359 13.3082 59.9192 13.3082C60.065 13.3291 60.1484 13.3395 60.1692 13.3395C60.19 13.3186 60.2421 13.2978 60.3254 13.277C60.3671 12.9645 60.3879 12.6936 60.3879 12.4645C60.3879 12.2145 60.3984 11.9645 60.4192 11.7145C60.4192 11.527 60.4192 11.3603 60.4192 11.2145C60.44 11.0478 60.4713 10.8603 60.5129 10.652C60.5546 10.4853 60.5859 10.3707 60.6067 10.3082C60.6067 10.0999 60.6067 9.98531 60.6067 9.96448C60.5859 9.88114 60.5754 9.75614 60.5754 9.58948C60.5754 9.42281 60.5859 9.27698 60.6067 9.15198C60.6067 8.92281 60.6484 8.67281 60.7317 8.40198C60.7734 8.27698 60.7942 8.16239 60.7942 8.05823C60.815 7.93323 60.8463 7.78739 60.8879 7.62073C60.9296 7.45406 60.9817 7.29781 61.0442 7.15198C61.1067 6.98531 61.1484 6.80823 61.1692 6.62073C61.2109 6.57906 61.2525 6.51656 61.2942 6.43323C61.3359 6.34989 61.3775 6.26656 61.4192 6.18323C61.5025 6.05823 61.565 5.95406 61.6067 5.87073C61.6484 5.80823 61.7004 5.74573 61.7629 5.68323C61.8463 5.62073 61.9192 5.54781 61.9817 5.46448C62.065 5.33948 62.1275 5.26656 62.1692 5.24573C62.2109 5.20406 62.2525 5.15198 62.2942 5.08948C62.44 4.96448 62.5129 4.87073 62.5129 4.80823C62.7004 4.62073 62.8046 4.52698 62.8254 4.52698C62.8671 4.52698 62.9088 4.51656 62.9504 4.49573C63.1796 4.32906 63.3463 4.20406 63.4504 4.12073C63.5754 4.03739 63.7004 3.94364 63.8254 3.83948C63.9713 3.73531 64.1379 3.64156 64.3254 3.55823C64.5338 3.47489 64.7109 3.37073 64.8567 3.24573C65.0025 3.20406 65.1067 3.15198 65.1692 3.08948C65.2734 3.04781 65.3671 3.01656 65.4504 2.99573C65.5546 2.95406 65.6588 2.91239 65.7629 2.87073C65.8046 2.82906 65.8463 2.79781 65.8879 2.77698C65.9504 2.75614 66.0129 2.71448 66.0754 2.65198C66.1588 2.63114 66.2421 2.62073 66.3254 2.62073C66.4088 2.62073 66.4921 2.61031 66.5754 2.58948C66.6588 2.50614 66.7317 2.47489 66.7942 2.49573C66.8567 2.49573 66.9088 2.45406 66.9504 2.37073C67.0963 2.39156 67.2317 2.39156 67.3567 2.37073C67.4817 2.32906 67.5963 2.28739 67.7004 2.24573C67.8671 2.20406 68.0754 2.22489 68.3254 2.30823C68.5754 2.37073 68.8046 2.46448 69.0129 2.58948C69.2421 2.75614 69.3671 2.86031 69.3879 2.90198C69.5963 3.11031 69.7213 3.24573 69.7629 3.30823C69.8254 3.37073 69.8775 3.43323 69.9192 3.49573C69.9609 3.53739 69.9921 3.58948 70.0129 3.65198C70.0546 3.69364 70.0963 3.73531 70.1379 3.77698C70.2838 4.06864 70.3671 4.27698 70.3879 4.40198C70.4296 4.52698 70.4713 4.64156 70.5129 4.74573C70.5546 4.84989 70.5963 4.96448 70.6379 5.08948C70.7004 5.21448 70.7421 5.32906 70.7629 5.43323L70.7942 5.99573C70.7525 6.03739 70.7421 6.15198 70.7629 6.33948C70.7838 6.52698 70.7942 6.66239 70.7942 6.74573C70.7734 6.84989 70.7525 6.96448 70.7317 7.08948C70.7109 7.19364 70.6796 7.30823 70.6379 7.43323C70.6171 7.53739 70.6067 7.66239 70.6067 7.80823C70.6067 7.93323 70.5963 8.04781 70.5754 8.15198C70.4504 8.48531 70.3567 8.73531 70.2942 8.90198C70.2317 9.06864 70.1692 9.23531 70.1067 9.40198C69.9817 9.65198 69.9192 9.77698 69.9192 9.77698C69.8359 9.92281 69.7838 10.0061 69.7629 10.027C69.7421 10.027 69.7213 10.0478 69.7004 10.0895C69.5546 10.3395 69.4713 10.4645 69.4504 10.4645C69.4504 10.4645 69.4296 10.4957 69.3879 10.5582C69.2629 10.7249 69.1171 10.8603 68.9504 10.9645C68.8671 11.0061 68.7734 11.0582 68.6692 11.1207C68.5859 11.1832 68.4921 11.2353 68.3879 11.277C68.1588 11.402 67.94 11.5166 67.7317 11.6207C67.5234 11.7249 67.2421 11.7249 66.8879 11.6207C66.7213 11.5791 66.5546 11.527 66.3879 11.4645C66.2421 11.402 66.0859 11.3291 65.9192 11.2457C65.8359 11.1832 65.7629 11.152 65.7004 11.152C65.6379 11.1311 65.5859 11.0999 65.5442 11.0582C65.3984 10.9124 65.315 10.8499 65.2942 10.8707C65.2942 10.8707 65.2838 10.8603 65.2629 10.8395C65.2213 10.777 65.1484 10.7145 65.0442 10.652C64.9609 10.5686 64.8984 10.4749 64.8567 10.3707C64.7942 10.2874 64.7317 10.1936 64.6692 10.0895C64.6067 9.98531 64.5546 9.89156 64.5129 9.80823C64.4713 9.72489 64.4296 9.61031 64.3879 9.46448C64.3671 9.29781 64.3567 9.13114 64.3567 8.96448C64.3775 8.88114 64.4088 8.77698 64.4504 8.65198C64.5129 8.52698 64.565 8.39156 64.6067 8.24573C64.7525 7.99573 64.8463 7.83948 64.8879 7.77698C65.0754 7.52698 65.19 7.37073 65.2317 7.30823C65.2734 7.24573 65.3671 7.17281 65.5129 7.08948L65.8879 6.90198C65.9921 6.81864 66.0546 6.76656 66.0754 6.74573C66.1171 6.72489 66.1796 6.70406 66.2629 6.68323C66.3671 6.64156 66.4609 6.63114 66.5442 6.65198C66.6275 6.67281 66.7421 6.69364 66.8879 6.71448C66.9504 6.77698 67.0338 6.83948 67.1379 6.90198C67.2421 6.96448 67.3463 7.04781 67.4504 7.15198C67.5546 7.23531 67.6484 7.32906 67.7317 7.43323C67.8359 7.51656 67.8984 7.59989 67.9192 7.68323C67.94 7.76656 67.94 7.83948 67.9192 7.90198C67.8984 7.96448 67.8775 8.03739 67.8567 8.12073C67.8359 8.18323 67.8254 8.25614 67.8254 8.33948C67.8254 8.40198 67.8046 8.45406 67.7629 8.49573C67.6588 8.59989 67.565 8.67281 67.4817 8.71448C67.4192 8.73531 67.3671 8.77698 67.3254 8.83948C67.0754 8.79781 66.8879 8.73531 66.7629 8.65198C66.6588 8.56864 66.6692 8.40198 66.7942 8.15198C66.8984 8.00614 66.9609 7.86031 66.9817 7.71448C67.0025 7.54781 66.9609 7.39156 66.8567 7.24573C66.6275 7.20406 66.4609 7.23531 66.3567 7.33948C66.2525 7.44364 66.1171 7.52698 65.9504 7.58948C65.8671 7.77698 65.7838 7.93323 65.7004 8.05823C65.6588 8.14156 65.6067 8.22489 65.5442 8.30823C65.5025 8.37073 65.4713 8.44364 65.4504 8.52698C65.4504 8.63114 65.4713 8.77698 65.5129 8.96448C65.5546 9.13114 65.5859 9.27698 65.6067 9.40198C65.6275 9.58948 65.6484 9.69364 65.6692 9.71448C65.69 9.73531 65.7109 9.76656 65.7317 9.80823C65.8775 9.95406 66.0025 10.0686 66.1067 10.152C66.2109 10.2353 66.315 10.2978 66.4192 10.3395C66.4609 10.3603 66.5754 10.3707 66.7629 10.3707C66.9713 10.4541 67.1067 10.4853 67.1692 10.4645C67.2525 10.4436 67.3359 10.4541 67.4192 10.4957C67.7525 10.4957 67.9713 10.4541 68.0754 10.3707C68.2004 10.2874 68.3046 10.2041 68.3879 10.1207C68.5129 9.91239 68.6067 9.74573 68.6692 9.62073C68.7317 9.47489 68.7734 9.36031 68.7942 9.27698C68.815 9.21448 68.8254 9.15198 68.8254 9.08948C68.8463 9.00614 68.8671 8.93323 68.8879 8.87073C68.9713 8.57906 69.0234 8.40198 69.0442 8.33948C69.0859 8.25614 69.1171 8.16239 69.1379 8.05823C69.1588 7.89156 69.1588 7.73531 69.1379 7.58948C69.1379 7.44364 69.1484 7.28739 69.1692 7.12073C69.1692 7.01656 69.1796 6.92281 69.2004 6.83948C69.2213 6.73531 69.2317 6.63114 69.2317 6.52698C69.2317 6.42281 69.2317 6.32906 69.2317 6.24573C69.2317 6.14156 69.2213 6.03739 69.2004 5.93323C69.2004 5.84989 69.2004 5.76656 69.2004 5.68323C69.2004 5.59989 69.19 5.52698 69.1692 5.46448C69.1275 5.27698 69.065 5.11031 68.9817 4.96448C68.9192 4.81864 68.8775 4.66239 68.8567 4.49573C68.69 4.37073 68.5546 4.28739 68.4504 4.24573C68.3671 4.20406 68.2838 4.18323 68.2004 4.18323C68.1171 4.18323 68.0338 4.17281 67.9504 4.15198C67.8463 4.11031 67.7525 4.05823 67.6692 3.99573C67.5859 3.93323 67.4921 3.89156 67.3879 3.87073C67.2004 3.87073 67.065 3.88114 66.9817 3.90198C66.7942 3.96448 66.6588 4.00614 66.5754 4.02698C66.5129 4.04781 66.4296 4.06864 66.3254 4.08948C65.9713 4.23531 65.7421 4.36031 65.6379 4.46448C65.5338 4.56864 65.4296 4.66239 65.3254 4.74573C65.1379 4.89156 64.9921 5.00614 64.8879 5.08948C64.7838 5.15198 64.69 5.23531 64.6067 5.33948C64.4192 5.58948 64.3359 5.71448 64.3567 5.71448C64.2942 5.83948 64.2109 5.95406 64.1067 6.05823C64.0234 6.18323 63.9504 6.32906 63.8879 6.49573C63.7838 6.66239 63.7109 6.75614 63.6692 6.77698C63.6484 6.77698 63.6275 6.78739 63.6067 6.80823C63.5025 7.05823 63.44 7.22489 63.4192 7.30823C63.3984 7.39156 63.3671 7.45406 63.3254 7.49573C63.2629 7.64156 63.2109 7.81864 63.1692 8.02698C63.1275 8.21448 63.0754 8.40198 63.0129 8.58948C62.9713 8.77698 62.9192 8.98531 62.8567 9.21448C62.815 9.31864 62.7838 9.41239 62.7629 9.49573C62.7629 9.55823 62.7421 9.64156 62.7004 9.74573C62.7213 9.78739 62.7109 9.89156 62.6692 10.0582C62.6275 10.2041 62.5859 10.3082 62.5442 10.3707C62.5025 10.5791 62.4713 10.7145 62.4504 10.777C62.3879 10.9436 62.3254 11.0999 62.2629 11.2457C62.2004 11.3916 62.1484 11.5582 62.1067 11.7457C62.0234 12.0374 61.9504 12.2978 61.8879 12.527C61.8463 12.7353 61.8046 12.9645 61.7629 13.2145C61.8046 13.277 61.8671 13.3082 61.9504 13.3082C62.0546 13.2874 62.1379 13.277 62.2004 13.277C62.3046 13.2978 62.44 13.3291 62.6067 13.3707C62.8984 13.3916 63.2004 13.3916 63.5129 13.3707C63.8463 13.3499 64.1796 13.3603 64.5129 13.402C64.7421 13.4228 64.8567 13.4436 64.8567 13.4645C64.8775 13.4853 64.8984 13.4957 64.9192 13.4957L65.6067 13.5582C65.69 13.5791 65.7942 13.5895 65.9192 13.5895C66.065 13.5686 66.1692 13.5582 66.2317 13.5582C66.3359 13.5582 66.44 13.5478 66.5442 13.527C66.6484 13.5061 66.7525 13.4957 66.8567 13.4957C66.9192 13.5166 66.9817 13.5374 67.0442 13.5582C67.1067 13.5791 67.1692 13.5895 67.2317 13.5895C67.3359 13.5895 67.4192 13.5791 67.4817 13.5582C67.565 13.5374 67.6484 13.5374 67.7317 13.5582C67.8567 13.5582 67.9504 13.5791 68.0129 13.6207C68.0963 13.6416 68.2213 13.6416 68.3879 13.6207C68.4504 13.6207 68.5442 13.6103 68.6692 13.5895C68.7942 13.5686 68.8567 13.6311 68.8567 13.777C68.8567 13.8811 68.8046 13.9332 68.7004 13.9332C68.5963 13.9332 68.4713 13.9541 68.3254 13.9957C68.2213 14.0374 68.1171 14.0686 68.0129 14.0895C67.9088 14.0895 67.815 14.0999 67.7317 14.1207C67.2942 14.1624 66.9609 14.2041 66.7317 14.2457C66.5025 14.2874 66.1796 14.3186 65.7629 14.3395C65.4921 14.3603 65.2942 14.3707 65.1692 14.3707C65.0442 14.3707 64.8984 14.3707 64.7317 14.3707C64.5442 14.3916 64.44 14.402 64.4192 14.402C64.3984 14.3811 64.3671 14.3707 64.3254 14.3707C63.8879 14.4124 63.4504 14.4332 63.0129 14.4332C62.5963 14.4332 62.1796 14.4853 61.7629 14.5895C61.7213 14.6936 61.7109 14.7978 61.7317 14.902C61.7734 15.0061 61.7838 15.1207 61.7629 15.2457C61.7629 15.3499 61.7525 15.4332 61.7317 15.4957C61.7317 15.5582 61.7525 15.6416 61.7942 15.7457C61.8984 16.1416 61.9609 16.4436 61.9817 16.652C62.0234 16.8395 62.065 17.0478 62.1067 17.277C62.1067 17.3811 62.1171 17.4749 62.1379 17.5582C62.1588 17.6416 62.1692 17.7249 62.1692 17.8082C62.2109 18.0166 62.2317 18.2353 62.2317 18.4645C62.2317 18.6728 62.2525 18.8707 62.2942 19.0582C62.3775 19.3916 62.44 19.6832 62.4817 19.9332C62.5025 20.2041 62.5442 20.3395 62.6067 20.3395C62.6067 20.5061 62.6171 20.6103 62.6379 20.652C62.6588 20.6936 62.6796 20.7353 62.7004 20.777C62.7421 20.8603 62.7629 20.9541 62.7629 21.0582C62.7838 21.1416 62.815 21.2353 62.8567 21.3395C62.8984 21.5061 62.9609 21.6728 63.0442 21.8395C63.1275 22.0061 63.19 22.1728 63.2317 22.3395C63.315 22.6311 63.4192 22.9124 63.5442 23.1832C63.5859 23.2874 63.6275 23.4124 63.6692 23.5582C63.7109 23.6832 63.7525 23.8186 63.7942 23.9645C63.8567 24.1936 63.8671 24.3291 63.8254 24.3707C63.7838 24.4124 63.7734 24.4541 63.7942 24.4957C63.5859 24.4541 63.3567 24.4541 63.1067 24.4957C62.8567 24.5374 62.6067 24.5582 62.3567 24.5582C62.2525 24.5374 62.1484 24.5166 62.0442 24.4957C61.9609 24.4749 61.8671 24.4645 61.7629 24.4645C61.6588 24.4645 61.5546 24.4749 61.4504 24.4957C61.3671 24.5166 61.2734 24.5374 61.1692 24.5582C60.9609 24.5582 60.7213 24.5374 60.4504 24.4957C60.2004 24.4749 59.9609 24.4749 59.7317 24.4957C59.3984 24.5999 59.1796 24.652 59.0754 24.652C58.9921 24.6728 58.9088 24.7353 58.8254 24.8395C58.7838 24.902 58.7213 24.9228 58.6379 24.902C58.5546 24.8811 58.4921 24.8499 58.4504 24.8082C58.4921 24.5374 58.5129 24.402 58.5129 24.402C58.6171 24.3395 58.6796 24.2874 58.7004 24.2457C58.7213 24.1832 58.7525 24.1311 58.7942 24.0895C58.94 23.8395 59.0859 23.6103 59.2317 23.402C59.3359 23.2978 59.44 23.2041 59.5442 23.1207C59.6692 23.0166 59.7525 22.9124 59.7942 22.8082C59.9192 22.5374 60.0129 22.3499 60.0754 22.2457C60.1379 22.1207 60.2004 21.9749 60.2629 21.8082C60.4088 21.4541 60.4921 21.0791 60.5129 20.6832C60.5338 20.2666 60.565 19.9124 60.6067 19.6207C60.6484 19.2874 60.6588 19.0478 60.6379 18.902C60.6379 18.7561 60.6275 18.5999 60.6067 18.4332C60.5859 18.3291 60.565 18.2249 60.5442 18.1207C60.5442 18.0166 60.5338 17.9124 60.5129 17.8082C60.4921 17.7041 60.4609 17.6103 60.4192 17.527C60.3775 17.4228 60.3463 17.3186 60.3254 17.2145C60.2838 17.0478 60.2734 16.8811 60.2942 16.7145C60.315 16.5478 60.3254 16.3811 60.3254 16.2145C60.3254 16.0686 60.3046 15.9228 60.2629 15.777C60.2421 15.6311 60.2421 15.4853 60.2629 15.3395C60.2629 15.1936 60.2734 15.0686 60.2942 14.9645C60.315 14.8395 60.3046 14.7041 60.2629 14.5582V14.402ZM72.4817 4.65198C72.5442 4.61031 72.6484 4.61031 72.7942 4.65198C72.94 4.67281 73.065 4.69364 73.1692 4.71448C73.2942 4.75614 73.4192 4.78739 73.5442 4.80823C73.69 4.80823 73.815 4.82906 73.9192 4.87073C74.0025 4.91239 74.0963 5.00614 74.2004 5.15198C74.2421 5.19364 74.2838 5.23531 74.3254 5.27698C74.3879 5.31864 74.4296 5.36031 74.4504 5.40198C74.5338 5.61031 74.5963 5.76656 74.6379 5.87073C74.7004 5.97489 74.7421 6.07906 74.7629 6.18323C74.6379 6.55823 74.5129 6.78739 74.3879 6.87073C74.1796 7.05823 74.0338 7.21448 73.9504 7.33948C73.8879 7.46448 73.7734 7.54781 73.6067 7.58948C73.5442 7.61031 73.4296 7.62073 73.2629 7.62073C73.0338 7.68323 72.8879 7.71448 72.8254 7.71448C72.7629 7.69364 72.7004 7.69364 72.6379 7.71448C72.3254 7.73531 72.1067 7.71448 71.9817 7.65198C71.8775 7.56864 71.7734 7.50614 71.6692 7.46448C71.6067 7.33948 71.5442 7.21448 71.4817 7.08948C71.44 6.94364 71.3984 6.78739 71.3567 6.62073C71.3359 6.49573 71.3254 6.40198 71.3254 6.33948C71.3254 6.27698 71.3254 6.17281 71.3254 6.02698C71.3671 5.75614 71.44 5.56864 71.5442 5.46448C71.6692 5.36031 71.7629 5.25614 71.8254 5.15198C71.9504 5.00614 72.0129 4.92281 72.0129 4.90198C72.0338 4.88114 72.065 4.86031 72.1067 4.83948C72.1484 4.79781 72.2109 4.76656 72.2942 4.74573C72.3775 4.72489 72.44 4.69364 72.4817 4.65198ZM74.4817 9.46448C74.5025 9.56864 74.4921 9.65198 74.4504 9.71448C74.4296 9.77698 74.4192 9.86031 74.4192 9.96448C74.4192 10.1103 74.4296 10.2561 74.4504 10.402C74.4921 10.5478 74.5025 10.6936 74.4817 10.8395C74.4817 10.9436 74.4713 11.0478 74.4504 11.152C74.4504 11.2353 74.44 11.3291 74.4192 11.4332C74.3775 11.8291 74.3463 12.277 74.3254 12.777C74.3254 13.2561 74.3046 13.7249 74.2629 14.1832C74.2421 14.4124 74.2109 14.6416 74.1692 14.8707C74.1275 15.0791 74.0963 15.2978 74.0754 15.527C74.0754 15.7561 74.0859 15.9645 74.1067 16.152C74.1275 16.3395 74.1379 16.5374 74.1379 16.7457C74.1171 16.8916 74.0963 17.0478 74.0754 17.2145C74.0754 17.3603 74.0546 17.5166 74.0129 17.6832C73.9713 17.9124 73.9609 18.1728 73.9817 18.4645C74.0025 18.7561 74.0234 19.027 74.0442 19.277C74.065 19.527 74.0859 19.777 74.1067 20.027C74.1275 20.277 74.1588 20.5166 74.2004 20.7457C74.2421 20.8916 74.2942 21.0374 74.3567 21.1832C74.44 21.3291 74.5129 21.4645 74.5754 21.5895C74.6588 21.8186 74.7109 21.9436 74.7317 21.9645C74.7525 21.9645 74.7734 21.9749 74.7942 21.9957C74.8775 22.1624 74.9609 22.2874 75.0442 22.3707C75.0859 22.4332 75.1275 22.4957 75.1692 22.5582C75.2317 22.6207 75.2838 22.6728 75.3254 22.7145C75.3879 22.8186 75.4713 22.902 75.5754 22.9645C75.6796 23.027 75.7838 23.1103 75.8879 23.2145C76.0546 23.402 76.1588 23.5166 76.2004 23.5582C76.2629 23.5791 76.2838 23.6207 76.2629 23.6832C76.1588 23.7041 76.065 23.7249 75.9817 23.7457C75.8984 23.7457 75.8046 23.7561 75.7004 23.777C75.5129 23.8186 75.3775 23.8603 75.2942 23.902C75.1484 23.9228 75.0025 23.9332 74.8567 23.9332C74.7109 23.9332 74.5546 23.9436 74.3879 23.9645C74.2004 24.027 74.0963 24.0478 74.0754 24.027C74.0754 24.0061 74.0546 23.9957 74.0129 23.9957C73.7213 24.0582 73.4609 24.1103 73.2317 24.152C73.0025 24.1936 72.7838 24.2353 72.5754 24.277C72.3879 24.3186 72.2109 24.3499 72.0442 24.3707C71.8984 24.3916 71.7421 24.4228 71.5754 24.4645C71.5338 24.4853 71.4817 24.5061 71.4192 24.527C71.3567 24.5686 71.3046 24.5999 71.2629 24.6207C71.1171 24.6624 70.9713 24.6728 70.8254 24.652C70.7004 24.6311 70.565 24.6416 70.4192 24.6832C70.5442 24.4332 70.6275 24.2874 70.6692 24.2457C70.7109 24.2041 70.7525 24.1624 70.7942 24.1207C70.9192 23.9124 71.0129 23.7666 71.0754 23.6832C71.1588 23.5999 71.2421 23.5374 71.3254 23.4957C71.3463 23.3291 71.4296 23.1728 71.5754 23.027C71.6588 22.9228 71.7317 22.7978 71.7942 22.652C71.8775 22.5061 71.9504 22.3603 72.0129 22.2145C72.1379 21.9853 72.2109 21.7978 72.2317 21.652C72.2734 21.5061 72.2942 21.3603 72.2942 21.2145C72.315 21.0478 72.315 20.8916 72.2942 20.7457C72.2734 20.5791 72.2629 20.4124 72.2629 20.2457C72.2838 20.1207 72.3046 19.9957 72.3254 19.8707C72.3463 19.7249 72.3671 19.5895 72.3879 19.4645C72.4088 19.2978 72.4192 19.1311 72.4192 18.9645C72.4192 18.7978 72.4192 18.6416 72.4192 18.4957C72.4192 18.3916 72.4088 18.3082 72.3879 18.2457C72.3671 18.1624 72.3567 18.0686 72.3567 17.9645C72.3567 17.7353 72.3359 17.5686 72.2942 17.4645C72.2525 17.3603 72.1692 17.2874 72.0442 17.2457C71.94 16.9957 71.8879 16.8395 71.8879 16.777C71.8879 16.7145 71.9192 16.6311 71.9817 16.527C72.1484 16.2561 72.2629 16.0895 72.3254 16.027C72.3879 15.9645 72.44 15.8811 72.4817 15.777C72.4817 15.6311 72.4921 15.4957 72.5129 15.3707C72.5338 15.2457 72.565 15.1207 72.6067 14.9957L72.6379 14.6207C72.6379 14.5166 72.6379 14.4228 72.6379 14.3395C72.6588 14.2353 72.6692 14.1311 72.6692 14.027C72.6692 13.9228 72.6692 13.8186 72.6692 13.7145C72.69 13.5895 72.69 13.4645 72.6692 13.3395C72.6484 13.277 72.6171 13.2041 72.5754 13.1207C72.5546 13.0374 72.5234 12.9541 72.4817 12.8707C72.4192 12.5582 72.3046 12.3186 72.1379 12.152C71.9504 11.9228 71.7213 11.7041 71.4504 11.4957C71.3879 11.4541 71.315 11.4124 71.2317 11.3707C71.1692 11.3291 71.1067 11.2874 71.0442 11.2457C70.94 11.2041 70.8567 11.1624 70.7942 11.1207C70.7317 11.0582 70.6796 11.0166 70.6379 10.9957C70.5546 10.9541 70.4713 10.9436 70.3879 10.9645C70.3254 10.9645 70.2525 10.9436 70.1692 10.902C69.9192 10.7978 69.7629 10.7457 69.7004 10.7457C69.6379 10.7249 69.5963 10.6832 69.5754 10.6207C69.4713 10.6207 69.3775 10.5999 69.2942 10.5582C69.2109 10.4957 69.1275 10.4332 69.0442 10.3707C68.7942 10.2249 68.69 10.0895 68.7317 9.96448C68.7734 9.83948 68.9296 9.78739 69.2004 9.80823C69.4713 9.82906 69.7004 9.81864 69.8879 9.77698C70.0754 9.73531 70.1692 9.72489 70.1692 9.74573C70.19 9.74573 70.2109 9.74573 70.2317 9.74573C70.3567 9.74573 70.4296 9.74573 70.4504 9.74573C70.4921 9.72489 70.5338 9.71448 70.5754 9.71448C70.6379 9.71448 70.7004 9.70406 70.7629 9.68323C70.8463 9.66239 70.94 9.65198 71.0442 9.65198C71.1484 9.63114 71.2317 9.62073 71.2942 9.62073C71.3775 9.59989 71.4504 9.57906 71.5129 9.55823C71.7213 9.57906 71.8359 9.57906 71.8567 9.55823C71.8984 9.53739 71.94 9.52698 71.9817 9.52698C72.2109 9.54781 72.3879 9.55823 72.5129 9.55823C72.6379 9.53739 72.7525 9.52698 72.8567 9.52698C73.0859 9.52698 73.3359 9.51656 73.6067 9.49573C73.8984 9.45406 74.19 9.44364 74.4817 9.46448ZM91.0129 7.24573C91.1796 7.24573 91.2421 7.29781 91.2004 7.40198C91.1796 7.50614 91.1692 7.58948 91.1692 7.65198C91.1275 7.92281 91.0754 8.20406 91.0129 8.49573C90.9713 8.76656 90.9192 9.04781 90.8567 9.33948C90.7734 9.65198 90.7213 9.88114 90.7004 10.027C90.6796 10.152 90.6588 10.277 90.6379 10.402C90.5754 10.6103 90.5234 10.8082 90.4817 10.9957C90.4609 11.1624 90.4296 11.3291 90.3879 11.4957C90.2838 11.9332 90.1692 12.3603 90.0442 12.777C89.9192 13.1728 89.7838 13.5791 89.6379 13.9957L89.4817 14.3395C89.4609 14.5478 89.4296 14.6936 89.3879 14.777C89.3671 14.8395 89.3359 14.9124 89.2942 14.9957C89.2734 15.0374 89.2525 15.1103 89.2317 15.2145C89.2317 15.3186 89.1692 15.3707 89.0442 15.3707C88.9609 15.3082 88.9192 15.2353 88.9192 15.152C88.9192 15.0686 88.8984 14.9749 88.8567 14.8707C88.7525 14.6832 88.6796 14.5374 88.6379 14.4332C88.6171 14.3082 88.5859 14.1936 88.5442 14.0895C88.5025 13.9228 88.4504 13.7561 88.3879 13.5895C88.3463 13.4228 88.2838 13.2457 88.2004 13.0582C88.1588 12.9541 88.1275 12.8811 88.1067 12.8395C88.0859 12.777 88.0546 12.6832 88.0129 12.5582C87.9713 12.3707 87.9296 12.2561 87.8879 12.2145C87.8671 12.152 87.8463 12.0895 87.8254 12.027C87.8046 11.9645 87.7942 11.902 87.7942 11.8395C87.7942 11.7561 87.7838 11.6832 87.7629 11.6207C87.7421 11.5582 87.7213 11.4957 87.7004 11.4332C87.6796 11.3707 87.6692 11.3082 87.6692 11.2457C87.6067 11.1832 87.565 11.1103 87.5442 11.027C87.5234 10.9436 87.4921 10.8603 87.4504 10.777C87.3463 10.6103 87.2629 10.4957 87.2004 10.4332C87.1379 10.3499 87.0859 10.2561 87.0442 10.152C86.6067 9.92281 86.1484 9.74573 85.6692 9.62073C85.5234 9.57906 85.3879 9.54781 85.2629 9.52698C85.1379 9.50614 84.9817 9.50614 84.7942 9.52698C84.6275 9.56864 84.44 9.59989 84.2317 9.62073C84.0234 9.62073 83.8359 9.67281 83.6692 9.77698C83.5234 9.88114 83.44 9.93323 83.4192 9.93323C83.3984 9.93323 83.3671 9.94364 83.3254 9.96448C83.1588 10.0686 83.0442 10.1416 82.9817 10.1832C82.9192 10.2041 82.8567 10.2353 82.7942 10.277C82.7525 10.3186 82.7004 10.3603 82.6379 10.402C82.5963 10.4436 82.5442 10.4853 82.4817 10.527C82.3775 10.652 82.2629 10.777 82.1379 10.902C82.0338 11.0061 81.9296 11.1311 81.8254 11.277C81.7838 11.3395 81.7317 11.4124 81.6692 11.4957C81.6067 11.5582 81.5546 11.6311 81.5129 11.7145C81.3671 11.9645 81.2838 12.1103 81.2629 12.152C81.1379 12.3811 81.065 12.527 81.0442 12.5895C81.0234 12.652 80.9921 12.7249 80.9504 12.8082C80.9088 12.8707 80.8775 12.9436 80.8567 13.027C80.8567 13.0895 80.8359 13.1728 80.7942 13.277C80.6275 13.6103 80.5129 13.8916 80.4504 14.1207C80.3879 14.3499 80.315 14.5895 80.2317 14.8395C80.1692 15.027 80.1067 15.2145 80.0442 15.402C79.9817 15.5895 79.9296 15.7978 79.8879 16.027C79.8463 16.5061 79.8463 16.9853 79.8879 17.4645C79.9296 17.5895 79.9713 17.7249 80.0129 17.8707C80.0754 17.9957 80.1275 18.1311 80.1692 18.277C80.2109 18.4228 80.2421 18.5686 80.2629 18.7145C80.2838 18.8603 80.315 19.0061 80.3567 19.152C80.4192 19.3186 80.4504 19.4541 80.4504 19.5582C80.5546 19.7041 80.5963 19.7978 80.5754 19.8395C80.5754 19.8603 80.5859 19.8916 80.6067 19.9332C80.7317 20.1416 80.8046 20.3082 80.8254 20.4332C80.8671 20.5582 80.9192 20.6728 80.9817 20.777C81.0442 20.8811 81.1379 21.0061 81.2629 21.152C81.3046 21.1936 81.3359 21.2457 81.3567 21.3082C81.3775 21.3707 81.4088 21.4228 81.4504 21.4645C81.4921 21.527 81.5338 21.5895 81.5754 21.652C81.6379 21.6936 81.69 21.7457 81.7317 21.8082C81.7734 21.8499 81.7942 21.902 81.7942 21.9645C81.815 22.0061 81.8463 22.0582 81.8879 22.1207C81.9713 22.2041 82.0338 22.277 82.0754 22.3395C82.1379 22.402 82.2004 22.4645 82.2629 22.527C82.3463 22.5895 82.4296 22.652 82.5129 22.7145C82.5963 22.7561 82.7213 22.7978 82.8879 22.8395L83.2942 22.9645C83.3984 22.9853 83.5234 22.9957 83.6692 22.9957C83.815 22.9749 83.9713 22.9749 84.1379 22.9957C84.2838 23.0166 84.4192 23.0374 84.5442 23.0582C84.6692 23.0582 84.8046 23.0582 84.9504 23.0582C85.1171 23.0582 85.2629 23.0582 85.3879 23.0582C85.5129 23.0582 85.6484 23.0478 85.7942 23.027C85.94 23.0061 86.0754 23.0061 86.2004 23.027C86.3463 23.027 86.4817 23.0166 86.6067 22.9957C86.815 22.9124 86.9504 22.8811 87.0129 22.902C87.0754 22.902 87.1484 22.8811 87.2317 22.8395C87.315 22.7978 87.3775 22.7666 87.4192 22.7457C87.4817 22.7249 87.5546 22.6936 87.6379 22.652C87.7213 22.6103 87.7942 22.5791 87.8567 22.5582C87.94 22.5166 88.0234 22.4645 88.1067 22.402C88.2525 22.277 88.3775 22.1311 88.4817 21.9645C88.5859 21.7978 88.7109 21.6624 88.8567 21.5582C88.8984 21.4124 88.9609 21.277 89.0442 21.152C89.1275 21.027 89.2109 20.9124 89.2942 20.8082C89.3567 20.6416 89.4088 20.5374 89.4504 20.4957C89.4921 20.4541 89.5338 20.3916 89.5754 20.3082C89.6379 20.2249 89.6692 20.1416 89.6692 20.0582C89.7942 20.0374 89.8567 19.9749 89.8567 19.8707C89.8775 19.7457 89.94 19.6624 90.0442 19.6207C90.1484 19.6207 90.2109 19.6624 90.2317 19.7457C90.2734 19.8291 90.315 19.902 90.3567 19.9645C90.4817 20.1311 90.5442 20.2666 90.5442 20.3707C90.5442 20.4541 90.5234 20.5582 90.4817 20.6832C90.44 20.7874 90.3984 20.8811 90.3567 20.9645C90.315 21.0895 90.2629 21.2145 90.2004 21.3395C90.1171 21.4853 90.065 21.5895 90.0442 21.652C90.0442 21.6936 90.0234 21.7353 89.9817 21.777C89.8775 21.9228 89.7734 22.0686 89.6692 22.2145C89.565 22.3395 89.4504 22.4853 89.3254 22.652C89.1796 22.8395 89.0546 22.9541 88.9504 22.9957C88.9088 23.0374 88.8567 23.0895 88.7942 23.152C88.7525 23.2145 88.7004 23.2666 88.6379 23.3082C88.2213 23.5166 87.8671 23.652 87.5754 23.7145C87.3463 23.7561 87.2109 23.7874 87.1692 23.8082C87.1484 23.8291 87.1171 23.8499 87.0754 23.8707C86.9921 23.8916 86.9088 23.9124 86.8254 23.9332C86.7421 23.9332 86.6484 23.9436 86.5442 23.9645C86.4609 24.0061 86.3775 24.0374 86.2942 24.0582C86.2109 24.0582 86.1275 24.0686 86.0442 24.0895C85.815 24.1311 85.5546 24.1416 85.2629 24.1207C84.9921 24.0999 84.69 24.1103 84.3567 24.152C84.1484 24.1936 83.9609 24.2145 83.7942 24.2145C83.6275 24.2145 83.44 24.2145 83.2317 24.2145C82.94 24.1728 82.69 24.1416 82.4817 24.1207C82.2942 24.0791 82.0859 24.0166 81.8567 23.9332C81.6275 23.7666 81.4817 23.652 81.4192 23.5895C81.3775 23.5478 81.3254 23.527 81.2629 23.527C81.2004 23.5061 81.1484 23.4749 81.1067 23.4332C81.065 23.3916 81.0129 23.3395 80.9504 23.277C80.8879 23.2145 80.8254 23.1624 80.7629 23.1207L80.4504 22.7145C80.3254 22.5686 80.2004 22.3811 80.0754 22.152C79.8879 21.902 79.7838 21.7457 79.7629 21.6832C79.7629 21.5999 79.7421 21.5166 79.7004 21.4332C79.6588 21.3916 79.6171 21.3395 79.5754 21.277C79.5546 21.2145 79.5234 21.1416 79.4817 21.0582C79.44 20.9957 79.4088 20.9332 79.3879 20.8707C79.3671 20.7874 79.3359 20.7145 79.2942 20.652C79.2109 20.4645 79.1588 20.3603 79.1379 20.3395C79.0338 20.0895 78.9609 19.9228 78.9192 19.8395C78.8775 19.7561 78.8359 19.6624 78.7942 19.5582C78.7109 19.3082 78.6692 19.1832 78.6692 19.1832C78.6275 19.0166 78.5859 18.8916 78.5442 18.8082C78.5234 18.7457 78.4921 18.6832 78.4504 18.6207C78.4296 18.5582 78.4088 18.4957 78.3879 18.4332C78.3671 18.3499 78.3567 18.277 78.3567 18.2145C78.3567 18.152 78.3463 18.0791 78.3254 17.9957C78.2629 17.8291 78.2213 17.7353 78.2004 17.7145C78.2004 17.6936 78.2004 17.6624 78.2004 17.6207C78.1796 17.5582 78.1484 17.5061 78.1067 17.4645C78.0859 17.402 78.065 17.3395 78.0442 17.277C78.0234 17.2353 78.0234 17.1832 78.0442 17.1207C78.065 17.0374 78.065 16.9645 78.0442 16.902C77.94 16.4853 77.8567 16.1416 77.7942 15.8707C77.7525 15.5999 77.7213 15.3395 77.7004 15.0895C77.7004 14.7561 77.7109 14.4436 77.7317 14.152C77.7734 13.8603 77.8567 13.5999 77.9817 13.3707C78.1067 13.0582 78.1796 12.8499 78.2004 12.7457C78.2421 12.6207 78.2838 12.5061 78.3254 12.402C78.3671 12.3186 78.4192 12.2353 78.4817 12.152C78.5442 12.0478 78.6067 11.9436 78.6692 11.8395C78.9192 11.3811 79.1484 11.0374 79.3567 10.8082C79.5859 10.5791 79.7942 10.3082 79.9817 9.99573C80.0442 9.95406 80.1067 9.91239 80.1692 9.87073C80.2317 9.82906 80.3046 9.78739 80.3879 9.74573C80.6379 9.55823 80.7942 9.44364 80.8567 9.40198C80.94 9.33948 81.0234 9.28739 81.1067 9.24573C81.2109 9.20406 81.3046 9.17281 81.3879 9.15198C81.4713 9.13114 81.565 9.09989 81.6692 9.05823C81.7525 9.01656 81.8254 8.98531 81.8879 8.96448C81.9713 8.92281 82.0546 8.89156 82.1379 8.87073C82.3463 8.80823 82.5442 8.77698 82.7317 8.77698C82.94 8.75614 83.1275 8.72489 83.2942 8.68323C83.3984 8.64156 83.5129 8.58948 83.6379 8.52698C83.7629 8.46448 83.8984 8.42281 84.0442 8.40198C84.315 8.36031 84.6067 8.37073 84.9192 8.43323C85.2317 8.49573 85.4921 8.56864 85.7004 8.65198C85.9088 8.71448 86.1484 8.80823 86.4192 8.93323C86.6275 8.99573 86.7525 9.06864 86.7942 9.15198C86.9817 9.25614 87.0963 9.32906 87.1379 9.37073C87.1796 9.39156 87.2213 9.42281 87.2629 9.46448C87.5129 9.54781 87.7004 9.62073 87.8254 9.68323C87.9713 9.74573 88.0963 9.80823 88.2004 9.87073C88.4088 10.0166 88.5338 10.0999 88.5754 10.1207C88.6171 10.1207 88.6588 10.1311 88.7004 10.152C88.9713 10.1936 89.19 10.1207 89.3567 9.93323C89.5234 9.74573 89.6588 9.57906 89.7629 9.43323C89.8046 9.34989 89.8463 9.26656 89.8879 9.18323C89.9504 9.07906 90.0025 8.98531 90.0442 8.90198C90.2109 8.71448 90.3046 8.59989 90.3254 8.55823C90.3463 8.51656 90.3671 8.47489 90.3879 8.43323C90.4921 8.16239 90.5859 8.00614 90.6692 7.96448C90.69 7.94364 90.7109 7.89156 90.7317 7.80823C90.7525 7.72489 90.7838 7.66239 90.8254 7.62073C90.8671 7.45406 90.9296 7.32906 91.0129 7.24573Z" fill="#6D0DB8"/>
</svg>
