<svg width="50" height="50" viewBox="0 0 50 50" fill="none" xmlns="http://www.w3.org/2000/svg">
<g clip-path="url(#clip0_531_1626)">
<circle cx="25" cy="25" r="24" fill="#EEEEEE" stroke="#AAAAAA" stroke-width="2"/>
<mask id="path-2-inside-1_531_1626" fill="white">
<path fill-rule="evenodd" clip-rule="evenodd" d="M6.25 41.5364V40.625C6.25 34.3906 18.7422 31.25 25 31.25C31.2578 31.25 43.75 34.3906 43.75 40.625V41.5364C39.1691 46.7265 32.4668 50 25 50C17.5332 50 10.8309 46.7265 6.25 41.5364ZM25 10.4166C19.8203 10.4166 15.625 14.6119 15.625 19.7916C15.625 24.9713 19.8203 29.1666 25 29.1666C30.1797 29.1666 34.375 24.9713 34.375 19.7916C34.375 14.6119 30.1797 10.4166 25 10.4166Z"/>
</mask>
<path fill-rule="evenodd" clip-rule="evenodd" d="M6.25 41.5364V40.625C6.25 34.3906 18.7422 31.25 25 31.25C31.2578 31.25 43.75 34.3906 43.75 40.625V41.5364C39.1691 46.7265 32.4668 50 25 50C17.5332 50 10.8309 46.7265 6.25 41.5364ZM25 10.4166C19.8203 10.4166 15.625 14.6119 15.625 19.7916C15.625 24.9713 19.8203 29.1666 25 29.1666C30.1797 29.1666 34.375 24.9713 34.375 19.7916C34.375 14.6119 30.1797 10.4166 25 10.4166Z" fill="#EEEEEE"/>
<path d="M6.25 41.5364H4.25V42.2927L4.75052 42.8598L6.25 41.5364ZM43.75 41.5364L45.2495 42.8598L45.75 42.2927V41.5364H43.75ZM8.25 41.5364V40.625H4.25V41.5364H8.25ZM8.25 40.625C8.25 39.8009 8.64691 38.9312 9.65614 37.9997C10.679 37.0557 12.1915 36.1895 14.0221 35.4561C17.6864 33.9882 22.1211 33.25 25 33.25V29.25C21.6211 29.25 16.6808 30.082 12.5346 31.743C10.4599 32.5741 8.45825 33.662 6.94323 35.0603C5.41461 36.4711 4.25 38.3318 4.25 40.625H8.25ZM25 33.25C27.8789 33.25 32.3136 33.9882 35.9779 35.4561C37.8085 36.1895 39.321 37.0557 40.3439 37.9997C41.3531 38.9312 41.75 39.8009 41.75 40.625H45.75C45.75 38.3318 44.5854 36.4711 43.0568 35.0603C41.5417 33.662 39.5401 32.5741 37.4654 31.743C33.3192 30.082 28.3789 29.25 25 29.25V33.25ZM41.75 40.625V41.5364H45.75V40.625H41.75ZM42.2505 40.2129C38.0332 44.9911 31.8692 48 25 48V52C33.0645 52 40.305 48.4619 45.2495 42.8598L42.2505 40.2129ZM25 48C18.1308 48 11.9668 44.9911 7.74948 40.2129L4.75052 42.8598C9.69497 48.4619 16.9355 52 25 52V48ZM17.625 19.7916C17.625 15.7165 20.9249 12.4166 25 12.4166V8.41663C18.7157 8.41663 13.625 13.5074 13.625 19.7916H17.625ZM25 27.1666C20.9249 27.1666 17.625 23.8667 17.625 19.7916H13.625C13.625 26.0759 18.7157 31.1666 25 31.1666V27.1666ZM32.375 19.7916C32.375 23.8667 29.0751 27.1666 25 27.1666V31.1666C31.2843 31.1666 36.375 26.0759 36.375 19.7916H32.375ZM25 12.4166C29.0751 12.4166 32.375 15.7165 32.375 19.7916H36.375C36.375 13.5074 31.2843 8.41663 25 8.41663V12.4166Z" fill="#AAAAAA" mask="url(#path-2-inside-1_531_1626)"/>
</g>
<defs>
<clipPath id="clip0_531_1626">
<rect width="50" height="50" fill="white"/>
</clipPath>
</defs>
</svg>
