<svg width="21" height="20" viewBox="0 0 21 20" fill="none" xmlns="http://www.w3.org/2000/svg">
<path d="M8.19928 17.039L8.19931 17.039L8.19564 17.0343C8.05281 16.8494 7.85354 16.7065 7.66111 16.6103C7.46956 16.5145 7.23469 16.44 7 16.44H5.5C3.01418 16.44 1 14.4319 1 11.96V4.98C1 2.5081 3.01418 0.5 5.5 0.5H15.5C17.9858 0.5 20 2.5081 20 4.98V11.96C20 14.4319 17.9858 16.44 15.5 16.44H14C13.5314 16.44 13.085 16.6649 12.8019 17.0375L12.8007 17.039L11.3007 19.029L11.3 19.03C11.0506 19.3626 10.7559 19.49 10.5 19.49C10.2441 19.49 9.94944 19.3626 9.7 19.03L9.69928 19.029L8.19928 17.039ZM5.5 12.25H11.5C12.1861 12.25 12.75 11.6861 12.75 11C12.75 10.3139 12.1861 9.75 11.5 9.75H5.5C4.81386 9.75 4.25 10.3139 4.25 11C4.25 11.6861 4.81386 12.25 5.5 12.25ZM5.5 7.25H15.5C16.1861 7.25 16.75 6.68614 16.75 6C16.75 5.31386 16.1861 4.75 15.5 4.75H5.5C4.81386 4.75 4.25 5.31386 4.25 6C4.25 6.68614 4.81386 7.25 5.5 7.25Z" fill="#6D0DB8" stroke="#6D0DB8"/>
</svg>
