<svg width="240" height="110" viewBox="0 0 240 110" fill="none" xmlns="http://www.w3.org/2000/svg">
<path fill-rule="evenodd" clip-rule="evenodd" d="M182.504 7.11785C173.242 7.15329 166.324 7.51503 167.13 7.92169C168.57 8.64923 168.568 8.69303 167.028 10.6143C166.167 11.6888 165.729 12.0619 166.054 11.4433C166.381 10.8248 166.193 9.44984 165.638 8.38896C164.433 6.08273 163.448 5.79694 164.119 7.94773C164.446 8.99884 164.087 8.96093 162.963 7.82836C161.136 5.98308 158.169 6.19716 157.219 8.2416C156.841 9.05426 156.616 8.84858 156.651 7.7217C156.695 6.31554 155.883 6.02103 153.356 6.52961C151.511 6.89886 145.061 7.42314 139.021 7.69252C132.981 7.9619 127.754 8.45314 127.405 8.78573C127.056 9.11829 122.004 9.21436 116.178 8.99815C106.617 8.64559 105.621 8.83226 105.952 10.913C106.275 12.94 106.202 12.9249 105.344 10.7836C104.085 7.642 101.833 7.55895 101.702 10.6493C101.62 12.5681 101.476 12.6588 100.98 11.1066C100.527 9.69171 98.389 9.05769 93.0534 8.75812C86.5465 8.39205 85.7489 8.61075 85.7657 10.747C85.7757 12.0661 85.2581 13.1272 84.6145 13.1035C83.8959 13.077 83.6481 12.2741 83.9723 11.0236C84.2618 9.90339 84.1581 8.97429 83.7421 8.95895C83.3253 8.94358 82.9407 10.0918 82.8874 11.5114C82.8004 13.8248 82.085 14.0876 75.9399 14.0543C72.1724 14.0346 68.1406 14.1752 66.9798 14.3681C65.82 14.5598 64.4246 14.1834 63.879 13.5314C63.2338 12.7578 63.8429 12.3649 65.6261 12.4032C67.4265 12.4422 68.0222 12.0529 67.365 11.2665C65.8977 9.5113 68.0363 8.42637 70.0265 9.91715C70.8643 10.5443 73.6632 11.0807 76.2464 11.1088C79.0855 11.1381 79.8895 10.8936 78.279 10.4888C76.3164 9.99558 75.9222 9.50264 76.7832 8.61734C77.6686 7.70689 77.479 7.37777 75.9997 7.25467C74.9263 7.16437 72.2954 6.84666 70.1532 6.54559C68.011 6.2459 65.893 6.34462 65.4465 6.76544C64.689 7.4791 62.9554 7.68384 56.5975 7.81263C55.1971 7.8405 54.0249 8.54572 53.9936 9.37937C53.9623 10.213 54.4482 10.5777 55.0727 10.1909C55.6981 9.80411 56.3416 10.224 56.5043 11.1251C56.711 12.2732 55.4462 12.7132 52.2815 12.5965C49.7971 12.5049 47.9447 11.9746 48.1645 11.4166C48.3851 10.86 49.6005 10.4415 50.8658 10.4881C52.1311 10.5348 53.1799 10.1101 53.198 9.54605C53.2161 8.98195 50.2473 8.31868 46.6011 8.07318C41.7981 7.74939 40.1026 8.0652 40.4493 9.21711C40.7132 10.0918 40.3687 9.94613 39.6854 8.89422C38.854 7.61615 37.7139 7.30406 36.2423 7.95437C35.0319 8.48821 33.5059 9.12829 32.8506 9.37691C31.5232 9.87764 14.5493 9.56286 12.1135 8.99052C8.93719 8.2442 8.50748 8.69716 9.45716 11.7863C10.2086 14.232 10.0985 14.9339 8.6929 16.6614C7.14116 18.5699 7.13312 18.6587 8.55035 18.2873C9.37528 18.0697 10.188 18.8234 10.3567 19.9605C10.5254 21.0976 10.397 21.5548 10.0719 20.9754C9.31956 19.6358 6.46973 23.7253 6.37368 26.281C6.33386 27.3405 5.68915 28.0761 4.94191 27.9142C2.26443 27.3344 2.03853 28.032 4.27743 29.9678C5.52888 31.0489 6.11139 31.9683 5.57106 32.01C5.03157 32.0504 4.54732 33.2046 4.49588 34.5735C4.42077 36.5721 4.93845 37.0079 7.12913 36.7884C8.62817 36.6367 10.069 37.2012 10.3303 38.0401C10.6483 39.0594 10.1275 39.3102 8.76078 38.7965C7.63577 38.3726 6.69272 38.6284 6.66505 39.3649C6.63737 40.1013 5.93533 40.3619 5.10455 39.9433C3.36457 39.0677 2.22126 42.6937 2.84984 47.0965C3.06622 48.611 3.20383 51.7003 3.15565 53.9617C3.06866 58.0475 3.70202 58.8015 6.92668 58.4489C7.68308 58.3671 8.27722 58.9771 8.24604 59.8066C8.21312 60.6827 7.27398 61.0429 6.00699 60.6672C3.79902 60.0128 3.14371 62.0722 4.33936 65.9092C4.61109 66.7842 4.37885 67.838 3.82219 68.252C3.26552 68.666 3.61544 68.6899 4.59856 68.3053C5.58247 67.9208 6.36453 68.1977 6.33742 68.9191C6.31026 69.6419 5.30956 70.6194 4.11321 71.0934C2.17126 71.8621 2.08296 72.1069 3.29187 73.3825C4.03603 74.168 5.15292 74.4956 5.77346 74.1114C8.12816 72.6534 7.42594 75.565 4.98395 77.3872L2.42355 79.2969L4.94894 79.8191C6.33824 80.1075 7.45122 80.9559 7.42308 81.7047C7.39489 82.4548 7.79499 82.6437 8.31172 82.1254C8.86597 81.5673 9.01726 81.7717 8.67987 82.6228C8.36576 83.4173 6.66421 84.4361 4.89705 84.8877C1.21878 85.8295 1.23194 86.917 4.92688 87.3863C6.32118 87.5625 7.56228 88.3773 7.68573 89.1974C7.82815 90.1376 7.01097 90.42 5.46826 89.9628C3.62511 89.4151 3.09972 89.7055 3.32836 91.1436C3.52536 92.3819 4.76962 93.0501 6.87998 93.0511C9.92376 93.0524 10.1199 93.2913 9.9865 96.8421C9.81658 101.364 11.3565 102.625 15.3043 101.199C16.8325 100.646 18.3501 100.105 18.6777 99.9947C19.0052 99.8848 19.3626 99.7513 19.4718 99.6991C19.5811 99.6469 21.9702 99.3786 24.78 99.1025C27.5899 98.8264 30.2192 98.0859 30.6225 97.4578C31.0293 96.8231 29.2226 96.4727 26.5661 96.6695C20.6294 97.1099 19.487 94.8361 25.1613 93.8747C33.3796 92.4835 38.6756 92.8762 39.5072 94.9411C40.3946 97.1451 50.2399 97.5699 53.5391 95.5463C54.6934 94.839 55.4708 94.9267 55.6 95.7799C55.7143 96.5326 56.7099 95.7934 57.8129 94.1371C59.1366 92.1503 59.9048 91.692 60.071 92.7906C60.3812 94.8308 65.646 95.2224 65.7216 93.2101C65.7581 92.2396 70.115 92.0754 79.0529 92.7052C91.3382 93.5722 92.3369 93.4596 92.4213 91.2146C92.48 89.6514 91.8887 88.7153 90.7581 88.5858C89.6993 88.4632 90.2402 87.928 92.1237 87.2353C94.162 86.4852 95.5014 86.5826 95.9894 87.5163C96.4971 88.4877 96.3857 88.9304 95.6405 88.903C94.7959 88.8718 94.7436 89.2414 95.4121 90.5203C96.4999 92.6015 99.3806 93.5658 99.4443 91.8712C99.4704 91.1758 98.8048 90.3836 97.9646 90.1127C96.9859 89.7956 96.6734 89.0274 97.095 87.9765C97.5521 86.8364 100.615 86.4394 107.108 86.6803C112.253 86.87 116.993 86.9858 117.641 86.9384C118.288 86.891 122.168 86.8107 126.261 86.7587C130.355 86.7082 134.512 86.2406 135.501 85.7191C136.535 85.1733 137.278 85.335 137.249 86.0975C137.219 86.9079 140.406 87.3078 145.433 87.1272C150.813 86.9335 153.648 87.3218 153.613 88.2485C153.555 89.7817 152.68 90.088 149.645 89.6375C148.575 89.4788 146.641 89.369 145.348 89.3926C144.055 89.4162 139.913 89.4417 136.146 89.4467C131.984 89.4536 129.381 89.9992 129.513 90.8375C129.718 92.1363 134.434 92.3418 165.12 92.3905C172.516 92.4027 174.873 91.9564 175.491 90.4289C175.964 89.2592 176.271 89.106 176.243 90.0549C176.207 91.2339 179.323 91.6325 187.992 91.5574C196.167 91.4847 200.223 91.9646 201.202 93.1179C202.32 94.4367 202.923 94.3685 204.103 92.7876C204.922 91.691 206.655 90.6432 207.954 90.4595C209.253 90.2743 210.685 89.6651 211.137 89.1033C211.589 88.5428 213.271 88.3403 214.874 88.6557C216.623 88.9985 217.811 88.6283 217.845 87.7317C217.877 86.8762 217.055 86.4867 215.921 86.8205C214.833 87.1409 213.962 86.8716 213.986 86.2228C214.01 85.5753 214.91 85.0766 215.985 85.1162C217.061 85.1559 217.962 84.623 217.988 83.9331C218.014 83.2418 219.729 82.1098 221.802 81.4172C226.585 79.817 230.118 77.6211 228.216 77.429C224.967 77.1035 227.743 73.2128 231.136 73.3379C232.372 73.3835 232.582 72.9965 231.962 71.8112C230.878 69.737 233.082 65.954 234.693 67.1238C235.311 67.5742 235.839 67.3442 235.866 66.616C235.893 65.8864 235.497 65.2741 234.985 65.2552C234.472 65.2363 234.77 64.3412 235.647 63.2673C236.693 61.9831 236.876 61.2852 236.18 61.2308C235.564 61.182 235.341 60.2979 235.649 59.1112C236.029 57.6393 235.64 57.0547 234.245 57.0032C233.183 56.9641 232.338 56.316 232.366 55.5632C232.394 54.8103 232.966 54.2145 233.637 54.2392C234.307 54.2639 234.662 53.6602 234.424 52.8975C234.186 52.1348 234.561 51.5318 235.257 51.5574C238.107 51.6625 235.407 48.8077 232.389 48.5237C230.46 48.3429 229.929 48.0245 231.094 47.7494C232.18 47.492 233.962 46.9587 235.054 46.563L237.038 45.8453L235.323 44.6032C232.811 42.7833 233.327 40.5365 236.259 40.524L238.805 40.5137L236.137 38.5675C234.67 37.4976 232.593 36.4985 231.522 36.3493C229.726 36.0981 229.7 35.9888 231.183 34.9606C232.067 34.3475 234.013 34.1465 235.506 34.5155L238.222 35.1859L235.542 33.5764C232.943 32.0153 232.919 31.9307 234.756 30.8073C236.324 29.8493 236.497 29.291 235.761 27.5737C235.009 25.8215 235.221 25.4811 237.124 25.3868C238.992 25.2939 238.849 25.0885 236.286 24.1798C234.586 23.577 233.905 22.9487 234.773 22.7847C235.642 22.6194 234.624 21.6305 232.506 20.5819C230.392 19.5348 229.368 18.6417 230.231 18.5967C231.586 18.5261 231.525 18.2428 229.791 16.5367C227.629 14.4104 219.458 11.4538 213.573 10.6693C211.578 10.4038 210.126 9.72935 210.347 9.17272C210.568 8.6161 209.234 8.03095 207.384 7.87362C205.534 7.7163 202.968 7.46814 201.681 7.32063C200.395 7.17312 191.765 7.08242 182.504 7.11785ZM184.96 9.48666C184.408 9.8474 183.528 9.81496 183.005 9.41457C182.482 9.01557 182.933 8.72104 184.008 8.7607C185.083 8.80035 185.512 9.12732 184.96 9.48666ZM159.428 11.2072C159.152 11.6521 158.475 11.6765 157.926 11.2601C157.318 10.8004 157.516 10.4828 158.429 10.4507C159.256 10.4222 159.705 10.7623 159.428 11.2072ZM169.543 12.951C169.266 13.3959 168.589 13.4203 168.04 13.0039C167.433 12.5442 167.63 12.2266 168.544 12.1945C169.37 12.166 169.82 12.5061 169.543 12.951ZM65.486 10.4845C65.2093 10.9293 64.5326 10.9537 63.9837 10.5373C63.3761 10.0777 63.5736 9.76006 64.4871 9.72795C65.3135 9.69949 65.7627 10.0396 65.486 10.4845ZM91.0897 11.9619C91.337 12.7564 90.7005 13.1908 89.5876 12.9867C88.5252 12.7926 87.8459 12.1548 88.0778 11.5698C88.6713 10.0701 90.5774 10.3186 91.0897 11.9619ZM94.8243 11.6459C94.2728 12.0066 93.393 11.9742 92.8693 11.5738C92.3463 11.1748 92.7975 10.8802 93.8727 10.9199C94.948 10.9596 95.3765 11.2865 94.8243 11.6459ZM62.4467 13.6568C62.4184 14.4096 62.0223 15.0119 61.5671 14.9951C61.112 14.9783 60.9795 14.3566 61.2737 13.6135C61.5679 12.8704 61.9633 12.2682 62.1533 12.2752C62.3433 12.2822 62.475 12.9039 62.4467 13.6568ZM24.9277 18.5774C24.5641 19.9814 24.0872 20.0652 22.9554 18.9241C22.1346 18.0947 20.95 17.7357 20.323 18.1238C19.6961 18.5119 19.2039 18.2717 19.2296 17.5887C19.2552 16.907 20.6559 16.4336 22.3419 16.5369C24.5999 16.6736 25.2813 17.2114 24.9277 18.5774ZM34.8698 18.1572C35.6948 19.1883 35.1664 19.4539 32.8746 19.1569C31.1601 18.9347 28.8617 19.146 27.7668 19.6279C26.672 20.1098 26.2698 20.1443 26.8735 19.706C27.8002 19.0315 27.8121 18.7167 26.9495 17.6855C26.2975 16.9062 27.3411 16.517 29.838 16.6091C31.9885 16.6884 34.2528 17.3846 34.8698 18.1572ZM39.5631 18.296C40.4713 19.4042 40.349 19.6574 38.9259 19.6227C37.9582 19.598 37.1888 18.9624 37.2171 18.2095C37.2816 16.4943 38.1113 16.5249 39.5631 18.296ZM169.289 87.8493C169.268 88.4133 167.403 88.8146 165.145 88.7396C162.887 88.6646 159.705 88.9365 158.074 89.3438C156.413 89.7582 155.131 89.5218 155.158 88.8031C155.185 88.0995 156.697 87.4247 158.519 87.3041C160.341 87.1834 161.906 86.967 161.996 86.8209C162.491 86.0263 169.322 86.9883 169.289 87.8493ZM172.926 88.3261C172.838 90.6737 172.86 90.6594 171.25 89.4884C169.602 88.2898 169.81 86.155 171.569 86.2199C172.358 86.249 172.969 87.1968 172.926 88.3261ZM176.372 86.9357C176.36 87.2314 175.792 87.8204 175.107 88.2448C174.393 88.6859 174.089 88.4443 174.391 87.6796C174.899 86.3948 176.413 85.8269 176.372 86.9357ZM108.098 90.8072C98.4886 91.3397 98.6324 91.7425 108.806 92.8004C116.749 93.6265 124.463 92.9295 124.521 91.3826C124.562 90.3067 120.027 90.1477 108.098 90.8072ZM125.294 91.6593C125.272 92.252 125.957 92.7625 126.817 92.7942C127.678 92.826 128.403 92.2742 128.43 91.5679C128.456 90.8615 127.771 90.351 126.906 90.4329C126.042 90.5148 125.316 91.0665 125.294 91.6593ZM193.678 95.2599C193.384 96.0029 193.713 96.6319 194.409 96.6576C195.104 96.6832 195.48 96.0802 195.242 95.3175C195.004 94.5548 194.676 93.9259 194.511 93.9198C194.347 93.9138 193.972 94.5168 193.678 95.2599ZM198.631 95.008C199.18 95.4244 199.857 95.4 200.133 94.9551C200.41 94.5102 199.961 94.1701 199.134 94.1986C198.221 94.2307 198.023 94.5483 198.631 95.008ZM57.7074 92.4444C57.4307 92.8893 56.754 92.9137 56.205 92.4973C55.5974 92.0376 55.7949 91.72 56.7084 91.6879C57.5348 91.6594 57.9841 91.9995 57.7074 92.4444ZM141.586 95.7062C138.229 97.2452 138.048 97.6895 140.281 98.9109C141.909 99.8016 142.897 99.6448 143.691 98.3705C144.617 96.8817 144.634 96.4533 143.795 95.8658C143.237 95.4765 142.244 95.4042 141.586 95.7062ZM53.5722 93.5215C51.6625 94.5765 40.6117 94.5775 40.6513 93.5234C40.6754 92.8828 43.7727 92.5227 47.5334 92.7203C51.2949 92.918 54.012 93.2786 53.5722 93.5215ZM146.11 97.4713C147.04 98.5831 150.108 98.1671 150.155 96.9214C150.165 96.634 149.03 96.3645 147.632 96.3239C145.903 96.2753 145.417 96.6425 146.11 97.4713ZM33.6774 97.1634C34.4253 97.5391 35.4818 97.5548 36.0253 97.1992C36.5688 96.8437 35.957 96.5374 34.6657 96.5172C33.3744 96.497 32.9296 96.7876 33.6774 97.1634Z" fill="white"/>
<path d="M104.551 40.3931C104.572 40.5597 104.509 40.6951 104.363 40.7993C104.238 40.9035 104.103 41.0076 103.957 41.1118C103.895 41.1951 103.801 41.2993 103.676 41.4243C103.488 41.5285 103.374 41.6014 103.332 41.6431C103.29 41.6639 103.238 41.6951 103.176 41.7368C103.092 41.8201 102.988 41.9035 102.863 41.9868C102.759 42.0493 102.655 42.1222 102.551 42.2056C102.363 42.3097 102.249 42.3931 102.207 42.4556C102.165 42.4972 102.124 42.5389 102.082 42.5806C102.04 42.6222 101.957 42.6743 101.832 42.7368C101.728 42.7993 101.655 42.8618 101.613 42.9243C101.53 43.1326 101.467 43.2472 101.426 43.2681C101.405 43.2889 101.395 43.3201 101.395 43.3618C101.311 43.5493 101.259 43.6639 101.238 43.7056C101.217 43.7264 101.207 43.7472 101.207 43.7681C101.186 43.8306 101.176 43.9035 101.176 43.9868C101.176 44.0701 101.165 44.1326 101.145 44.1743C101.145 44.2368 101.134 44.2993 101.113 44.3618C101.113 44.4035 101.103 44.4556 101.082 44.5181C101.061 44.6222 101.04 44.7368 101.02 44.8618C101.02 44.966 101.009 45.0806 100.988 45.2056C100.947 45.4347 100.915 45.5597 100.895 45.5806C100.874 45.6014 100.863 45.6326 100.863 45.6743C100.822 45.8826 100.801 46.0285 100.801 46.1118C100.78 46.1743 100.77 46.2368 100.77 46.2993C100.79 46.3618 100.801 46.4347 100.801 46.5181C100.759 46.6431 100.717 46.7681 100.676 46.8931C100.655 47.0181 100.634 47.1431 100.613 47.2681C100.572 47.4972 100.561 47.7264 100.582 47.9556C100.624 48.1847 100.655 48.4139 100.676 48.6431C100.697 48.8722 100.707 49.1222 100.707 49.3931C100.707 49.6431 100.707 49.8826 100.707 50.1118C100.686 50.4243 100.676 50.6222 100.676 50.7056C100.697 50.7681 100.707 50.841 100.707 50.9243C100.707 50.9868 100.697 51.0493 100.676 51.1118C100.676 51.1743 100.676 51.2472 100.676 51.3306C100.676 51.4556 100.686 51.591 100.707 51.7368C100.749 51.8826 100.78 52.0285 100.801 52.1743C100.822 52.3618 100.822 52.5597 100.801 52.7681C100.801 52.9556 100.811 53.1639 100.832 53.3931C100.853 53.5806 100.874 53.7785 100.895 53.9868C100.915 54.1743 100.926 54.3722 100.926 54.5806C100.947 54.6847 100.947 54.7889 100.926 54.8931C100.905 54.9972 100.895 55.1014 100.895 55.2056C100.895 55.3306 100.905 55.4556 100.926 55.5806C100.947 55.7056 100.967 55.8514 100.988 56.0181C100.988 56.1222 100.978 56.216 100.957 56.2993C100.957 56.3826 100.967 56.4972 100.988 56.6431C100.988 56.8722 100.999 57.0597 101.02 57.2056C101.04 57.3514 101.061 57.4972 101.082 57.6431C101.124 57.8931 101.155 58.1222 101.176 58.3306C101.217 58.5389 101.29 58.7472 101.395 58.9556C101.478 59.1222 101.551 59.2889 101.613 59.4556C101.697 59.6014 101.79 59.7576 101.895 59.9243C101.999 60.0701 102.061 60.1743 102.082 60.2368C102.103 60.2785 102.124 60.3201 102.145 60.3618C102.27 60.5285 102.415 60.6951 102.582 60.8618C102.77 61.0076 102.957 61.1639 103.145 61.3306C103.228 61.3722 103.29 61.4243 103.332 61.4868C103.395 61.5493 103.447 61.591 103.488 61.6118C103.676 61.6951 103.79 61.7472 103.832 61.7681C103.874 61.7889 103.915 61.8201 103.957 61.8618C104.02 61.8826 104.113 61.8931 104.238 61.8931C104.363 61.8931 104.478 61.9139 104.582 61.9556C104.728 61.9972 104.853 62.0389 104.957 62.0806C105.061 62.1014 105.186 62.1222 105.332 62.1431C105.582 62.1639 105.842 62.1847 106.113 62.2056C106.405 62.2056 106.697 62.1847 106.988 62.1431C107.155 62.1222 107.301 62.1014 107.426 62.0806C107.551 62.0597 107.686 62.0285 107.832 61.9868C107.895 61.9868 107.999 61.9764 108.145 61.9556C108.311 61.9139 108.457 61.8931 108.582 61.8931C108.707 61.8931 108.811 61.8931 108.895 61.8931C108.978 61.8722 109.072 61.8618 109.176 61.8618C109.405 61.8201 109.624 61.7889 109.832 61.7681C110.061 61.7472 110.29 61.716 110.52 61.6743C110.749 61.6118 110.957 61.5597 111.145 61.5181C111.332 61.4764 111.509 61.4139 111.676 61.3306C111.801 61.1014 111.842 60.8931 111.801 60.7056C111.78 60.5181 111.79 60.2785 111.832 59.9868C111.895 59.7785 111.915 59.6639 111.895 59.6431C111.895 59.6014 111.905 59.5597 111.926 59.5181C111.947 59.2889 111.947 59.0285 111.926 58.7368C111.926 58.4243 111.936 58.1535 111.957 57.9243C111.978 57.6535 111.978 57.3931 111.957 57.1431C111.936 56.8931 111.926 56.6431 111.926 56.3931C111.905 56.0806 111.884 55.7785 111.863 55.4868C111.842 55.1951 111.832 54.9347 111.832 54.7056C111.853 54.4139 111.853 54.1118 111.832 53.7993C111.832 53.4868 111.832 53.1535 111.832 52.7993C111.832 52.7576 111.842 52.6951 111.863 52.6118C111.884 52.5285 111.884 52.466 111.863 52.4243C111.863 52.3201 111.842 52.216 111.801 52.1118C111.78 52.0076 111.759 51.8931 111.738 51.7681C111.759 51.6222 111.749 51.4972 111.707 51.3931C111.686 51.2889 111.676 51.2056 111.676 51.1431C111.676 51.0389 111.686 50.9451 111.707 50.8618C111.749 50.7785 111.77 50.6951 111.77 50.6118C111.77 50.5076 111.749 50.4139 111.707 50.3306C111.686 50.2264 111.676 50.1222 111.676 50.0181C111.676 49.8514 111.686 49.7056 111.707 49.5806C111.749 49.4556 111.738 49.3201 111.676 49.1743C111.592 48.966 111.551 48.7889 111.551 48.6431C111.488 48.4139 111.436 48.1639 111.395 47.8931C111.353 47.6222 111.311 47.3514 111.27 47.0806C111.249 46.9139 111.238 46.8097 111.238 46.7681C111.259 46.7264 111.27 46.6847 111.27 46.6431C111.27 46.3722 111.259 46.2056 111.238 46.1431C111.238 46.0597 111.228 45.966 111.207 45.8618C111.207 45.6118 111.197 45.4764 111.176 45.4556C111.155 45.4139 111.145 45.3722 111.145 45.3306C111.124 45.2681 111.124 45.2056 111.145 45.1431C111.165 45.0597 111.176 44.9868 111.176 44.9243C111.176 44.8201 111.165 44.6431 111.145 44.3931C111.124 44.1222 111.092 43.9035 111.051 43.7368C110.988 43.5493 110.884 43.3826 110.738 43.2368C110.676 43.1326 110.603 43.0389 110.52 42.9556C110.457 42.8722 110.405 42.8097 110.363 42.7681C110.322 42.7264 110.259 42.7056 110.176 42.7056C110.113 42.7056 110.061 42.6847 110.02 42.6431C109.853 42.4556 109.676 42.3201 109.488 42.2368C109.322 42.1535 109.155 42.091 108.988 42.0493C108.905 42.0076 108.822 41.9764 108.738 41.9556C108.655 41.9347 108.561 41.9035 108.457 41.8618C108.353 41.8201 108.228 41.7889 108.082 41.7681C107.936 41.7264 107.842 41.6222 107.801 41.4556C107.988 41.3931 108.165 41.3618 108.332 41.3618C108.52 41.3618 108.728 41.341 108.957 41.2993C109.02 41.2993 109.072 41.2889 109.113 41.2681C109.176 41.2472 109.238 41.2368 109.301 41.2368H109.707C109.749 41.216 109.801 41.2056 109.863 41.2056C109.926 41.2056 109.988 41.1951 110.051 41.1743C110.155 41.1743 110.259 41.1639 110.363 41.1431C110.488 41.1014 110.603 41.0701 110.707 41.0493C110.936 41.0076 111.165 40.9972 111.395 41.0181C111.624 41.0181 111.842 41.0181 112.051 41.0181C112.217 41.0389 112.301 41.0389 112.301 41.0181C112.322 40.9972 112.353 40.9868 112.395 40.9868C112.749 40.9451 113.082 40.9035 113.395 40.8618C113.707 40.7993 113.999 40.7472 114.27 40.7056C114.374 40.6847 114.478 40.6847 114.582 40.7056C114.707 40.7056 114.822 40.6951 114.926 40.6743C115.155 40.6535 115.363 40.6326 115.551 40.6118C115.759 40.5701 115.999 40.5389 116.27 40.5181C116.457 40.5389 116.624 40.5285 116.77 40.4868C116.915 40.4451 117.061 40.4451 117.207 40.4868C117.436 40.5493 117.603 40.5701 117.707 40.5493C117.811 40.5076 117.915 40.5076 118.02 40.5493C117.978 40.6535 117.915 40.7368 117.832 40.7993C117.749 40.841 117.676 40.8826 117.613 40.9243C117.342 41.0076 117.186 41.0597 117.145 41.0806C116.915 41.2264 116.707 41.341 116.52 41.4243C116.353 41.5076 116.186 41.6014 116.02 41.7056C115.832 41.8722 115.707 41.9556 115.645 41.9556C115.603 41.9556 115.561 41.9764 115.52 42.0181C115.103 42.2681 114.801 42.4868 114.613 42.6743C114.384 42.841 114.186 43.0389 114.02 43.2681C113.853 43.4972 113.749 43.6639 113.707 43.7681C113.686 43.8722 113.624 43.966 113.52 44.0493C113.582 44.2368 113.613 44.4243 113.613 44.6118C113.613 44.7993 113.624 44.9972 113.645 45.2056C113.665 45.3722 113.676 45.5285 113.676 45.6743C113.697 45.7993 113.697 45.9451 113.676 46.1118C113.697 46.4868 113.728 46.7681 113.77 46.9556C113.811 47.1431 113.853 47.341 113.895 47.5493C113.936 47.716 113.947 47.8826 113.926 48.0493C113.926 48.216 113.936 48.3826 113.957 48.5493C113.957 48.6535 113.957 48.7576 113.957 48.8618C113.978 48.966 113.999 49.0701 114.02 49.1743C114.061 49.3826 114.082 49.5389 114.082 49.6431C114.124 49.8306 114.155 50.0181 114.176 50.2056C114.197 50.3931 114.207 50.591 114.207 50.7993C114.207 51.0285 114.186 51.2681 114.145 51.5181C114.103 51.7472 114.092 51.9868 114.113 52.2368C114.134 52.3201 114.155 52.3931 114.176 52.4556C114.197 52.5181 114.207 52.591 114.207 52.6743C114.207 52.7576 114.197 52.841 114.176 52.9243C114.176 52.9868 114.176 53.0701 114.176 53.1743C114.155 53.341 114.155 53.5285 114.176 53.7368C114.197 53.9451 114.197 54.1535 114.176 54.3618C114.134 54.5701 114.145 54.7576 114.207 54.9243L114.27 55.2681C114.332 55.3931 114.374 55.466 114.395 55.4868C114.415 55.5076 114.426 55.5389 114.426 55.5806C114.426 55.7681 114.436 55.8722 114.457 55.8931C114.478 55.8931 114.488 55.9035 114.488 55.9243C114.509 56.0076 114.52 56.091 114.52 56.1743C114.52 56.2368 114.53 56.3201 114.551 56.4243C114.592 56.7785 114.603 57.1847 114.582 57.6431C114.582 58.0806 114.582 58.4868 114.582 58.8618C114.582 58.9243 114.572 58.9972 114.551 59.0806C114.551 59.1431 114.551 59.216 114.551 59.2993C114.53 59.3618 114.53 59.4243 114.551 59.4868C114.572 59.5493 114.582 59.6118 114.582 59.6743C114.561 59.841 114.54 59.9868 114.52 60.1118C114.52 60.216 114.509 60.3514 114.488 60.5181C114.488 60.7056 114.478 60.8097 114.457 60.8306C114.457 60.8306 114.447 60.8514 114.426 60.8931C114.384 60.9556 114.363 61.0389 114.363 61.1431C114.363 61.2472 114.342 61.341 114.301 61.4243C114.259 61.591 114.228 61.7056 114.207 61.7681C114.165 61.9347 114.124 62.0597 114.082 62.1431C114.061 62.2056 114.02 62.2889 113.957 62.3931C113.915 62.4764 113.884 62.5493 113.863 62.6118C113.863 62.6743 113.842 62.7264 113.801 62.7681C113.697 62.9139 113.561 63.0493 113.395 63.1743C113.27 63.341 113.103 63.5076 112.895 63.6743C112.832 63.716 112.738 63.7785 112.613 63.8618C112.509 63.9451 112.405 64.0076 112.301 64.0493C112.197 64.091 112.103 64.1431 112.02 64.2056C111.936 64.2472 111.863 64.2889 111.801 64.3306C111.738 64.3514 111.676 64.3618 111.613 64.3618C111.551 64.3618 111.488 64.3722 111.426 64.3931C110.967 64.5597 110.53 64.6639 110.113 64.7056C109.717 64.7681 109.322 64.8306 108.926 64.8931C108.655 64.9347 108.384 64.966 108.113 64.9868C107.863 65.0076 107.613 65.0389 107.363 65.0806C106.988 65.1222 106.634 65.1847 106.301 65.2681C105.988 65.3722 105.613 65.4035 105.176 65.3618C105.051 65.341 104.915 65.3201 104.77 65.2993C104.624 65.2785 104.467 65.2472 104.301 65.2056C104.155 65.1847 104.02 65.1535 103.895 65.1118C103.79 65.091 103.676 65.0597 103.551 65.0181C103.217 64.9139 103.02 64.841 102.957 64.7993C102.915 64.7576 102.842 64.716 102.738 64.6743C102.634 64.6326 102.551 64.591 102.488 64.5493C102.217 64.2993 102.03 64.1014 101.926 63.9556C101.822 63.7889 101.717 63.6431 101.613 63.5181C101.509 63.4139 101.415 63.341 101.332 63.2993C101.27 63.2368 101.197 63.1639 101.113 63.0806C100.905 62.8097 100.77 62.6535 100.707 62.6118C100.686 62.5701 100.665 62.5181 100.645 62.4556C100.624 62.3931 100.592 62.341 100.551 62.2993C100.509 62.2368 100.467 62.1743 100.426 62.1118C100.405 62.0493 100.363 61.9868 100.301 61.9243C100.217 61.7576 100.155 61.6639 100.113 61.6431C100.072 61.6014 100.04 61.5701 100.02 61.5493C99.8737 61.2576 99.7695 61.0597 99.707 60.9556C99.6237 60.7472 99.5299 60.5806 99.4258 60.4556C99.4466 60.2889 99.4258 60.1535 99.3633 60.0493C99.3008 59.9243 99.2487 59.7889 99.207 59.6431C99.1654 59.5389 99.1445 59.4451 99.1445 59.3618C99.1654 59.2576 99.1758 59.1535 99.1758 59.0493C99.1549 58.8618 99.1445 58.6326 99.1445 58.3618C99.1445 58.0701 99.1654 57.7785 99.207 57.4868C99.207 57.4035 99.2174 57.3306 99.2383 57.2681C99.2591 57.1847 99.2695 57.091 99.2695 56.9868C99.2904 56.8826 99.3008 56.7993 99.3008 56.7368C99.3008 56.6535 99.3008 56.5701 99.3008 56.4868C99.3216 56.4451 99.3424 56.3931 99.3633 56.3306C99.4049 56.2472 99.4258 56.1743 99.4258 56.1118C99.4049 56.0076 99.4049 55.9347 99.4258 55.8931C99.4466 55.8514 99.457 55.8097 99.457 55.7681C99.4779 55.6014 99.4779 55.4347 99.457 55.2681C99.457 55.0806 99.4674 54.8931 99.4883 54.7056C99.5091 54.5389 99.5091 54.4035 99.4883 54.2993C99.4883 54.1743 99.4779 54.0597 99.457 53.9556C99.4362 53.8722 99.4154 53.7993 99.3945 53.7368C99.3945 53.6743 99.3945 53.6014 99.3945 53.5181C99.3737 53.4764 99.3737 53.4243 99.3945 53.3618C99.4154 53.2993 99.4258 53.2368 99.4258 53.1743C99.4258 52.9451 99.4049 52.7368 99.3633 52.5493C99.3216 52.3618 99.2799 52.1743 99.2383 51.9868C99.1966 51.7576 99.1654 51.5493 99.1445 51.3618C99.1445 51.1535 99.1341 50.9451 99.1133 50.7368C99.1133 50.5285 99.1029 50.3826 99.082 50.2993C99.0195 50.091 98.9883 49.9451 98.9883 49.8618C99.0091 49.7785 99.0091 49.6847 98.9883 49.5806C98.9466 49.4556 98.8945 49.3306 98.832 49.2056C98.7904 49.0597 98.7695 48.9243 98.7695 48.7993C98.7487 48.6951 98.7383 48.591 98.7383 48.4868C98.7591 48.3618 98.7695 48.2472 98.7695 48.1431C98.7487 47.9764 98.7174 47.8097 98.6758 47.6431C98.6549 47.4764 98.6445 47.3097 98.6445 47.1431C98.6445 46.8931 98.6237 46.716 98.582 46.6118C98.5612 46.4868 98.5508 46.3722 98.5508 46.2681C98.5091 46.0389 98.4987 45.8097 98.5195 45.5806C98.5404 45.3514 98.5195 45.1222 98.457 44.8931C98.3945 44.6639 98.3737 44.5076 98.3945 44.4243C98.4154 44.341 98.4049 44.2576 98.3633 44.1743C98.3216 44.091 98.2591 44.0389 98.1758 44.0181C98.0924 43.9972 97.9987 43.966 97.8945 43.9243C97.9154 43.841 97.9049 43.7681 97.8633 43.7056C97.8216 43.6431 97.7591 43.591 97.6758 43.5493C97.6133 43.5076 97.5404 43.4764 97.457 43.4556C97.3945 43.4347 97.332 43.3931 97.2695 43.3306C97.207 43.2472 97.1133 43.1743 96.9883 43.1118C96.8841 43.0493 96.7799 42.9764 96.6758 42.8931C96.5299 42.7681 96.4154 42.6951 96.332 42.6743C96.2487 42.6326 96.1549 42.591 96.0508 42.5493C95.9883 42.5076 95.9258 42.4556 95.8633 42.3931C95.8008 42.3306 95.7279 42.2681 95.6445 42.2056C95.6029 42.1639 95.5612 42.1222 95.5195 42.0806C95.4779 42.0181 95.4362 41.966 95.3945 41.9243C95.2904 41.716 95.2904 41.6118 95.3945 41.6118C95.4987 41.6118 95.582 41.6118 95.6445 41.6118C95.7487 41.6118 95.8529 41.6118 95.957 41.6118C96.0612 41.591 96.1549 41.5701 96.2383 41.5493C96.4466 41.5285 96.6549 41.5181 96.8633 41.5181C97.0716 41.4972 97.2904 41.4764 97.5195 41.4556C97.7279 41.4139 97.9258 41.3931 98.1133 41.3931C98.3216 41.3722 98.5195 41.3514 98.707 41.3306C98.8112 41.3306 98.9049 41.3201 98.9883 41.2993C99.0924 41.2785 99.1966 41.2681 99.3008 41.2681C99.4049 41.2472 99.4987 41.2472 99.582 41.2681C99.6654 41.2681 99.7591 41.2576 99.8633 41.2368C100.072 41.1951 100.27 41.1535 100.457 41.1118C100.645 41.0701 100.842 41.0285 101.051 40.9868C101.259 40.9451 101.395 40.9139 101.457 40.8931C101.52 40.8722 101.572 40.8618 101.613 40.8618C101.717 40.841 101.811 40.8306 101.895 40.8306C101.999 40.8306 102.103 40.8201 102.207 40.7993C102.436 40.7368 102.551 40.716 102.551 40.7368C102.551 40.7368 102.572 40.7264 102.613 40.7056C103.009 40.6222 103.363 40.5806 103.676 40.5806C104.009 40.5597 104.301 40.4972 104.551 40.3931ZM126.957 53.6118C126.811 53.5076 126.78 53.4243 126.863 53.3618C126.967 53.2785 127.04 53.1743 127.082 53.0493C127.145 52.7993 127.113 52.5701 126.988 52.3618C126.801 52.3618 126.634 52.4139 126.488 52.5181C126.363 52.6014 126.249 52.7056 126.145 52.8306C125.936 53.1431 125.79 53.4035 125.707 53.6118C125.603 54.0285 125.572 54.2681 125.613 54.3306C125.676 54.3931 125.79 54.4764 125.957 54.5806C126.249 54.7264 126.53 54.841 126.801 54.9243C127.072 55.0076 127.29 55.0181 127.457 54.9556C127.54 54.9347 127.634 54.8618 127.738 54.7368C127.842 54.6118 127.926 54.4972 127.988 54.3931C128.051 54.3097 128.124 54.216 128.207 54.1118C128.29 53.9868 128.363 53.8722 128.426 53.7681C128.467 53.6639 128.499 53.6014 128.52 53.5806C128.54 53.5389 128.561 53.4972 128.582 53.4556C128.645 53.1014 128.707 52.841 128.77 52.6743C128.832 52.5076 128.842 52.3097 128.801 52.0806C128.801 51.9764 128.78 51.841 128.738 51.6743C128.717 51.6118 128.707 51.5493 128.707 51.4868C128.707 51.4243 128.697 51.3722 128.676 51.3306C128.53 51.1431 128.447 51.0389 128.426 51.0181C128.426 50.9764 128.415 50.9451 128.395 50.9243C128.27 50.7576 128.186 50.6326 128.145 50.5493C128.124 50.4451 128.092 50.3618 128.051 50.2993C127.988 50.216 127.936 50.1431 127.895 50.0806C127.874 49.9972 127.842 49.9347 127.801 49.8931C127.717 49.8306 127.592 49.7681 127.426 49.7056C127.259 49.6431 127.092 49.6326 126.926 49.6743C126.634 49.7368 126.447 49.7889 126.363 49.8306C126.28 49.8722 126.186 49.9139 126.082 49.9556C125.999 49.9972 125.905 50.0181 125.801 50.0181C125.697 50.0181 125.592 50.0389 125.488 50.0806C125.384 50.1222 125.29 50.1743 125.207 50.2368C125.124 50.2993 125.03 50.3514 124.926 50.3931C124.801 50.4764 124.686 50.5389 124.582 50.5806C124.478 50.6222 124.395 50.6639 124.332 50.7056C124.186 50.7889 124.051 50.9035 123.926 51.0493C123.801 51.1951 123.665 51.3514 123.52 51.5181C123.353 51.7264 123.259 51.8514 123.238 51.8931C123.238 51.9347 123.217 51.9764 123.176 52.0181C123.134 52.0597 123.092 52.1118 123.051 52.1743C123.03 52.2368 122.999 52.2889 122.957 52.3306C122.874 52.4139 122.822 52.4868 122.801 52.5493C122.78 52.591 122.759 52.6326 122.738 52.6743C122.697 52.7576 122.645 52.8618 122.582 52.9868C122.54 53.1118 122.488 53.2264 122.426 53.3306C122.301 53.5806 122.207 53.7993 122.145 53.9868C122.103 54.1535 122.051 54.341 121.988 54.5493C121.947 54.6743 121.895 54.7889 121.832 54.8931C121.77 54.9972 121.728 55.1014 121.707 55.2056C121.665 55.4347 121.655 55.6743 121.676 55.9243C121.717 56.1743 121.738 56.4139 121.738 56.6431C121.738 56.8514 121.728 56.966 121.707 56.9868C121.707 57.0076 121.707 57.0389 121.707 57.0806C121.749 57.6014 121.749 58.2056 121.707 58.8931C121.686 59.5597 121.697 60.1326 121.738 60.6118C121.759 60.716 121.77 60.8306 121.77 60.9556C121.79 61.0597 121.811 61.1743 121.832 61.2993C121.832 61.4243 121.832 61.5493 121.832 61.6743C121.832 61.7993 121.853 61.8931 121.895 61.9556C121.957 62.1222 122.103 62.2993 122.332 62.4868C122.561 62.6535 122.759 62.7889 122.926 62.8931L123.27 63.1431C123.436 63.2264 123.54 63.2889 123.582 63.3306C123.645 63.3514 123.707 63.3826 123.77 63.4243C123.874 63.4868 123.988 63.5493 124.113 63.6118C124.238 63.6743 124.322 63.7889 124.363 63.9556C124.113 64.0597 123.853 64.1326 123.582 64.1743C123.332 64.216 123.04 64.2576 122.707 64.2993C122.54 64.3201 122.374 64.341 122.207 64.3618C122.061 64.3826 121.895 64.4035 121.707 64.4243C121.645 64.4243 121.572 64.4347 121.488 64.4556C121.405 64.4556 121.332 64.4556 121.27 64.4556C121.165 64.4556 121.072 64.4451 120.988 64.4243C120.905 64.4035 120.822 64.3826 120.738 64.3618C120.592 64.3618 120.447 64.3722 120.301 64.3931C120.155 64.4139 120.02 64.4035 119.895 64.3618C119.832 64.3618 119.77 64.3514 119.707 64.3306C119.645 64.3097 119.582 64.2889 119.52 64.2681C119.415 64.2264 119.311 64.2056 119.207 64.2056C119.124 64.2056 119.04 64.1847 118.957 64.1431C118.79 64.1014 118.603 64.0597 118.395 64.0181C118.186 63.9764 117.999 63.9347 117.832 63.8931C117.749 63.9556 117.676 63.9556 117.613 63.8931C117.572 63.8097 117.53 63.7472 117.488 63.7056C117.676 63.5806 117.801 63.5076 117.863 63.4868C117.947 63.466 118.009 63.4347 118.051 63.3931C118.259 63.2472 118.384 63.1535 118.426 63.1118C118.488 63.0493 118.551 62.9868 118.613 62.9243C118.801 62.8201 118.915 62.7368 118.957 62.6743C119.02 62.591 119.092 62.5076 119.176 62.4243C119.322 62.3201 119.405 62.2576 119.426 62.2368C119.467 62.216 119.509 62.1847 119.551 62.1431C119.717 62.0181 119.822 61.9139 119.863 61.8306C119.905 61.7472 119.957 61.6743 120.02 61.6118C119.978 61.5285 119.967 61.4451 119.988 61.3618C120.03 61.2576 120.051 61.1535 120.051 61.0493C120.051 61.0076 120.04 60.9556 120.02 60.8931C119.999 60.8306 119.999 60.7681 120.02 60.7056C120.02 60.6431 120.03 60.5806 120.051 60.5181C120.092 60.4347 120.124 60.3514 120.145 60.2681C120.145 60.1847 120.134 60.1118 120.113 60.0493C120.092 59.9868 120.082 59.9035 120.082 59.7993C120.082 59.6743 120.082 59.5389 120.082 59.3931C120.103 59.2472 120.103 59.091 120.082 58.9243C120.082 58.8618 120.072 58.7993 120.051 58.7368C120.051 58.6535 120.051 58.5806 120.051 58.5181C120.051 58.4139 120.061 58.3201 120.082 58.2368C120.124 58.1326 120.155 58.0285 120.176 57.9243C120.197 57.7368 120.207 57.5493 120.207 57.3618C120.207 57.1535 120.228 56.9972 120.27 56.8931C120.29 56.8514 120.29 56.7993 120.27 56.7368C120.27 56.6535 120.27 56.5701 120.27 56.4868C120.29 56.1951 120.28 55.9764 120.238 55.8306C120.217 55.6847 120.197 55.5493 120.176 55.4243C120.155 55.2993 120.134 55.1743 120.113 55.0493C120.113 54.9035 120.103 54.7576 120.082 54.6118C120.082 54.5076 120.072 54.4139 120.051 54.3306C120.03 54.2264 120.009 54.1222 119.988 54.0181C119.926 53.7889 119.863 53.5285 119.801 53.2368C119.759 52.9451 119.717 52.6639 119.676 52.3931C119.655 52.3306 119.624 52.216 119.582 52.0493C119.54 51.841 119.499 51.6639 119.457 51.5181C119.436 51.3514 119.395 51.1743 119.332 50.9868C119.29 50.8826 119.249 50.7785 119.207 50.6743C119.186 50.5493 119.155 50.4451 119.113 50.3618C119.072 50.3201 119.02 50.2785 118.957 50.2368C118.915 50.1951 118.853 50.1431 118.77 50.0806C118.728 50.0389 118.676 49.9972 118.613 49.9556C118.572 49.9139 118.53 49.8722 118.488 49.8306C118.217 49.7264 118.02 49.6326 117.895 49.5493C117.79 49.5076 117.686 49.4764 117.582 49.4556C117.478 49.4139 117.374 49.3722 117.27 49.3306C116.957 49.1431 116.78 49.0285 116.738 48.9868C116.53 48.8201 116.405 48.7368 116.363 48.7368C116.301 48.7368 116.27 48.6951 116.27 48.6118C116.311 48.5285 116.384 48.4868 116.488 48.4868C116.592 48.4868 116.686 48.4972 116.77 48.5181C116.853 48.5806 116.936 48.6118 117.02 48.6118C117.103 48.6118 117.165 48.6118 117.207 48.6118C117.29 48.6326 117.363 48.6535 117.426 48.6743C117.509 48.6951 117.603 48.7056 117.707 48.7056C117.79 48.7056 117.874 48.6951 117.957 48.6743C118.04 48.6535 118.134 48.6535 118.238 48.6743C118.447 48.6743 118.655 48.6847 118.863 48.7056C119.072 48.7264 119.28 48.7368 119.488 48.7368C119.551 48.7368 119.613 48.7368 119.676 48.7368C119.759 48.716 119.832 48.7056 119.895 48.7056C119.978 48.7056 120.061 48.716 120.145 48.7368C120.249 48.7576 120.342 48.7681 120.426 48.7681C120.509 48.7681 120.582 48.7576 120.645 48.7368C120.728 48.716 120.811 48.7056 120.895 48.7056C120.936 48.7056 120.988 48.716 121.051 48.7368C121.113 48.7368 121.176 48.7368 121.238 48.7368C121.342 48.7368 121.478 48.7368 121.645 48.7368C121.811 48.7368 121.947 48.7785 122.051 48.8618C122.072 49.0285 122.061 49.1743 122.02 49.2993C121.978 49.4243 121.947 49.5597 121.926 49.7056C121.905 49.9347 121.895 50.1639 121.895 50.3931C121.915 50.6222 121.926 50.841 121.926 51.0493C121.947 51.216 121.947 51.3826 121.926 51.5493C121.926 51.6951 121.905 51.8514 121.863 52.0181C121.842 52.0806 121.832 52.1951 121.832 52.3618C121.832 52.5076 121.822 52.6431 121.801 52.7681C121.926 52.6014 121.999 52.5181 122.02 52.5181C122.04 52.4972 122.061 52.466 122.082 52.4243L122.457 51.6431C122.499 51.6014 122.53 51.5597 122.551 51.5181C122.592 51.4556 122.624 51.3931 122.645 51.3306C122.749 51.1431 122.801 51.0076 122.801 50.9243C122.988 50.6951 123.103 50.5493 123.145 50.4868C123.186 50.4035 123.238 50.3201 123.301 50.2368C123.342 50.1743 123.395 50.1014 123.457 50.0181C123.52 49.9347 123.582 49.8514 123.645 49.7681C123.79 49.6014 123.895 49.4764 123.957 49.3931C124.04 49.2889 124.113 49.1951 124.176 49.1118C124.363 48.966 124.551 48.8618 124.738 48.7993C124.822 48.6951 124.926 48.6118 125.051 48.5493C125.197 48.4868 125.342 48.4243 125.488 48.3618C125.676 48.2576 125.79 48.216 125.832 48.2368C125.874 48.2368 125.926 48.2264 125.988 48.2056C126.113 48.1639 126.259 48.1222 126.426 48.0806C126.592 48.0181 126.801 48.0076 127.051 48.0493C127.155 48.0701 127.27 48.1222 127.395 48.2056C127.52 48.2889 127.645 48.3618 127.77 48.4243C127.832 48.466 127.947 48.5285 128.113 48.6118C128.197 48.6535 128.27 48.6847 128.332 48.7056C128.415 48.7056 128.478 48.7264 128.52 48.7681C128.749 48.9764 128.915 49.1222 129.02 49.2056C129.145 49.2889 129.249 49.3722 129.332 49.4556C129.499 49.5597 129.655 49.6639 129.801 49.7681C129.967 49.8722 130.092 49.9764 130.176 50.0806C130.217 50.1222 130.238 50.1743 130.238 50.2368C130.259 50.2993 130.29 50.3514 130.332 50.3931C130.478 50.6014 130.561 50.7993 130.582 50.9868C130.624 51.1535 130.655 51.3201 130.676 51.4868C130.717 51.7785 130.728 52.0389 130.707 52.2681C130.707 52.4972 130.686 52.7264 130.645 52.9556C130.582 53.1847 130.551 53.3306 130.551 53.3931C130.572 53.4347 130.572 53.4764 130.551 53.5181C130.53 53.5806 130.499 53.6431 130.457 53.7056C130.436 53.7472 130.415 53.7993 130.395 53.8618C130.374 53.9451 130.363 54.0181 130.363 54.0806C130.363 54.1431 130.353 54.2056 130.332 54.2681C130.29 54.3514 130.238 54.4347 130.176 54.5181C130.113 54.5806 130.061 54.6535 130.02 54.7368C129.957 54.8826 129.895 54.9764 129.832 55.0181C129.79 55.0597 129.77 55.1222 129.77 55.2056C129.603 55.2889 129.467 55.3826 129.363 55.4868C129.28 55.5701 129.176 55.6639 129.051 55.7681C128.947 55.8722 128.853 55.9451 128.77 55.9868C128.707 56.0285 128.655 56.0493 128.613 56.0493C128.592 56.0285 128.52 56.0285 128.395 56.0493C128.29 56.0701 128.228 56.091 128.207 56.1118C128.207 56.1326 128.134 56.1326 127.988 56.1118C127.905 56.091 127.811 56.0701 127.707 56.0493C127.603 56.0285 127.499 56.0076 127.395 55.9868C127.332 55.966 127.27 55.966 127.207 55.9868C127.145 55.9868 127.092 55.9764 127.051 55.9556C126.759 55.8306 126.561 55.7681 126.457 55.7681C126.353 55.7472 126.249 55.716 126.145 55.6743C126.04 55.6535 125.957 55.6326 125.895 55.6118C125.853 55.5701 125.78 55.5285 125.676 55.4868C125.53 55.4451 125.353 55.3826 125.145 55.2993C124.957 55.216 124.842 55.1326 124.801 55.0493C124.759 54.9868 124.738 54.9243 124.738 54.8618C124.759 54.7785 124.759 54.6847 124.738 54.5806C124.697 54.2472 124.697 53.9347 124.738 53.6431C124.759 53.5597 124.77 53.4764 124.77 53.3931C124.77 53.2889 124.78 53.1847 124.801 53.0806C124.822 53.0181 124.853 52.9556 124.895 52.8931C124.936 52.8306 124.967 52.7681 124.988 52.7056C125.051 52.5389 125.092 52.4556 125.113 52.4556C125.134 52.4347 125.145 52.4139 125.145 52.3931C125.186 52.2681 125.29 52.1431 125.457 52.0181C125.624 51.8931 125.738 51.8201 125.801 51.7993C125.884 51.7576 126.04 51.716 126.27 51.6743C126.52 51.6535 126.738 51.6535 126.926 51.6743C127.009 51.6951 127.082 51.7368 127.145 51.7993C127.228 51.8618 127.311 51.9139 127.395 51.9556C127.436 51.9972 127.499 52.0389 127.582 52.0806C127.665 52.1014 127.728 52.1535 127.77 52.2368C127.811 52.4243 127.79 52.5806 127.707 52.7056C127.645 52.8306 127.572 52.9451 127.488 53.0493C127.447 53.1118 127.405 53.1743 127.363 53.2368C127.342 53.2993 127.311 53.3514 127.27 53.3931C127.228 53.4347 127.186 53.4972 127.145 53.5806C127.124 53.6431 127.061 53.6535 126.957 53.6118ZM148.582 40.8931C148.54 41.1847 148.488 41.3306 148.426 41.3306C148.363 41.3306 148.311 41.3514 148.27 41.3931C148.207 41.4972 148.134 41.5806 148.051 41.6431C147.967 41.6847 147.884 41.7576 147.801 41.8618L147.488 42.1118C147.342 42.2368 147.207 42.3722 147.082 42.5181C146.978 42.6639 146.842 42.7889 146.676 42.8931C146.634 42.9972 146.582 43.0806 146.52 43.1431C146.478 43.2056 146.426 43.2681 146.363 43.3306C146.384 43.5806 146.374 43.7472 146.332 43.8306C146.311 43.8931 146.301 43.9451 146.301 43.9868C146.301 44.0701 146.322 44.216 146.363 44.4243C146.363 44.5701 146.374 44.716 146.395 44.8618C146.436 44.9868 146.467 45.1326 146.488 45.2993C146.53 45.4243 146.551 45.5597 146.551 45.7056C146.572 45.8306 146.603 45.9451 146.645 46.0493C146.77 46.341 146.842 46.5389 146.863 46.6431C146.884 46.7264 146.915 46.8201 146.957 46.9243L147.082 47.3306C147.082 47.4972 147.092 47.6118 147.113 47.6743C147.134 47.716 147.155 47.7576 147.176 47.7993C147.217 47.966 147.259 48.1326 147.301 48.2993C147.363 48.466 147.447 48.6118 147.551 48.7368C147.592 48.9243 147.634 49.1118 147.676 49.2993C147.738 49.4868 147.811 49.6639 147.895 49.8306C147.915 50.1014 147.936 50.2993 147.957 50.4243C147.999 50.5493 148.04 50.6639 148.082 50.7681C148.124 50.8931 148.155 51.0076 148.176 51.1118C148.217 51.216 148.27 51.3201 148.332 51.4243C148.395 51.6535 148.478 51.8722 148.582 52.0806C148.624 52.2264 148.665 52.3306 148.707 52.3931C148.749 52.4347 148.78 52.4868 148.801 52.5493L148.957 53.0181C148.999 53.1431 149.04 53.2681 149.082 53.3931C149.124 53.4972 149.165 53.6118 149.207 53.7368C149.332 53.9243 149.395 54.0597 149.395 54.1431C149.415 54.2264 149.447 54.2993 149.488 54.3618C149.53 54.5076 149.582 54.6326 149.645 54.7368C149.707 54.841 149.77 54.9764 149.832 55.1431C149.895 55.3306 149.957 55.5181 150.02 55.7056C150.082 55.8931 150.155 56.0806 150.238 56.2681C150.322 56.4347 150.395 56.591 150.457 56.7368C150.499 56.7993 150.52 56.8722 150.52 56.9556C150.52 57.0181 150.54 57.0701 150.582 57.1118C150.665 57.341 150.728 57.5181 150.77 57.6431C150.832 57.7472 150.884 57.8618 150.926 57.9868C151.009 58.1743 151.061 58.3306 151.082 58.4556C151.103 58.5597 151.134 58.6535 151.176 58.7368C151.238 58.841 151.29 58.9451 151.332 59.0493L151.488 59.3618C151.592 59.5285 151.645 59.6535 151.645 59.7368C151.645 59.7993 151.665 59.8722 151.707 59.9556C151.811 60.1014 151.863 60.2056 151.863 60.2681C151.863 60.3306 151.874 60.3931 151.895 60.4556C151.936 60.5389 151.978 60.6118 152.02 60.6743C152.061 60.7368 152.103 60.8097 152.145 60.8931C152.27 61.1431 152.363 61.3097 152.426 61.3931C152.488 61.4764 152.54 61.5597 152.582 61.6431C152.77 61.9347 152.926 62.1326 153.051 62.2368C153.217 62.3201 153.342 62.4139 153.426 62.5181C153.509 62.6014 153.603 62.6743 153.707 62.7368C153.874 62.841 153.978 62.9243 154.02 62.9868C154.29 63.1326 154.467 63.2264 154.551 63.2681C154.697 63.4139 154.79 63.4868 154.832 63.4868C154.874 63.4868 154.915 63.4972 154.957 63.5181C155.061 63.5597 155.176 63.6118 155.301 63.6743C155.447 63.716 155.572 63.7576 155.676 63.7993C155.78 63.841 155.863 63.8722 155.926 63.8931C156.009 63.9139 156.103 63.9347 156.207 63.9556C156.29 63.9764 156.374 63.9868 156.457 63.9868C156.561 63.966 156.655 63.9972 156.738 64.0806C156.551 64.1847 156.457 64.2472 156.457 64.2681C156.457 64.2889 156.436 64.2993 156.395 64.2993C156.332 64.2993 156.259 64.2889 156.176 64.2681C156.092 64.2472 155.999 64.2368 155.895 64.2368C155.707 64.216 155.499 64.2264 155.27 64.2681C155.061 64.3097 154.842 64.341 154.613 64.3618C154.467 64.3826 154.311 64.3931 154.145 64.3931C153.999 64.3931 153.842 64.4035 153.676 64.4243C153.363 64.4243 153.134 64.4347 152.988 64.4556C152.863 64.4764 152.717 64.4868 152.551 64.4868C152.467 64.4868 152.395 64.4972 152.332 64.5181C152.29 64.5389 152.249 64.5597 152.207 64.5806C151.978 64.6014 151.749 64.6014 151.52 64.5806C151.29 64.5806 151.072 64.591 150.863 64.6118C150.738 64.6118 150.613 64.6222 150.488 64.6431C150.363 64.6639 150.238 64.6743 150.113 64.6743C149.822 64.6951 149.54 64.7056 149.27 64.7056C148.999 64.7264 148.728 64.7472 148.457 64.7681C148.332 64.7681 148.207 64.7576 148.082 64.7368C147.957 64.7368 147.832 64.7472 147.707 64.7681C147.499 64.7889 147.301 64.8097 147.113 64.8306C146.926 64.8722 146.738 64.8826 146.551 64.8618C146.447 64.8618 146.353 64.8514 146.27 64.8306C146.207 64.8097 146.124 64.7993 146.02 64.7993C145.957 64.7993 145.895 64.7993 145.832 64.7993C145.77 64.8201 145.707 64.8306 145.645 64.8306C145.353 64.8097 145.103 64.8097 144.895 64.8306C144.707 64.8722 144.53 64.8826 144.363 64.8618C144.051 64.8618 143.79 64.7993 143.582 64.6743C143.686 64.4243 143.77 64.2889 143.832 64.2681C143.895 64.2472 143.967 64.216 144.051 64.1743C144.197 64.1118 144.342 64.0493 144.488 63.9868C144.655 63.9243 144.822 63.8514 144.988 63.7681C145.092 63.7472 145.249 63.6951 145.457 63.6118C145.707 63.466 145.915 63.3722 146.082 63.3306C146.186 63.2889 146.28 63.2368 146.363 63.1743C146.467 63.1118 146.572 63.0597 146.676 63.0181C146.738 62.9764 146.801 62.9556 146.863 62.9556C146.926 62.9556 146.978 62.9347 147.02 62.8931C147.249 62.7472 147.374 62.6847 147.395 62.7056C147.436 62.7056 147.478 62.6951 147.52 62.6743C147.665 62.591 147.749 62.5285 147.77 62.4868C147.811 62.4243 147.853 62.3722 147.895 62.3306C147.999 62.3306 148.072 62.3097 148.113 62.2681C148.176 62.2056 148.228 62.1535 148.27 62.1118C148.436 61.9868 148.551 61.8931 148.613 61.8306C148.634 61.7056 148.665 61.5806 148.707 61.4556C148.749 61.3097 148.759 61.1535 148.738 60.9868C148.613 60.7785 148.551 60.6639 148.551 60.6431C148.572 60.6222 148.572 60.591 148.551 60.5493C148.467 60.4035 148.426 60.2889 148.426 60.2056C148.426 60.1014 148.415 59.9972 148.395 59.8931C148.332 59.6431 148.301 59.4972 148.301 59.4556C148.301 59.3931 148.29 59.341 148.27 59.2993C148.228 59.1951 148.176 59.091 148.113 58.9868C148.072 58.8618 148.03 58.7472 147.988 58.6431C147.926 58.3931 147.874 58.2264 147.832 58.1431C147.811 58.0389 147.78 57.9347 147.738 57.8306C147.592 57.6847 147.447 57.6014 147.301 57.5806C147.176 57.5597 147.04 57.5285 146.895 57.4868C146.645 57.4243 146.467 57.3931 146.363 57.3931C146.259 57.3931 146.145 57.3931 146.02 57.3931C145.874 57.3722 145.728 57.3514 145.582 57.3306C145.457 57.2889 145.322 57.2681 145.176 57.2681C145.134 57.2681 145.072 57.2785 144.988 57.2993C144.905 57.2993 144.822 57.2993 144.738 57.2993C144.384 57.3201 144.051 57.341 143.738 57.3618C143.447 57.3618 143.092 57.3618 142.676 57.3618H142.332C142.207 57.341 142.072 57.341 141.926 57.3618C141.697 57.3826 141.551 57.3826 141.488 57.3618C141.426 57.341 141.363 57.3201 141.301 57.2993C140.947 57.2576 140.603 57.2576 140.27 57.2993L139.895 57.3931C139.728 57.4139 139.561 57.4243 139.395 57.4243C139.249 57.4243 139.103 57.4243 138.957 57.4243C138.79 57.4243 138.645 57.4139 138.52 57.3931C138.395 57.3722 138.259 57.3722 138.113 57.3931C137.947 57.4139 137.78 57.4451 137.613 57.4868C137.447 57.5076 137.301 57.5285 137.176 57.5493C137.134 57.7368 137.072 57.9451 136.988 58.1743C136.926 58.3826 136.884 58.6118 136.863 58.8618C136.863 58.9243 136.863 58.9868 136.863 59.0493C136.884 59.1118 136.895 59.1847 136.895 59.2681C136.895 59.3722 136.874 59.466 136.832 59.5493C136.811 59.6118 136.822 59.6951 136.863 59.7993C136.884 59.9868 136.936 60.1743 137.02 60.3618C136.957 60.6326 136.926 60.8201 136.926 60.9243C136.947 61.0285 136.957 61.1326 136.957 61.2368C136.936 61.4035 136.915 61.5806 136.895 61.7681C136.895 61.9347 136.936 62.091 137.02 62.2368C137.061 62.3201 137.124 62.4243 137.207 62.5493C137.29 62.6535 137.384 62.7472 137.488 62.8306C137.592 62.9139 137.728 62.9868 137.895 63.0493C138.061 63.1118 138.207 63.1847 138.332 63.2681C138.478 63.3931 138.572 63.466 138.613 63.4868C138.676 63.4868 138.738 63.5076 138.801 63.5493C138.947 63.6118 139.113 63.6951 139.301 63.7993C139.488 63.9035 139.655 64.0076 139.801 64.1118C139.863 64.1535 139.936 64.1847 140.02 64.2056C140.103 64.2056 140.134 64.2576 140.113 64.3618C139.905 64.4868 139.759 64.5389 139.676 64.5181C139.613 64.4972 139.54 64.4868 139.457 64.4868C139.353 64.5076 139.249 64.5181 139.145 64.5181C139.061 64.5181 138.967 64.5389 138.863 64.5806C138.78 64.5806 138.697 64.591 138.613 64.6118C138.551 64.6535 138.467 64.6743 138.363 64.6743C137.863 64.6535 137.426 64.6535 137.051 64.6743C136.676 64.716 136.311 64.7472 135.957 64.7681C135.749 64.7681 135.54 64.7576 135.332 64.7368C135.124 64.716 134.915 64.6951 134.707 64.6743C134.478 64.6535 134.259 64.6535 134.051 64.6743C133.842 64.716 133.634 64.7264 133.426 64.7056C133.342 64.7056 133.259 64.6951 133.176 64.6743C133.113 64.6535 133.03 64.6431 132.926 64.6431C132.842 64.6431 132.759 64.6535 132.676 64.6743C132.613 64.6951 132.54 64.7056 132.457 64.7056C132.228 64.7056 132.113 64.6951 132.113 64.6743C132.113 64.6743 132.103 64.6743 132.082 64.6743C131.978 64.6951 131.874 64.716 131.77 64.7368C131.686 64.7576 131.592 64.7681 131.488 64.7681C131.322 64.7681 131.165 64.7472 131.02 64.7056C130.895 64.6847 130.77 64.6743 130.645 64.6743C130.54 64.6743 130.436 64.6743 130.332 64.6743C130.228 64.6951 130.124 64.7056 130.02 64.7056C129.957 64.7264 129.874 64.7472 129.77 64.7681C129.645 64.7889 129.53 64.7993 129.426 64.7993C129.176 64.6118 129.103 64.5076 129.207 64.4868C129.29 64.4868 129.353 64.466 129.395 64.4243C129.645 64.2576 129.78 64.1639 129.801 64.1431C130.03 63.9972 130.155 63.9139 130.176 63.8931C130.363 63.7056 130.54 63.5806 130.707 63.5181C130.853 63.4556 130.978 63.4035 131.082 63.3618C131.311 63.2368 131.457 63.1639 131.52 63.1431C131.582 63.1014 131.655 63.0597 131.738 63.0181C131.801 62.9764 131.863 62.9451 131.926 62.9243C132.009 62.9035 132.082 62.8722 132.145 62.8306C132.27 62.7472 132.374 62.6535 132.457 62.5493C132.54 62.4451 132.655 62.3514 132.801 62.2681C132.842 62.1014 132.905 61.966 132.988 61.8618C133.072 61.7576 133.155 61.6535 133.238 61.5493C133.342 61.3826 133.384 61.2993 133.363 61.2993C133.363 61.2785 133.374 61.2576 133.395 61.2368C133.436 61.1951 133.478 61.1222 133.52 61.0181C133.582 60.9139 133.603 60.8097 133.582 60.7056C133.77 60.4347 133.905 60.2264 133.988 60.0806C134.072 59.9139 134.134 59.7472 134.176 59.5806C134.217 59.3306 134.249 59.1951 134.27 59.1743C134.29 59.1535 134.311 59.1222 134.332 59.0806C134.415 58.8722 134.488 58.6431 134.551 58.3931C134.613 58.1222 134.697 57.8722 134.801 57.6431C134.842 57.5389 134.874 57.4347 134.895 57.3306C134.936 57.2264 134.978 57.091 135.02 56.9243C135.082 56.6743 135.134 56.5285 135.176 56.4868C135.217 56.4243 135.249 56.3514 135.27 56.2681C135.311 56.1847 135.322 56.1118 135.301 56.0493C135.28 55.966 135.29 55.8826 135.332 55.7993L135.551 55.4243C135.592 55.3618 135.624 55.3097 135.645 55.2681C135.686 55.2056 135.728 55.1431 135.77 55.0806C135.811 54.9764 135.842 54.8826 135.863 54.7993C135.884 54.716 135.915 54.6222 135.957 54.5181C136.103 54.2681 136.186 54.1014 136.207 54.0181C136.228 53.9347 136.259 53.841 136.301 53.7368C136.342 53.6326 136.384 53.5181 136.426 53.3931C136.467 53.2681 136.478 53.1222 136.457 52.9556C136.561 52.8514 136.634 52.7056 136.676 52.5181C136.738 52.3306 136.811 52.1535 136.895 51.9868C136.936 51.9243 136.967 51.8826 136.988 51.8618C137.03 51.8201 137.051 51.7472 137.051 51.6431C137.072 51.5389 137.072 51.4451 137.051 51.3618C137.03 51.2785 136.999 51.1847 136.957 51.0806C136.999 50.9764 137.03 50.8826 137.051 50.7993C137.092 50.716 137.124 50.6222 137.145 50.5181C137.228 50.3722 137.28 50.2681 137.301 50.2056C137.342 50.1431 137.384 50.0806 137.426 50.0181C137.488 49.8722 137.572 49.7056 137.676 49.5181C137.717 49.4347 137.749 49.3514 137.77 49.2681C137.811 49.1639 137.853 49.0597 137.895 48.9556C138.02 48.7472 138.082 48.6222 138.082 48.5806C138.082 48.5181 138.092 48.466 138.113 48.4243C138.197 48.2576 138.28 48.091 138.363 47.9243C138.447 47.7576 138.53 47.591 138.613 47.4243C138.655 47.3201 138.686 47.2264 138.707 47.1431C138.728 47.0597 138.759 46.9764 138.801 46.8931C138.842 46.7889 138.884 46.7056 138.926 46.6431C138.967 46.5597 138.999 46.466 139.02 46.3618C139.061 46.2785 139.072 46.2056 139.051 46.1431C139.051 46.0597 139.072 45.9764 139.113 45.8931C139.113 45.8514 139.124 45.7993 139.145 45.7368C139.165 45.6743 139.186 45.6118 139.207 45.5493C139.436 45.1326 139.592 44.841 139.676 44.6743C139.78 44.4868 139.895 44.2681 140.02 44.0181C140.061 43.8931 140.103 43.7681 140.145 43.6431C140.207 43.4972 140.228 43.3826 140.207 43.2993C140.165 43.1951 140.072 43.1326 139.926 43.1118C139.801 43.0701 139.697 43.0181 139.613 42.9556C139.384 42.9972 139.155 42.9972 138.926 42.9556C138.717 42.8931 138.509 42.8306 138.301 42.7681C138.072 42.7056 137.801 42.6743 137.488 42.6743C137.176 42.6743 136.842 42.6639 136.488 42.6431C136.322 42.6431 136.145 42.6431 135.957 42.6431C135.77 42.6222 135.592 42.6222 135.426 42.6431C135.217 42.6847 135.02 42.7472 134.832 42.8306C134.645 42.8931 134.467 42.9451 134.301 42.9868C133.947 43.091 133.592 43.216 133.238 43.3618C133.03 43.5076 132.926 43.591 132.926 43.6118C132.926 43.6326 132.905 43.6535 132.863 43.6743C132.676 43.841 132.561 43.966 132.52 44.0493C132.478 44.1118 132.426 44.1639 132.363 44.2056C132.28 44.4347 132.238 44.6431 132.238 44.8306C132.238 45.0181 132.249 45.2472 132.27 45.5181C132.27 45.6014 132.259 45.6847 132.238 45.7681C132.238 45.8514 132.249 45.9347 132.27 46.0181C132.27 46.1014 132.301 46.216 132.363 46.3618C132.426 46.5076 132.478 46.6326 132.52 46.7368C132.561 46.7993 132.655 46.8826 132.801 46.9868C132.884 47.1743 132.957 47.2993 133.02 47.3618C133.082 47.4243 133.145 47.4972 133.207 47.5806C133.311 47.6847 133.374 47.7681 133.395 47.8306C133.436 47.8931 133.52 47.966 133.645 48.0493C133.936 48.1326 134.113 48.1639 134.176 48.1431C134.238 48.1222 134.322 48.091 134.426 48.0493C134.592 48.0076 134.728 47.966 134.832 47.9243C134.936 47.8826 135.061 47.7993 135.207 47.6743C135.249 47.6326 135.301 47.591 135.363 47.5493C135.447 47.5076 135.509 47.466 135.551 47.4243C135.592 47.3826 135.613 47.3306 135.613 47.2681C135.634 47.2056 135.665 47.1535 135.707 47.1118C135.811 46.7785 135.79 46.5389 135.645 46.3931C135.52 46.2472 135.395 46.1222 135.27 46.0181C135.04 45.8722 134.884 45.8201 134.801 45.8618C134.738 45.8826 134.676 45.9139 134.613 45.9556C134.53 45.9764 134.457 46.0076 134.395 46.0493C134.353 46.0701 134.311 46.1014 134.27 46.1431L133.863 46.3306C133.676 46.2889 133.54 46.2889 133.457 46.3306C133.478 46.1431 133.54 45.9347 133.645 45.7056C133.79 45.5181 133.874 45.4243 133.895 45.4243C134.061 45.2993 134.176 45.2264 134.238 45.2056C134.322 45.1847 134.395 45.1535 134.457 45.1118C134.52 45.0701 134.572 45.0493 134.613 45.0493C134.655 45.0285 134.728 44.9972 134.832 44.9556C134.915 44.9347 134.988 44.9139 135.051 44.8931C135.113 44.8722 135.186 44.8722 135.27 44.8931C135.499 44.9139 135.686 45.0181 135.832 45.2056C135.999 45.3722 136.165 45.5076 136.332 45.6118C136.415 45.7785 136.52 45.9347 136.645 46.0806C136.77 46.2264 136.832 46.4035 136.832 46.6118C136.77 46.966 136.717 47.1743 136.676 47.2368C136.634 47.2993 136.572 47.3618 136.488 47.4243C136.426 47.466 136.342 47.5389 136.238 47.6431C136.155 47.7056 136.072 47.7785 135.988 47.8618C135.926 47.9451 135.853 48.0181 135.77 48.0806C135.54 48.2681 135.436 48.3618 135.457 48.3618C135.27 48.466 135.155 48.5389 135.113 48.5806C135.072 48.6014 135.03 48.6326 134.988 48.6743C134.801 48.8201 134.676 48.8931 134.613 48.8931C134.572 48.8931 134.53 48.9035 134.488 48.9243C134.384 49.0076 134.301 49.0493 134.238 49.0493C134.176 49.0493 134.092 49.0597 133.988 49.0806C133.905 49.1014 133.842 49.1222 133.801 49.1431C133.759 49.1639 133.686 49.1535 133.582 49.1118C133.436 49.091 133.311 49.0389 133.207 48.9556C133.103 48.8722 132.999 48.8097 132.895 48.7681C132.79 48.6639 132.686 48.591 132.582 48.5493C132.499 48.5076 132.426 48.4556 132.363 48.3931C132.238 48.2472 132.103 48.1014 131.957 47.9556C131.832 47.8097 131.717 47.6535 131.613 47.4868C131.551 47.341 131.478 47.1951 131.395 47.0493C131.332 46.9035 131.28 46.7576 131.238 46.6118C131.197 46.4451 131.165 46.2681 131.145 46.0806C131.124 45.8722 131.103 45.6535 131.082 45.4243C131.061 45.1951 131.04 44.9972 131.02 44.8306C131.02 44.6431 131.04 44.4556 131.082 44.2681C131.103 44.1847 131.124 44.1014 131.145 44.0181C131.186 43.9347 131.217 43.841 131.238 43.7368C131.259 43.6535 131.259 43.5701 131.238 43.4868C131.238 43.4035 131.249 43.3306 131.27 43.2681C131.332 43.1639 131.426 43.0597 131.551 42.9556C131.697 42.8306 131.822 42.716 131.926 42.6118C131.967 42.5701 131.999 42.5285 132.02 42.4868C132.04 42.4243 132.082 42.3722 132.145 42.3306C132.29 42.2056 132.415 42.1326 132.52 42.1118C132.645 42.0701 132.759 42.0285 132.863 41.9868C132.967 41.9451 133.051 41.9035 133.113 41.8618C133.197 41.7993 133.29 41.7472 133.395 41.7056C133.707 41.6639 133.936 41.6222 134.082 41.5806C134.249 41.5389 134.395 41.5076 134.52 41.4868C134.624 41.466 134.728 41.466 134.832 41.4868C134.957 41.4868 135.072 41.4868 135.176 41.4868C135.238 41.4868 135.301 41.4764 135.363 41.4556C135.447 41.4347 135.53 41.4139 135.613 41.3931C135.926 41.3722 136.259 41.3722 136.613 41.3931C136.967 41.3931 137.28 41.3931 137.551 41.3931C137.717 41.3931 137.874 41.3931 138.02 41.3931C138.186 41.3722 138.353 41.3618 138.52 41.3618C138.707 41.3618 138.895 41.3826 139.082 41.4243C139.27 41.4451 139.488 41.4556 139.738 41.4556C139.822 41.4347 139.895 41.4347 139.957 41.4556C140.02 41.4556 140.082 41.4556 140.145 41.4556C140.311 41.4556 140.478 41.466 140.645 41.4868C140.832 41.4868 141.009 41.4868 141.176 41.4868C141.447 41.4868 141.738 41.4868 142.051 41.4868C142.384 41.466 142.697 41.4764 142.988 41.5181C143.051 41.5389 143.134 41.5493 143.238 41.5493C143.363 41.5285 143.467 41.5181 143.551 41.5181H144.176C144.447 41.4972 144.624 41.4764 144.707 41.4556C144.79 41.4347 144.874 41.4139 144.957 41.3931C145.061 41.3722 145.165 41.3722 145.27 41.3931C145.374 41.3931 145.478 41.3826 145.582 41.3618C145.832 41.3201 146.072 41.2785 146.301 41.2368C146.53 41.1743 146.759 41.1014 146.988 41.0181C147.072 40.9972 147.155 40.9868 147.238 40.9868C147.322 40.966 147.415 40.9451 147.52 40.9243C147.645 40.9035 147.801 40.9035 147.988 40.9243C148.051 40.841 148.145 40.8097 148.27 40.8306C148.395 40.8514 148.499 40.8722 148.582 40.8931ZM144.551 48.7056L144.27 48.0493C144.207 47.8826 144.145 47.716 144.082 47.5493C144.02 47.3826 143.957 47.216 143.895 47.0493C143.874 46.9868 143.853 46.9243 143.832 46.8618C143.811 46.7993 143.79 46.7472 143.77 46.7056C143.728 46.5597 143.697 46.4243 143.676 46.2993C143.655 46.1743 143.624 46.0597 143.582 45.9556C143.561 45.8722 143.509 45.7681 143.426 45.6431C143.342 45.3722 143.259 45.1535 143.176 44.9868C143.072 44.716 143.02 44.5806 143.02 44.5806C142.874 44.3931 142.728 44.2785 142.582 44.2368C142.395 44.3201 142.28 44.3826 142.238 44.4243C142.217 44.466 142.207 44.4972 142.207 44.5181C142.165 44.5597 142.113 44.6118 142.051 44.6743C142.009 44.716 141.967 44.7576 141.926 44.7993C141.884 44.8618 141.853 44.9347 141.832 45.0181C141.832 45.0806 141.811 45.1639 141.77 45.2681C141.686 45.3306 141.603 45.4139 141.52 45.5181C141.436 45.6222 141.374 45.716 141.332 45.7993L141.02 46.1431C140.874 46.5389 140.79 46.7681 140.77 46.8306C140.624 47.1014 140.53 47.3201 140.488 47.4868C140.447 47.6326 140.395 47.7785 140.332 47.9243C140.311 48.091 140.28 48.1847 140.238 48.2056C140.217 48.2264 140.207 48.2472 140.207 48.2681C140.165 48.3306 140.134 48.4035 140.113 48.4868C140.113 48.5493 140.103 48.6118 140.082 48.6743C140.061 48.7368 140.051 48.8097 140.051 48.8931C140.051 48.9556 140.04 49.0181 140.02 49.0806C139.874 49.3097 139.78 49.5076 139.738 49.6743C139.717 49.8201 139.676 49.9347 139.613 50.0181C139.572 50.0806 139.53 50.1535 139.488 50.2368C139.467 50.3201 139.447 50.3826 139.426 50.4243C139.259 50.9035 139.113 51.3514 138.988 51.7681C138.863 52.1639 138.728 52.5285 138.582 52.8618C138.54 52.966 138.488 53.0701 138.426 53.1743C138.363 53.2785 138.311 53.3826 138.27 53.4868C138.228 53.591 138.207 53.6847 138.207 53.7681C138.207 53.8514 138.186 53.9347 138.145 54.0181C138.124 54.1014 138.092 54.1847 138.051 54.2681C138.009 54.3306 137.967 54.4139 137.926 54.5181C137.863 54.6847 137.822 54.8722 137.801 55.0806C137.78 55.2681 137.759 55.4556 137.738 55.6431C137.967 55.7264 138.207 55.7576 138.457 55.7368C138.707 55.6951 138.957 55.6951 139.207 55.7368C139.374 55.7576 139.53 55.7993 139.676 55.8618C139.822 55.9035 139.967 55.9347 140.113 55.9556C140.259 55.9764 140.415 55.9764 140.582 55.9556C140.77 55.9347 140.957 55.9347 141.145 55.9556C141.29 55.9556 141.436 55.966 141.582 55.9868C141.728 56.0076 141.874 56.0181 142.02 56.0181C142.165 56.0181 142.29 56.0076 142.395 55.9868C142.52 55.966 142.655 55.9556 142.801 55.9556C142.905 55.9556 143.009 55.966 143.113 55.9868C143.217 55.9868 143.322 55.9868 143.426 55.9868C143.676 55.9868 143.926 55.9868 144.176 55.9868C144.426 55.966 144.686 55.9451 144.957 55.9243C145.249 55.8826 145.551 55.841 145.863 55.7993C146.197 55.7368 146.447 55.6535 146.613 55.5493C146.655 55.1118 146.613 54.716 146.488 54.3618C146.363 54.0076 146.249 53.6431 146.145 53.2681C146.145 53.2264 146.145 53.1743 146.145 53.1118C146.145 53.0285 146.134 52.966 146.113 52.9243C145.988 52.6743 145.915 52.4972 145.895 52.3931C145.895 52.2889 145.884 52.1847 145.863 52.0806C145.842 52.0389 145.811 51.966 145.77 51.8618C145.749 51.7368 145.738 51.6535 145.738 51.6118C145.759 51.4451 145.749 51.3201 145.707 51.2368C145.686 51.1535 145.665 51.0597 145.645 50.9556C145.603 50.7889 145.572 50.6222 145.551 50.4556C145.551 50.2889 145.52 50.1535 145.457 50.0493L145.176 49.7681C145.113 49.6847 145.051 49.6118 144.988 49.5493C144.947 49.466 144.895 49.3931 144.832 49.3306C144.832 49.2056 144.79 49.1014 144.707 49.0181C144.645 48.9139 144.592 48.8097 144.551 48.7056ZM164.238 53.6118C164.092 53.5076 164.061 53.4243 164.145 53.3618C164.249 53.2785 164.322 53.1743 164.363 53.0493C164.426 52.7993 164.395 52.5701 164.27 52.3618C164.082 52.3618 163.915 52.4139 163.77 52.5181C163.645 52.6014 163.53 52.7056 163.426 52.8306C163.217 53.1431 163.072 53.4035 162.988 53.6118C162.884 54.0285 162.853 54.2681 162.895 54.3306C162.957 54.3931 163.072 54.4764 163.238 54.5806C163.53 54.7264 163.811 54.841 164.082 54.9243C164.353 55.0076 164.572 55.0181 164.738 54.9556C164.822 54.9347 164.915 54.8618 165.02 54.7368C165.124 54.6118 165.207 54.4972 165.27 54.3931C165.332 54.3097 165.405 54.216 165.488 54.1118C165.572 53.9868 165.645 53.8722 165.707 53.7681C165.749 53.6639 165.78 53.6014 165.801 53.5806C165.822 53.5389 165.842 53.4972 165.863 53.4556C165.926 53.1014 165.988 52.841 166.051 52.6743C166.113 52.5076 166.124 52.3097 166.082 52.0806C166.082 51.9764 166.061 51.841 166.02 51.6743C165.999 51.6118 165.988 51.5493 165.988 51.4868C165.988 51.4243 165.978 51.3722 165.957 51.3306C165.811 51.1431 165.728 51.0389 165.707 51.0181C165.707 50.9764 165.697 50.9451 165.676 50.9243C165.551 50.7576 165.467 50.6326 165.426 50.5493C165.405 50.4451 165.374 50.3618 165.332 50.2993C165.27 50.216 165.217 50.1431 165.176 50.0806C165.155 49.9972 165.124 49.9347 165.082 49.8931C164.999 49.8306 164.874 49.7681 164.707 49.7056C164.54 49.6431 164.374 49.6326 164.207 49.6743C163.915 49.7368 163.728 49.7889 163.645 49.8306C163.561 49.8722 163.467 49.9139 163.363 49.9556C163.28 49.9972 163.186 50.0181 163.082 50.0181C162.978 50.0181 162.874 50.0389 162.77 50.0806C162.665 50.1222 162.572 50.1743 162.488 50.2368C162.405 50.2993 162.311 50.3514 162.207 50.3931C162.082 50.4764 161.967 50.5389 161.863 50.5806C161.759 50.6222 161.676 50.6639 161.613 50.7056C161.467 50.7889 161.332 50.9035 161.207 51.0493C161.082 51.1951 160.947 51.3514 160.801 51.5181C160.634 51.7264 160.54 51.8514 160.52 51.8931C160.52 51.9347 160.499 51.9764 160.457 52.0181C160.415 52.0597 160.374 52.1118 160.332 52.1743C160.311 52.2368 160.28 52.2889 160.238 52.3306C160.155 52.4139 160.103 52.4868 160.082 52.5493C160.061 52.591 160.04 52.6326 160.02 52.6743C159.978 52.7576 159.926 52.8618 159.863 52.9868C159.822 53.1118 159.77 53.2264 159.707 53.3306C159.582 53.5806 159.488 53.7993 159.426 53.9868C159.384 54.1535 159.332 54.341 159.27 54.5493C159.228 54.6743 159.176 54.7889 159.113 54.8931C159.051 54.9972 159.009 55.1014 158.988 55.2056C158.947 55.4347 158.936 55.6743 158.957 55.9243C158.999 56.1743 159.02 56.4139 159.02 56.6431C159.02 56.8514 159.009 56.966 158.988 56.9868C158.988 57.0076 158.988 57.0389 158.988 57.0806C159.03 57.6014 159.03 58.2056 158.988 58.8931C158.967 59.5597 158.978 60.1326 159.02 60.6118C159.04 60.716 159.051 60.8306 159.051 60.9556C159.072 61.0597 159.092 61.1743 159.113 61.2993C159.113 61.4243 159.113 61.5493 159.113 61.6743C159.113 61.7993 159.134 61.8931 159.176 61.9556C159.238 62.1222 159.384 62.2993 159.613 62.4868C159.842 62.6535 160.04 62.7889 160.207 62.8931L160.551 63.1431C160.717 63.2264 160.822 63.2889 160.863 63.3306C160.926 63.3514 160.988 63.3826 161.051 63.4243C161.155 63.4868 161.27 63.5493 161.395 63.6118C161.52 63.6743 161.603 63.7889 161.645 63.9556C161.395 64.0597 161.134 64.1326 160.863 64.1743C160.613 64.216 160.322 64.2576 159.988 64.2993C159.822 64.3201 159.655 64.341 159.488 64.3618C159.342 64.3826 159.176 64.4035 158.988 64.4243C158.926 64.4243 158.853 64.4347 158.77 64.4556C158.686 64.4556 158.613 64.4556 158.551 64.4556C158.447 64.4556 158.353 64.4451 158.27 64.4243C158.186 64.4035 158.103 64.3826 158.02 64.3618C157.874 64.3618 157.728 64.3722 157.582 64.3931C157.436 64.4139 157.301 64.4035 157.176 64.3618C157.113 64.3618 157.051 64.3514 156.988 64.3306C156.926 64.3097 156.863 64.2889 156.801 64.2681C156.697 64.2264 156.592 64.2056 156.488 64.2056C156.405 64.2056 156.322 64.1847 156.238 64.1431C156.072 64.1014 155.884 64.0597 155.676 64.0181C155.467 63.9764 155.28 63.9347 155.113 63.8931C155.03 63.9556 154.957 63.9556 154.895 63.8931C154.853 63.8097 154.811 63.7472 154.77 63.7056C154.957 63.5806 155.082 63.5076 155.145 63.4868C155.228 63.466 155.29 63.4347 155.332 63.3931C155.54 63.2472 155.665 63.1535 155.707 63.1118C155.77 63.0493 155.832 62.9868 155.895 62.9243C156.082 62.8201 156.197 62.7368 156.238 62.6743C156.301 62.591 156.374 62.5076 156.457 62.4243C156.603 62.3201 156.686 62.2576 156.707 62.2368C156.749 62.216 156.79 62.1847 156.832 62.1431C156.999 62.0181 157.103 61.9139 157.145 61.8306C157.186 61.7472 157.238 61.6743 157.301 61.6118C157.259 61.5285 157.249 61.4451 157.27 61.3618C157.311 61.2576 157.332 61.1535 157.332 61.0493C157.332 61.0076 157.322 60.9556 157.301 60.8931C157.28 60.8306 157.28 60.7681 157.301 60.7056C157.301 60.6431 157.311 60.5806 157.332 60.5181C157.374 60.4347 157.405 60.3514 157.426 60.2681C157.426 60.1847 157.415 60.1118 157.395 60.0493C157.374 59.9868 157.363 59.9035 157.363 59.7993C157.363 59.6743 157.363 59.5389 157.363 59.3931C157.384 59.2472 157.384 59.091 157.363 58.9243C157.363 58.8618 157.353 58.7993 157.332 58.7368C157.332 58.6535 157.332 58.5806 157.332 58.5181C157.332 58.4139 157.342 58.3201 157.363 58.2368C157.405 58.1326 157.436 58.0285 157.457 57.9243C157.478 57.7368 157.488 57.5493 157.488 57.3618C157.488 57.1535 157.509 56.9972 157.551 56.8931C157.572 56.8514 157.572 56.7993 157.551 56.7368C157.551 56.6535 157.551 56.5701 157.551 56.4868C157.572 56.1951 157.561 55.9764 157.52 55.8306C157.499 55.6847 157.478 55.5493 157.457 55.4243C157.436 55.2993 157.415 55.1743 157.395 55.0493C157.395 54.9035 157.384 54.7576 157.363 54.6118C157.363 54.5076 157.353 54.4139 157.332 54.3306C157.311 54.2264 157.29 54.1222 157.27 54.0181C157.207 53.7889 157.145 53.5285 157.082 53.2368C157.04 52.9451 156.999 52.6639 156.957 52.3931C156.936 52.3306 156.905 52.216 156.863 52.0493C156.822 51.841 156.78 51.6639 156.738 51.5181C156.717 51.3514 156.676 51.1743 156.613 50.9868C156.572 50.8826 156.53 50.7785 156.488 50.6743C156.467 50.5493 156.436 50.4451 156.395 50.3618C156.353 50.3201 156.301 50.2785 156.238 50.2368C156.197 50.1951 156.134 50.1431 156.051 50.0806C156.009 50.0389 155.957 49.9972 155.895 49.9556C155.853 49.9139 155.811 49.8722 155.77 49.8306C155.499 49.7264 155.301 49.6326 155.176 49.5493C155.072 49.5076 154.967 49.4764 154.863 49.4556C154.759 49.4139 154.655 49.3722 154.551 49.3306C154.238 49.1431 154.061 49.0285 154.02 48.9868C153.811 48.8201 153.686 48.7368 153.645 48.7368C153.582 48.7368 153.551 48.6951 153.551 48.6118C153.592 48.5285 153.665 48.4868 153.77 48.4868C153.874 48.4868 153.967 48.4972 154.051 48.5181C154.134 48.5806 154.217 48.6118 154.301 48.6118C154.384 48.6118 154.447 48.6118 154.488 48.6118C154.572 48.6326 154.645 48.6535 154.707 48.6743C154.79 48.6951 154.884 48.7056 154.988 48.7056C155.072 48.7056 155.155 48.6951 155.238 48.6743C155.322 48.6535 155.415 48.6535 155.52 48.6743C155.728 48.6743 155.936 48.6847 156.145 48.7056C156.353 48.7264 156.561 48.7368 156.77 48.7368C156.832 48.7368 156.895 48.7368 156.957 48.7368C157.04 48.716 157.113 48.7056 157.176 48.7056C157.259 48.7056 157.342 48.716 157.426 48.7368C157.53 48.7576 157.624 48.7681 157.707 48.7681C157.79 48.7681 157.863 48.7576 157.926 48.7368C158.009 48.716 158.092 48.7056 158.176 48.7056C158.217 48.7056 158.27 48.716 158.332 48.7368C158.395 48.7368 158.457 48.7368 158.52 48.7368C158.624 48.7368 158.759 48.7368 158.926 48.7368C159.092 48.7368 159.228 48.7785 159.332 48.8618C159.353 49.0285 159.342 49.1743 159.301 49.2993C159.259 49.4243 159.228 49.5597 159.207 49.7056C159.186 49.9347 159.176 50.1639 159.176 50.3931C159.197 50.6222 159.207 50.841 159.207 51.0493C159.228 51.216 159.228 51.3826 159.207 51.5493C159.207 51.6951 159.186 51.8514 159.145 52.0181C159.124 52.0806 159.113 52.1951 159.113 52.3618C159.113 52.5076 159.103 52.6431 159.082 52.7681C159.207 52.6014 159.28 52.5181 159.301 52.5181C159.322 52.4972 159.342 52.466 159.363 52.4243L159.738 51.6431C159.78 51.6014 159.811 51.5597 159.832 51.5181C159.874 51.4556 159.905 51.3931 159.926 51.3306C160.03 51.1431 160.082 51.0076 160.082 50.9243C160.27 50.6951 160.384 50.5493 160.426 50.4868C160.467 50.4035 160.52 50.3201 160.582 50.2368C160.624 50.1743 160.676 50.1014 160.738 50.0181C160.801 49.9347 160.863 49.8514 160.926 49.7681C161.072 49.6014 161.176 49.4764 161.238 49.3931C161.322 49.2889 161.395 49.1951 161.457 49.1118C161.645 48.966 161.832 48.8618 162.02 48.7993C162.103 48.6951 162.207 48.6118 162.332 48.5493C162.478 48.4868 162.624 48.4243 162.77 48.3618C162.957 48.2576 163.072 48.216 163.113 48.2368C163.155 48.2368 163.207 48.2264 163.27 48.2056C163.395 48.1639 163.54 48.1222 163.707 48.0806C163.874 48.0181 164.082 48.0076 164.332 48.0493C164.436 48.0701 164.551 48.1222 164.676 48.2056C164.801 48.2889 164.926 48.3618 165.051 48.4243C165.113 48.466 165.228 48.5285 165.395 48.6118C165.478 48.6535 165.551 48.6847 165.613 48.7056C165.697 48.7056 165.759 48.7264 165.801 48.7681C166.03 48.9764 166.197 49.1222 166.301 49.2056C166.426 49.2889 166.53 49.3722 166.613 49.4556C166.78 49.5597 166.936 49.6639 167.082 49.7681C167.249 49.8722 167.374 49.9764 167.457 50.0806C167.499 50.1222 167.52 50.1743 167.52 50.2368C167.54 50.2993 167.572 50.3514 167.613 50.3931C167.759 50.6014 167.842 50.7993 167.863 50.9868C167.905 51.1535 167.936 51.3201 167.957 51.4868C167.999 51.7785 168.009 52.0389 167.988 52.2681C167.988 52.4972 167.967 52.7264 167.926 52.9556C167.863 53.1847 167.832 53.3306 167.832 53.3931C167.853 53.4347 167.853 53.4764 167.832 53.5181C167.811 53.5806 167.78 53.6431 167.738 53.7056C167.717 53.7472 167.697 53.7993 167.676 53.8618C167.655 53.9451 167.645 54.0181 167.645 54.0806C167.645 54.1431 167.634 54.2056 167.613 54.2681C167.572 54.3514 167.52 54.4347 167.457 54.5181C167.395 54.5806 167.342 54.6535 167.301 54.7368C167.238 54.8826 167.176 54.9764 167.113 55.0181C167.072 55.0597 167.051 55.1222 167.051 55.2056C166.884 55.2889 166.749 55.3826 166.645 55.4868C166.561 55.5701 166.457 55.6639 166.332 55.7681C166.228 55.8722 166.134 55.9451 166.051 55.9868C165.988 56.0285 165.936 56.0493 165.895 56.0493C165.874 56.0285 165.801 56.0285 165.676 56.0493C165.572 56.0701 165.509 56.091 165.488 56.1118C165.488 56.1326 165.415 56.1326 165.27 56.1118C165.186 56.091 165.092 56.0701 164.988 56.0493C164.884 56.0285 164.78 56.0076 164.676 55.9868C164.613 55.966 164.551 55.966 164.488 55.9868C164.426 55.9868 164.374 55.9764 164.332 55.9556C164.04 55.8306 163.842 55.7681 163.738 55.7681C163.634 55.7472 163.53 55.716 163.426 55.6743C163.322 55.6535 163.238 55.6326 163.176 55.6118C163.134 55.5701 163.061 55.5285 162.957 55.4868C162.811 55.4451 162.634 55.3826 162.426 55.2993C162.238 55.216 162.124 55.1326 162.082 55.0493C162.04 54.9868 162.02 54.9243 162.02 54.8618C162.04 54.7785 162.04 54.6847 162.02 54.5806C161.978 54.2472 161.978 53.9347 162.02 53.6431C162.04 53.5597 162.051 53.4764 162.051 53.3931C162.051 53.2889 162.061 53.1847 162.082 53.0806C162.103 53.0181 162.134 52.9556 162.176 52.8931C162.217 52.8306 162.249 52.7681 162.27 52.7056C162.332 52.5389 162.374 52.4556 162.395 52.4556C162.415 52.4347 162.426 52.4139 162.426 52.3931C162.467 52.2681 162.572 52.1431 162.738 52.0181C162.905 51.8931 163.02 51.8201 163.082 51.7993C163.165 51.7576 163.322 51.716 163.551 51.6743C163.801 51.6535 164.02 51.6535 164.207 51.6743C164.29 51.6951 164.363 51.7368 164.426 51.7993C164.509 51.8618 164.592 51.9139 164.676 51.9556C164.717 51.9972 164.78 52.0389 164.863 52.0806C164.947 52.1014 165.009 52.1535 165.051 52.2368C165.092 52.4243 165.072 52.5806 164.988 52.7056C164.926 52.8306 164.853 52.9451 164.77 53.0493C164.728 53.1118 164.686 53.1743 164.645 53.2368C164.624 53.2993 164.592 53.3514 164.551 53.3931C164.509 53.4347 164.467 53.4972 164.426 53.5806C164.405 53.6431 164.342 53.6535 164.238 53.6118ZM172.832 42.1743C172.853 42.2785 172.842 42.4035 172.801 42.5493C172.759 42.6743 172.728 42.7993 172.707 42.9243C172.686 43.0076 172.676 43.091 172.676 43.1743C172.676 43.2368 172.655 43.3097 172.613 43.3931C172.592 43.4764 172.572 43.5597 172.551 43.6431C172.551 43.7264 172.54 43.8201 172.52 43.9243C172.499 44.091 172.488 44.2681 172.488 44.4556C172.509 44.6431 172.509 44.8201 172.488 44.9868C172.467 45.1326 172.447 45.2681 172.426 45.3931C172.405 45.5181 172.374 45.6431 172.332 45.7681C172.29 45.9972 172.249 46.2368 172.207 46.4868C172.186 46.7368 172.155 46.9972 172.113 47.2681C172.113 47.4139 172.103 47.5493 172.082 47.6743C172.061 47.7993 172.04 47.9347 172.02 48.0806C171.999 48.3097 171.988 48.5389 171.988 48.7681C171.988 48.9764 171.957 49.1743 171.895 49.3618C172.249 49.3826 172.603 49.3826 172.957 49.3618C173.332 49.341 173.728 49.3514 174.145 49.3931C174.249 49.4139 174.332 49.4347 174.395 49.4556C174.457 49.4556 174.53 49.466 174.613 49.4868C175.03 49.5285 175.426 49.5597 175.801 49.5806C176.197 49.5806 176.582 49.6118 176.957 49.6743C176.936 49.7785 176.884 49.8514 176.801 49.8931C176.717 49.9139 176.624 49.9451 176.52 49.9868C176.353 50.0493 176.176 50.091 175.988 50.1118C175.801 50.1118 175.603 50.1326 175.395 50.1743C175.186 50.216 174.988 50.2368 174.801 50.2368C174.509 50.2785 174.197 50.3097 173.863 50.3306C173.551 50.3514 173.238 50.3826 172.926 50.4243C172.759 50.466 172.592 50.5076 172.426 50.5493C172.28 50.591 172.092 50.591 171.863 50.5493C171.759 50.7993 171.728 51.0806 171.77 51.3931C171.811 51.6847 171.842 51.9972 171.863 52.3306C171.884 52.4972 171.884 52.6743 171.863 52.8618C171.842 53.0285 171.853 53.1951 171.895 53.3618C171.936 53.6118 171.947 53.7681 171.926 53.8306C171.926 53.8931 171.926 53.966 171.926 54.0493C171.905 54.2368 171.884 54.4451 171.863 54.6743C171.863 54.8826 171.863 55.1014 171.863 55.3306C171.863 55.6431 171.853 55.9451 171.832 56.2368C171.811 56.5076 171.822 56.7368 171.863 56.9243C171.863 57.0076 171.874 57.091 171.895 57.1743C171.915 57.2576 171.936 57.3514 171.957 57.4556C172.02 57.8722 172.072 58.3201 172.113 58.7993C172.176 59.2576 172.238 59.716 172.301 60.1743C172.342 60.466 172.384 60.716 172.426 60.9243C172.467 61.0493 172.488 61.1951 172.488 61.3618C172.488 61.5076 172.509 61.6431 172.551 61.7681C172.572 61.8306 172.592 61.8931 172.613 61.9556C172.655 62.0181 172.697 62.0806 172.738 62.1431C172.78 62.2056 172.801 62.2785 172.801 62.3618C172.822 62.4243 172.842 62.4764 172.863 62.5181C172.905 62.5806 172.957 62.6326 173.02 62.6743C173.082 62.6951 173.145 62.7368 173.207 62.7993C173.374 62.9035 173.488 62.9972 173.551 63.0806C173.613 63.1431 173.686 63.1951 173.77 63.2368C173.832 63.2785 173.905 63.3097 173.988 63.3306C174.092 63.3306 174.186 63.3514 174.27 63.3931C174.353 63.4347 174.426 63.4764 174.488 63.5181C174.551 63.5389 174.613 63.5597 174.676 63.5806C174.717 63.6014 174.77 63.6118 174.832 63.6118C174.895 63.6118 174.957 63.6222 175.02 63.6431C175.124 63.6639 175.249 63.6847 175.395 63.7056C175.54 63.7056 175.697 63.7264 175.863 63.7681C175.967 63.7681 176.03 63.7681 176.051 63.7681C176.092 63.7681 176.165 63.7472 176.27 63.7056C176.374 63.6431 176.467 63.5806 176.551 63.5181C176.634 63.4556 176.738 63.3826 176.863 63.2993C176.905 63.1535 176.999 63.0076 177.145 62.8618C177.145 62.7576 177.176 62.6639 177.238 62.5806C177.301 62.4972 177.353 62.3931 177.395 62.2681C177.415 62.1847 177.426 62.091 177.426 61.9868C177.447 61.8826 177.478 61.7785 177.52 61.6743C177.54 61.5701 177.561 61.4764 177.582 61.3931C177.603 61.2889 177.624 61.1847 177.645 61.0806C177.665 60.8931 177.655 60.6951 177.613 60.4868C177.592 60.2785 177.572 60.0806 177.551 59.8931C177.53 59.7681 177.478 59.6431 177.395 59.5181C177.311 59.3722 177.249 59.2472 177.207 59.1431C177.124 59.0389 177.04 58.9451 176.957 58.8618C176.895 58.7576 176.811 58.6847 176.707 58.6431C176.561 58.5806 176.405 58.5597 176.238 58.5806C176.072 58.5806 175.926 58.6118 175.801 58.6743C175.676 58.7785 175.603 58.8306 175.582 58.8306C175.561 58.8306 175.53 58.841 175.488 58.8618C175.363 58.9868 175.27 59.0701 175.207 59.1118C175.165 59.1326 175.134 59.1639 175.113 59.2056C175.072 59.2681 175.03 59.4035 174.988 59.6118C174.947 59.6743 174.905 59.7472 174.863 59.8306C174.842 59.9139 174.832 59.9764 174.832 60.0181C174.79 60.2056 174.77 60.4035 174.77 60.6118C174.79 60.7993 174.811 60.9868 174.832 61.1743C174.957 61.2368 175.113 61.2993 175.301 61.3618C175.363 61.4035 175.426 61.4451 175.488 61.4868C175.572 61.5076 175.665 61.5181 175.77 61.5181C175.853 61.5181 175.947 61.4972 176.051 61.4556C176.155 61.3931 176.228 61.3306 176.27 61.2681C176.374 61.0181 176.426 60.8618 176.426 60.7993C176.426 60.716 176.395 60.6431 176.332 60.5806C176.29 60.5181 176.249 60.466 176.207 60.4243C176.145 60.3826 176.061 60.341 175.957 60.2993C175.874 60.2368 175.822 60.1431 175.801 60.0181C175.884 59.9139 176.051 59.8618 176.301 59.8618C176.384 59.8618 176.488 59.8722 176.613 59.8931C176.738 59.9139 176.822 59.9451 176.863 59.9868C176.967 60.0701 177.04 60.216 177.082 60.4243C177.124 60.6118 177.124 60.7889 177.082 60.9556C177.02 61.2264 176.884 61.4347 176.676 61.5806C176.572 61.6639 176.436 61.7368 176.27 61.7993C176.124 61.841 176.009 61.8618 175.926 61.8618C175.863 61.8618 175.79 61.8618 175.707 61.8618C175.645 61.841 175.592 61.8306 175.551 61.8306C175.447 61.7889 175.353 61.7576 175.27 61.7368C175.186 61.6951 175.103 61.6535 175.02 61.6118C174.936 61.5701 174.863 61.5389 174.801 61.5181C174.738 61.4972 174.655 61.466 174.551 61.4243C174.467 61.1951 174.436 61.0806 174.457 61.0806C174.478 61.0806 174.488 61.0701 174.488 61.0493C174.426 60.8201 174.405 60.6431 174.426 60.5181C174.447 60.3931 174.467 60.2785 174.488 60.1743C174.488 60.0701 174.467 59.9764 174.426 59.8931C174.405 59.7889 174.405 59.6847 174.426 59.5806C174.426 59.3514 174.457 59.1431 174.52 58.9556C174.603 58.7681 174.634 58.5597 174.613 58.3306C174.697 58.3097 174.759 58.2785 174.801 58.2368C174.863 58.1951 174.936 58.1639 175.02 58.1431C175.103 58.1222 175.186 58.1222 175.27 58.1431C175.374 58.1639 175.478 58.1743 175.582 58.1743C175.749 58.1535 175.905 58.1222 176.051 58.0806C176.217 58.0181 176.384 57.9972 176.551 58.0181C176.842 58.0597 177.082 58.1326 177.27 58.2368C177.353 58.2785 177.436 58.3514 177.52 58.4556C177.603 58.5597 177.697 58.6639 177.801 58.7681C178.009 58.9347 178.134 59.0597 178.176 59.1431C178.217 59.2056 178.259 59.2576 178.301 59.2993C178.342 59.341 178.363 59.4035 178.363 59.4868C178.363 59.5493 178.384 59.6222 178.426 59.7056C178.467 59.8514 178.499 59.9868 178.52 60.1118C178.561 60.2368 178.582 60.4035 178.582 60.6118C178.582 60.7368 178.572 60.8618 178.551 60.9868C178.53 61.1118 178.509 61.2576 178.488 61.4243C178.467 61.5701 178.457 61.7056 178.457 61.8306C178.478 61.9556 178.467 62.091 178.426 62.2368C178.342 62.6118 178.28 62.8514 178.238 62.9556C178.217 63.0597 178.176 63.1951 178.113 63.3618C178.009 63.5285 177.915 63.6951 177.832 63.8618C177.749 64.0285 177.676 64.1847 177.613 64.3306C177.509 64.3722 177.415 64.4243 177.332 64.4868C177.27 64.5285 177.186 64.5701 177.082 64.6118C176.665 64.8201 176.259 64.9764 175.863 65.0806C175.801 65.1014 175.738 65.1118 175.676 65.1118C175.634 65.1118 175.582 65.1326 175.52 65.1743C175.457 65.1951 175.395 65.216 175.332 65.2368C175.27 65.2576 175.217 65.2785 175.176 65.2993C175.072 65.3201 174.978 65.3201 174.895 65.2993C174.811 65.2993 174.717 65.3097 174.613 65.3306C174.384 65.3306 174.249 65.341 174.207 65.3618C174.165 65.3826 174.124 65.3931 174.082 65.3931C173.874 65.3722 173.665 65.3514 173.457 65.3306C173.27 65.3097 173.092 65.2785 172.926 65.2368C172.822 65.216 172.738 65.2056 172.676 65.2056C172.634 65.2056 172.561 65.1951 172.457 65.1743C172.395 65.1326 172.311 65.0806 172.207 65.0181C172.124 64.9556 172.04 64.9035 171.957 64.8618C171.832 64.7368 171.749 64.6639 171.707 64.6431C171.665 64.6431 171.634 64.6326 171.613 64.6118C171.551 64.5285 171.499 64.4556 171.457 64.3931C171.436 64.3306 171.405 64.2681 171.363 64.2056C171.217 64.0389 171.124 63.8931 171.082 63.7681C170.957 63.6014 170.895 63.5076 170.895 63.4868C170.895 63.4451 170.884 63.4035 170.863 63.3618C170.801 63.1326 170.728 62.9764 170.645 62.8931C170.561 62.8097 170.499 62.7368 170.457 62.6743C170.395 62.5701 170.322 62.4556 170.238 62.3306C170.176 62.2056 170.145 62.0597 170.145 61.8931C170.124 61.8097 170.124 61.716 170.145 61.6118C170.165 61.5076 170.176 61.4035 170.176 61.2993C170.197 61.0701 170.207 60.8722 170.207 60.7056C170.228 60.5181 170.238 60.341 170.238 60.1743C170.238 59.6951 170.228 59.2472 170.207 58.8306C170.207 58.3931 170.228 57.966 170.27 57.5493C170.29 57.2785 170.29 57.1014 170.27 57.0181C170.249 56.9347 170.238 56.8514 170.238 56.7681C170.238 56.6222 170.238 56.4764 170.238 56.3306C170.259 56.1847 170.28 56.0285 170.301 55.8618C170.322 55.6951 170.332 55.5285 170.332 55.3618C170.332 55.1951 170.342 55.0389 170.363 54.8931C170.363 54.8097 170.374 54.7368 170.395 54.6743C170.415 54.591 170.426 54.4972 170.426 54.3931C170.467 53.9764 170.478 53.5701 170.457 53.1743C170.457 52.7785 170.467 52.4035 170.488 52.0493C170.488 51.8826 170.499 51.7264 170.52 51.5806C170.54 51.4347 170.561 51.2785 170.582 51.1118C170.603 50.9035 170.603 50.7472 170.582 50.6431C170.561 50.5389 170.572 50.4451 170.613 50.3618C170.447 50.2576 170.259 50.2056 170.051 50.2056C169.863 50.2056 169.665 50.1847 169.457 50.1431C169.395 50.1222 169.28 50.091 169.113 50.0493C169.051 50.0285 168.988 50.0181 168.926 50.0181C168.884 49.9972 168.832 49.9868 168.77 49.9868C168.728 49.966 168.665 49.9556 168.582 49.9556C168.52 49.9347 168.457 49.9139 168.395 49.8931C168.186 49.7056 168.113 49.6014 168.176 49.5806C168.259 49.5597 168.332 49.5389 168.395 49.5181C168.457 49.4764 168.53 49.466 168.613 49.4868C168.717 49.4868 168.811 49.4868 168.895 49.4868C169.061 49.4243 169.165 49.4035 169.207 49.4243C169.27 49.4243 169.322 49.4243 169.363 49.4243C169.53 49.4035 169.717 49.3826 169.926 49.3618C170.155 49.341 170.384 49.341 170.613 49.3618C170.697 49.216 170.728 49.0806 170.707 48.9556C170.707 48.8097 170.707 48.6535 170.707 48.4868C170.707 48.2993 170.707 48.1222 170.707 47.9556C170.728 47.7681 170.749 47.5701 170.77 47.3618V46.9556C170.77 46.8722 170.749 46.7993 170.707 46.7368C170.686 46.6535 170.676 46.5597 170.676 46.4556C170.634 46.2889 170.613 46.1118 170.613 45.9243C170.634 45.7368 170.634 45.5597 170.613 45.3931C170.572 45.1222 170.52 44.8722 170.457 44.6431C170.395 44.4139 170.28 44.2264 170.113 44.0806C169.926 43.9972 169.822 43.9451 169.801 43.9243C169.801 43.9035 169.79 43.8826 169.77 43.8618C169.415 43.7368 169.145 43.6222 168.957 43.5181C168.853 43.4764 168.759 43.4556 168.676 43.4556C168.592 43.4347 168.488 43.4035 168.363 43.3618C168.259 43.3201 168.165 43.2889 168.082 43.2681C167.999 43.2264 167.895 43.1847 167.77 43.1431C167.707 43.1222 167.634 43.1118 167.551 43.1118C167.467 43.091 167.363 43.0597 167.238 43.0181C166.947 42.9139 166.749 42.8722 166.645 42.8931C166.54 42.8931 166.457 42.841 166.395 42.7368C166.395 42.6951 166.436 42.6535 166.52 42.6118C166.582 42.5701 166.645 42.5389 166.707 42.5181C166.874 42.5806 166.978 42.6118 167.02 42.6118C167.04 42.591 167.061 42.5806 167.082 42.5806C167.249 42.5806 167.426 42.591 167.613 42.6118C167.78 42.6118 167.947 42.591 168.113 42.5493C168.155 42.5493 168.207 42.5285 168.27 42.4868C168.332 42.4451 168.395 42.4243 168.457 42.4243C168.52 42.4035 168.592 42.3931 168.676 42.3931C168.759 42.3931 168.832 42.3931 168.895 42.3931C169.103 42.3514 169.301 42.3097 169.488 42.2681C169.697 42.2264 169.936 42.2056 170.207 42.2056C170.374 42.2264 170.52 42.2472 170.645 42.2681C170.77 42.2681 170.915 42.2576 171.082 42.2368C171.311 42.216 171.426 42.2056 171.426 42.2056C171.697 42.1847 171.947 42.1535 172.176 42.1118C172.259 42.091 172.363 42.0806 172.488 42.0806C172.613 42.0597 172.728 42.091 172.832 42.1743Z" fill="#6D0DB8"/>
<path fill-rule="evenodd" clip-rule="evenodd" d="M76.2147 68.0456C76.979 67.285 77.4083 66.2535 77.4083 65.1778V42.872C77.4083 41.7963 76.979 40.7648 76.2147 40.0042C75.4505 39.2436 74.414 38.8163 73.3332 38.8163H65.183L61.1079 32.7329H48.8827L44.8076 38.8163H36.6574C35.5766 38.8163 34.5401 39.2436 33.7758 40.0042C33.0116 40.7648 32.5823 41.7963 32.5823 42.872V65.1778C32.5823 66.2535 33.0116 67.285 33.7758 68.0456C34.5401 68.8062 35.5766 69.2335 36.6574 69.2335H73.3332C74.414 69.2335 75.4505 68.8062 76.2147 68.0456ZM69.258 55.0386C69.258 62.8779 62.8723 69.2328 54.9951 69.2328C47.118 69.2328 40.7323 62.8779 40.7323 55.0386C40.7323 47.1993 47.118 40.8443 54.9951 40.8443C62.8723 40.8443 69.258 47.1993 69.258 55.0386Z" fill="#6D0DB8"/>
<path d="M76.2147 68.0456L75.5093 67.3368V67.3368L76.2147 68.0456ZM76.2147 40.0042L75.5093 40.713L76.2147 40.0042ZM65.183 38.8163L64.3522 39.3729C64.5379 39.65 64.8495 39.8163 65.183 39.8163V38.8163ZM61.1079 32.7329L61.9388 32.1764C61.7531 31.8992 61.4415 31.7329 61.1079 31.7329V32.7329ZM48.8827 32.7329V31.7329C48.5491 31.7329 48.2375 31.8992 48.0518 32.1764L48.8827 32.7329ZM44.8076 38.8163V39.8163C45.1411 39.8163 45.4527 39.65 45.6384 39.3729L44.8076 38.8163ZM33.7758 40.0042L34.4813 40.713L34.4813 40.713L33.7758 40.0042ZM33.7758 68.0456L34.4813 67.3368H34.4813L33.7758 68.0456ZM76.4083 65.1778C76.4083 65.9867 76.0855 66.7634 75.5093 67.3368L76.9202 68.7544C77.8725 67.8067 78.4083 66.5202 78.4083 65.1778H76.4083ZM76.4083 42.872V65.1778H78.4083V42.872H76.4083ZM75.5093 40.713C76.0855 41.2864 76.4083 42.0631 76.4083 42.872H78.4083C78.4083 41.5296 77.8725 40.2431 76.9202 39.2954L75.5093 40.713ZM73.3332 39.8163C74.1503 39.8163 74.933 40.1394 75.5093 40.713L76.9202 39.2954C75.968 38.3478 74.6777 37.8163 73.3332 37.8163V39.8163ZM65.183 39.8163H73.3332V37.8163H65.183V39.8163ZM60.2771 33.2895L64.3522 39.3729L66.0139 38.2598L61.9388 32.1764L60.2771 33.2895ZM48.8827 33.7329H61.1079V31.7329H48.8827V33.7329ZM45.6384 39.3729L49.7135 33.2895L48.0518 32.1764L43.9767 38.2598L45.6384 39.3729ZM36.6574 39.8163H44.8076V37.8163H36.6574V39.8163ZM34.4813 40.713C35.0576 40.1394 35.8403 39.8163 36.6574 39.8163V37.8163C35.3129 37.8163 34.0226 38.3478 33.0704 39.2954L34.4813 40.713ZM33.5823 42.872C33.5823 42.0631 33.9051 41.2864 34.4813 40.713L33.0704 39.2954C32.1181 40.2431 31.5823 41.5296 31.5823 42.872H33.5823ZM33.5823 65.1778V42.872H31.5823V65.1778H33.5823ZM34.4813 67.3368C33.9051 66.7634 33.5823 65.9867 33.5823 65.1778H31.5823C31.5823 66.5202 32.1181 67.8067 33.0704 68.7544L34.4813 67.3368ZM36.6574 68.2335C35.8403 68.2335 35.0576 67.9104 34.4813 67.3368L33.0704 68.7544C34.0226 69.702 35.3129 70.2335 36.6574 70.2335V68.2335ZM73.3332 68.2335H36.6574V70.2335H73.3332V68.2335ZM75.5093 67.3368C74.933 67.9104 74.1503 68.2335 73.3332 68.2335V70.2335C74.6777 70.2335 75.968 69.702 76.9202 68.7544L75.5093 67.3368ZM54.9951 70.2328C63.42 70.2328 70.258 63.4347 70.258 55.0386H68.258C68.258 62.321 62.3245 68.2328 54.9951 68.2328V70.2328ZM39.7323 55.0386C39.7323 63.4347 46.5702 70.2328 54.9951 70.2328V68.2328C47.6657 68.2328 41.7323 62.321 41.7323 55.0386H39.7323ZM54.9951 39.8443C46.5702 39.8443 39.7323 46.6425 39.7323 55.0386H41.7323C41.7323 47.7561 47.6657 41.8443 54.9951 41.8443V39.8443ZM70.258 55.0386C70.258 46.6425 63.42 39.8443 54.9951 39.8443V41.8443C62.3245 41.8443 68.258 47.7561 68.258 55.0386H70.258Z" fill="#6D0DB8"/>
<path d="M54.9951 61.1221C54.9057 61.1226 54.8171 61.1056 54.7344 61.0719C54.6516 61.0383 54.5764 60.9887 54.5129 60.9261L49.2357 55.6675C48.5737 55.0018 48.2024 54.1031 48.2024 53.1666C48.2024 52.23 48.5737 51.3313 49.2357 50.6657C49.9028 50.0036 50.8065 49.6318 51.7486 49.6318C52.6908 49.6318 53.5945 50.0036 54.2616 50.6657L54.9951 51.3957L55.7286 50.6657C56.3958 50.0036 57.2995 49.6318 58.2416 49.6318C59.1838 49.6318 60.0875 50.0036 60.7546 50.6657C61.4165 51.3313 61.7879 52.23 61.7879 53.1666C61.7879 54.1031 61.4165 55.0018 60.7546 55.6675L55.4773 60.9261C55.4139 60.9887 55.3386 61.0383 55.2559 61.0719C55.1731 61.1056 55.0845 61.1226 54.9951 61.1221Z" fill="#6D0DB8"/>
</svg>
